%TF.GenerationSoftware,KiCad,Pcbnew,9.0.7*%
%TF.CreationDate,2026-02-13T21:43:38+07:00*%
%TF.ProjectId,aqm_sensor,61716d5f-7365-46e7-936f-722e6b696361,rev?*%
%TF.SameCoordinates,Original*%
%TF.FileFunction,Legend,Bot*%
%TF.FilePolarity,Positive*%
%FSLAX46Y46*%
G04 Gerber Fmt 4.6, Leading zero omitted, Abs format (unit mm)*
G04 Created by KiCad (PCBNEW 9.0.7) date 2026-02-13 21:43:38*
%MOMM*%
%LPD*%
G01*
G04 APERTURE LIST*
%ADD10C,1.000000*%
%ADD11R,1.000000X1.000000*%
%ADD12C,0.800000*%
%ADD13C,5.400000*%
%ADD14C,1.552000*%
G04 APERTURE END LIST*
%LPC*%
D10*
%TO.C,J3*%
X185835786Y-80585786D03*
X185835786Y-81835786D03*
X185835786Y-83095786D03*
X185835786Y-84345786D03*
X185835786Y-85585786D03*
X185835786Y-86835786D03*
X185835786Y-88095786D03*
D11*
X185835786Y-89345786D03*
%TD*%
D12*
%TO.C,H3*%
X147560786Y-96560786D03*
X148153895Y-95128895D03*
X148153895Y-97992677D03*
X149585786Y-94535786D03*
D13*
X149585786Y-96560786D03*
D12*
X149585786Y-98585786D03*
X151017677Y-95128895D03*
X151017677Y-97992677D03*
X151610786Y-96560786D03*
%TD*%
%TO.C,H1*%
X147585786Y-74585786D03*
X148178895Y-73153895D03*
X148178895Y-76017677D03*
X149610786Y-72560786D03*
D13*
X149610786Y-74585786D03*
D12*
X149610786Y-76610786D03*
X151042677Y-73153895D03*
X151042677Y-76017677D03*
X151635786Y-74585786D03*
%TD*%
%TO.C,*%
X147085786Y-87585786D03*
%TD*%
%TO.C,*%
X147085786Y-85585786D03*
%TD*%
%TO.C,H2*%
X184585786Y-74585786D03*
X185178895Y-73153895D03*
X185178895Y-76017677D03*
X186610786Y-72560786D03*
D13*
X186610786Y-74585786D03*
D12*
X186610786Y-76610786D03*
X188042677Y-73153895D03*
X188042677Y-76017677D03*
X188635786Y-74585786D03*
%TD*%
D14*
%TO.C,U3*%
X170463286Y-76965786D03*
X155223286Y-92205786D03*
X155223286Y-89665786D03*
X155223286Y-87125786D03*
X155223286Y-84585786D03*
X155223286Y-82045786D03*
X155223286Y-79505786D03*
X155223286Y-76965786D03*
X170463286Y-74425786D03*
X155223286Y-74425786D03*
X170463286Y-82045786D03*
X170463286Y-79505786D03*
X170463286Y-84585786D03*
X170463286Y-87125786D03*
X170463286Y-89665786D03*
X170463286Y-92205786D03*
%TD*%
D12*
%TO.C,H4*%
X184585786Y-96560786D03*
X185178895Y-95128895D03*
X185178895Y-97992677D03*
X186610786Y-94535786D03*
D13*
X186610786Y-96560786D03*
D12*
X186610786Y-98585786D03*
X188042677Y-95128895D03*
X188042677Y-97992677D03*
X188635786Y-96560786D03*
%TD*%
%LPD*%
M02*
