%TF.GenerationSoftware,KiCad,Pcbnew,9.0.7*%
%TF.CreationDate,2026-02-13T21:43:43+07:00*%
%TF.ProjectId,aqm_sensor,61716d5f-7365-46e7-936f-722e6b696361,rev?*%
%TF.SameCoordinates,Original*%
%TF.FileFunction,Drillmap*%
%TF.FilePolarity,Positive*%
%FSLAX45Y45*%
G04 Gerber Fmt 4.5, Leading zero omitted, Abs format (unit mm)*
G04 Created by KiCad (PCBNEW 9.0.7) date 2026-02-13 21:43:43*
%MOMM*%
%LPD*%
G01*
G04 APERTURE LIST*
%ADD10C,0.050000*%
%ADD11C,0.200000*%
G04 APERTURE END LIST*
D10*
X14558579Y-7258579D02*
G75*
G02*
X14758579Y-7058579I200001J-1D01*
G01*
X14558579Y-9858579D02*
X14558579Y-7258579D01*
X19058579Y-9858579D02*
G75*
G02*
X18858579Y-10058579I-199999J-1D01*
G01*
X18858579Y-7058579D02*
G75*
G02*
X19058581Y-7258579I1J-200001D01*
G01*
X14758579Y-10058579D02*
G75*
G02*
X14558581Y-9858579I1J199999D01*
G01*
X18858579Y-10058579D02*
X14758579Y-10058579D01*
X14758579Y-7058579D02*
X18858579Y-7058579D01*
X19058579Y-7258579D02*
X19058579Y-9858579D01*
D11*
X14816855Y-10372562D02*
X14816855Y-10172562D01*
X14816855Y-10172562D02*
X14864474Y-10172562D01*
X14864474Y-10172562D02*
X14893046Y-10182086D01*
X14893046Y-10182086D02*
X14912093Y-10201134D01*
X14912093Y-10201134D02*
X14921617Y-10220181D01*
X14921617Y-10220181D02*
X14931141Y-10258277D01*
X14931141Y-10258277D02*
X14931141Y-10286848D01*
X14931141Y-10286848D02*
X14921617Y-10324943D01*
X14921617Y-10324943D02*
X14912093Y-10343991D01*
X14912093Y-10343991D02*
X14893046Y-10363039D01*
X14893046Y-10363039D02*
X14864474Y-10372562D01*
X14864474Y-10372562D02*
X14816855Y-10372562D01*
X15016855Y-10372562D02*
X15016855Y-10239229D01*
X15016855Y-10277324D02*
X15026379Y-10258277D01*
X15026379Y-10258277D02*
X15035903Y-10248753D01*
X15035903Y-10248753D02*
X15054951Y-10239229D01*
X15054951Y-10239229D02*
X15073998Y-10239229D01*
X15140665Y-10372562D02*
X15140665Y-10239229D01*
X15140665Y-10172562D02*
X15131141Y-10182086D01*
X15131141Y-10182086D02*
X15140665Y-10191610D01*
X15140665Y-10191610D02*
X15150189Y-10182086D01*
X15150189Y-10182086D02*
X15140665Y-10172562D01*
X15140665Y-10172562D02*
X15140665Y-10191610D01*
X15264474Y-10372562D02*
X15245427Y-10363039D01*
X15245427Y-10363039D02*
X15235903Y-10343991D01*
X15235903Y-10343991D02*
X15235903Y-10172562D01*
X15369236Y-10372562D02*
X15350189Y-10363039D01*
X15350189Y-10363039D02*
X15340665Y-10343991D01*
X15340665Y-10343991D02*
X15340665Y-10172562D01*
X15597808Y-10372562D02*
X15597808Y-10172562D01*
X15597808Y-10172562D02*
X15664474Y-10315420D01*
X15664474Y-10315420D02*
X15731141Y-10172562D01*
X15731141Y-10172562D02*
X15731141Y-10372562D01*
X15912093Y-10372562D02*
X15912093Y-10267801D01*
X15912093Y-10267801D02*
X15902570Y-10248753D01*
X15902570Y-10248753D02*
X15883522Y-10239229D01*
X15883522Y-10239229D02*
X15845427Y-10239229D01*
X15845427Y-10239229D02*
X15826379Y-10248753D01*
X15912093Y-10363039D02*
X15893046Y-10372562D01*
X15893046Y-10372562D02*
X15845427Y-10372562D01*
X15845427Y-10372562D02*
X15826379Y-10363039D01*
X15826379Y-10363039D02*
X15816855Y-10343991D01*
X15816855Y-10343991D02*
X15816855Y-10324943D01*
X15816855Y-10324943D02*
X15826379Y-10305896D01*
X15826379Y-10305896D02*
X15845427Y-10296372D01*
X15845427Y-10296372D02*
X15893046Y-10296372D01*
X15893046Y-10296372D02*
X15912093Y-10286848D01*
X16007332Y-10239229D02*
X16007332Y-10439229D01*
X16007332Y-10248753D02*
X16026379Y-10239229D01*
X16026379Y-10239229D02*
X16064474Y-10239229D01*
X16064474Y-10239229D02*
X16083522Y-10248753D01*
X16083522Y-10248753D02*
X16093046Y-10258277D01*
X16093046Y-10258277D02*
X16102570Y-10277324D01*
X16102570Y-10277324D02*
X16102570Y-10334467D01*
X16102570Y-10334467D02*
X16093046Y-10353515D01*
X16093046Y-10353515D02*
X16083522Y-10363039D01*
X16083522Y-10363039D02*
X16064474Y-10372562D01*
X16064474Y-10372562D02*
X16026379Y-10372562D01*
X16026379Y-10372562D02*
X16007332Y-10363039D01*
X16188284Y-10353515D02*
X16197808Y-10363039D01*
X16197808Y-10363039D02*
X16188284Y-10372562D01*
X16188284Y-10372562D02*
X16178760Y-10363039D01*
X16178760Y-10363039D02*
X16188284Y-10353515D01*
X16188284Y-10353515D02*
X16188284Y-10372562D01*
X16188284Y-10248753D02*
X16197808Y-10258277D01*
X16197808Y-10258277D02*
X16188284Y-10267801D01*
X16188284Y-10267801D02*
X16178760Y-10258277D01*
X16178760Y-10258277D02*
X16188284Y-10248753D01*
X16188284Y-10248753D02*
X16188284Y-10267801D01*
M02*
