%TF.GenerationSoftware,KiCad,Pcbnew,9.0.7*%
%TF.CreationDate,2026-03-22T11:42:40+07:00*%
%TF.ProjectId,aqm_sensor,61716d5f-7365-46e7-936f-722e6b696361,rev?*%
%TF.SameCoordinates,Original*%
%TF.FileFunction,Copper,L2,Bot*%
%TF.FilePolarity,Positive*%
%FSLAX46Y46*%
G04 Gerber Fmt 4.6, Leading zero omitted, Abs format (unit mm)*
G04 Created by KiCad (PCBNEW 9.0.7) date 2026-03-22 11:42:40*
%MOMM*%
%LPD*%
G01*
G04 APERTURE LIST*
G04 Aperture macros list*
%AMRoundRect*
0 Rectangle with rounded corners*
0 $1 Rounding radius*
0 $2 $3 $4 $5 $6 $7 $8 $9 X,Y pos of 4 corners*
0 Add a 4 corners polygon primitive as box body*
4,1,4,$2,$3,$4,$5,$6,$7,$8,$9,$2,$3,0*
0 Add four circle primitives for the rounded corners*
1,1,$1+$1,$2,$3*
1,1,$1+$1,$4,$5*
1,1,$1+$1,$6,$7*
1,1,$1+$1,$8,$9*
0 Add four rect primitives between the rounded corners*
20,1,$1+$1,$2,$3,$4,$5,0*
20,1,$1+$1,$4,$5,$6,$7,0*
20,1,$1+$1,$6,$7,$8,$9,0*
20,1,$1+$1,$8,$9,$2,$3,0*%
G04 Aperture macros list end*
%TA.AperFunction,ComponentPad*%
%ADD10C,0.800000*%
%TD*%
%TA.AperFunction,ComponentPad*%
%ADD11C,5.400000*%
%TD*%
%TA.AperFunction,ComponentPad*%
%ADD12C,2.000000*%
%TD*%
%TA.AperFunction,ComponentPad*%
%ADD13C,1.000000*%
%TD*%
%TA.AperFunction,ComponentPad*%
%ADD14RoundRect,0.250000X-0.250000X0.250000X-0.250000X-0.250000X0.250000X-0.250000X0.250000X0.250000X0*%
%TD*%
%TA.AperFunction,ComponentPad*%
%ADD15C,1.348000*%
%TD*%
%TA.AperFunction,ViaPad*%
%ADD16C,0.600000*%
%TD*%
G04 APERTURE END LIST*
D10*
%TO.P,H2,1,1*%
%TO.N,GND*%
X147374627Y-96585786D03*
X147967736Y-95153895D03*
X147967736Y-98017677D03*
X149399627Y-94560786D03*
D11*
X149399627Y-96585786D03*
D10*
X149399627Y-98610786D03*
X150831518Y-95153895D03*
X150831518Y-98017677D03*
X151424627Y-96585786D03*
%TD*%
%TO.P,H1,1,1*%
%TO.N,GND*%
X147560786Y-74585786D03*
X148153895Y-73153895D03*
X148153895Y-76017677D03*
X149585786Y-72560786D03*
D11*
X149585786Y-74585786D03*
D10*
X149585786Y-76610786D03*
X151017677Y-73153895D03*
X151017677Y-76017677D03*
X151610786Y-74585786D03*
%TD*%
D12*
%TO.P,TP1,1,1*%
%TO.N,/PMS_TX*%
X157585786Y-80585786D03*
%TD*%
D10*
%TO.P,H3,1,1*%
%TO.N,GND*%
X184535786Y-74585786D03*
X185128895Y-73153895D03*
X185128895Y-76017677D03*
X186560786Y-72560786D03*
D11*
X186560786Y-74585786D03*
D10*
X186560786Y-76610786D03*
X187992677Y-73153895D03*
X187992677Y-76017677D03*
X188585786Y-74585786D03*
%TD*%
D13*
%TO.P,J1,1,1*%
%TO.N,unconnected-(J3-Pad1)*%
X149925268Y-80195786D03*
%TO.P,J1,2,2*%
%TO.N,unconnected-(J3-Pad2)*%
X149925268Y-81445786D03*
%TO.P,J1,3,3*%
%TO.N,/PMS_RESET*%
X149925268Y-82705786D03*
%TO.P,J1,4,4*%
%TO.N,Net-(J3-Pad4)*%
X149925268Y-83955786D03*
%TO.P,J1,5,5*%
%TO.N,/PMS_RX*%
X149925268Y-85195786D03*
%TO.P,J1,6,6*%
%TO.N,/PMS_SET*%
X149925268Y-86445786D03*
D14*
%TO.P,J1,7,7*%
%TO.N,GND*%
X149925268Y-87705786D03*
D13*
%TO.P,J1,8,8*%
%TO.N,+5V*%
X149925268Y-88955786D03*
%TD*%
D12*
%TO.P,TP3,1,1*%
%TO.N,/PMS_RX*%
X157585786Y-84585786D03*
%TD*%
D15*
%TO.P,U1,0,GPIO0*%
%TO.N,/LED*%
X162085786Y-74455786D03*
%TO.P,U1,1,GPIO1*%
%TO.N,/PMS_RESET*%
X162085786Y-76995786D03*
%TO.P,U1,2,GPIO2*%
%TO.N,/PMS_TX*%
X162085786Y-79535786D03*
%TO.P,U1,3,GPIO3*%
%TO.N,/PMS_RX*%
X162085786Y-82075786D03*
%TO.P,U1,3.3,3V3*%
%TO.N,+3.3V*%
X162085786Y-87155786D03*
%TO.P,U1,4,GPIO4*%
%TO.N,/PMS_SET*%
X162085786Y-84615786D03*
%TO.P,U1,5,GPIO5*%
%TO.N,unconnected-(U3-GPIO5-Pad5)*%
X177325786Y-92235786D03*
%TO.P,U1,5V,5V*%
%TO.N,+5V*%
X162085786Y-92235786D03*
%TO.P,U1,6,GPIO6*%
%TO.N,unconnected-(U3-GPIO6-Pad6)*%
X177325786Y-89695786D03*
%TO.P,U1,7,GPIO7*%
%TO.N,unconnected-(U3-GPIO7-Pad7)*%
X177325786Y-87155786D03*
%TO.P,U1,8,GPIO8*%
%TO.N,/I2C_SDA*%
X177325786Y-84615786D03*
%TO.P,U1,9,GPIO9*%
%TO.N,/I2C_SCL*%
X177325786Y-82075786D03*
%TO.P,U1,10,GPIO10*%
%TO.N,unconnected-(U3-GPIO10-Pad10)*%
X177325786Y-79535786D03*
%TO.P,U1,20,GPIO20*%
%TO.N,unconnected-(U3-GPIO20-Pad20)*%
X177325786Y-76995786D03*
%TO.P,U1,21,GPIO21*%
%TO.N,unconnected-(U3-GPIO21-Pad21)*%
X177325786Y-74455786D03*
%TO.P,U1,G,GND*%
%TO.N,GND*%
X162085786Y-89695786D03*
%TD*%
D10*
%TO.P,H4,1,1*%
%TO.N,GND*%
X184560786Y-96560786D03*
X185153895Y-95128895D03*
X185153895Y-97992677D03*
X186585786Y-94535786D03*
D11*
X186585786Y-96560786D03*
D10*
X186585786Y-98585786D03*
X188017677Y-95128895D03*
X188017677Y-97992677D03*
X188610786Y-96560786D03*
%TD*%
D16*
%TO.N,GND*%
X148505786Y-87705786D03*
X186335786Y-83585786D03*
X181335786Y-93085786D03*
X189085786Y-82669119D03*
X189085786Y-80335786D03*
X157210786Y-73460786D03*
X189085786Y-83835786D03*
X189085786Y-81502453D03*
X152585786Y-94835786D03*
X152585786Y-88335786D03*
X156335786Y-72585786D03*
%TD*%
%TA.AperFunction,Conductor*%
%TO.N,GND*%
G36*
X162278825Y-71105971D02*
G01*
X162324580Y-71158775D01*
X162335786Y-71210286D01*
X162335786Y-73262302D01*
X162316101Y-73329341D01*
X162263297Y-73375096D01*
X162194139Y-73385040D01*
X162192391Y-73384776D01*
X162170353Y-73381286D01*
X162170351Y-73381286D01*
X162001221Y-73381286D01*
X162001217Y-73381286D01*
X161834173Y-73407743D01*
X161673316Y-73460008D01*
X161522624Y-73536791D01*
X161455189Y-73585786D01*
X161385796Y-73636203D01*
X161385794Y-73636205D01*
X161385793Y-73636205D01*
X161266205Y-73755793D01*
X161266205Y-73755794D01*
X161266203Y-73755796D01*
X161223509Y-73814558D01*
X161166791Y-73892624D01*
X161090008Y-74043316D01*
X161037743Y-74204173D01*
X161011286Y-74371216D01*
X161011286Y-74540355D01*
X161037743Y-74707398D01*
X161090008Y-74868255D01*
X161166791Y-75018947D01*
X161266203Y-75155776D01*
X161385796Y-75275369D01*
X161522625Y-75374781D01*
X161593820Y-75411057D01*
X161673316Y-75451563D01*
X161673318Y-75451563D01*
X161673321Y-75451565D01*
X161834173Y-75503829D01*
X161936433Y-75520024D01*
X162001217Y-75530286D01*
X162001221Y-75530286D01*
X162170355Y-75530286D01*
X162229412Y-75520931D01*
X162337399Y-75503829D01*
X162498251Y-75451565D01*
X162648947Y-75374781D01*
X162785776Y-75275369D01*
X162905369Y-75155776D01*
X163004781Y-75018947D01*
X163081565Y-74868251D01*
X163133829Y-74707399D01*
X163150931Y-74599412D01*
X163160286Y-74540355D01*
X163160286Y-74371216D01*
X176251286Y-74371216D01*
X176251286Y-74540355D01*
X176277743Y-74707398D01*
X176330008Y-74868255D01*
X176406791Y-75018947D01*
X176506203Y-75155776D01*
X176625796Y-75275369D01*
X176762625Y-75374781D01*
X176833820Y-75411057D01*
X176913316Y-75451563D01*
X176913318Y-75451563D01*
X176913321Y-75451565D01*
X177074173Y-75503829D01*
X177176433Y-75520024D01*
X177241217Y-75530286D01*
X177241221Y-75530286D01*
X177410355Y-75530286D01*
X177469412Y-75520931D01*
X177577399Y-75503829D01*
X177738251Y-75451565D01*
X177888947Y-75374781D01*
X178025776Y-75275369D01*
X178145369Y-75155776D01*
X178244781Y-75018947D01*
X178321565Y-74868251D01*
X178373829Y-74707399D01*
X178390931Y-74599412D01*
X178400286Y-74540355D01*
X178400286Y-74371216D01*
X178388593Y-74297394D01*
X178373829Y-74204173D01*
X178321565Y-74043321D01*
X178321563Y-74043318D01*
X178321563Y-74043316D01*
X178244780Y-73892624D01*
X178145369Y-73755796D01*
X178025776Y-73636203D01*
X177888947Y-73536791D01*
X177738255Y-73460008D01*
X177661076Y-73434931D01*
X177577399Y-73407743D01*
X177543989Y-73402451D01*
X177410355Y-73381286D01*
X177410351Y-73381286D01*
X177241221Y-73381286D01*
X177241217Y-73381286D01*
X177074173Y-73407743D01*
X176913316Y-73460008D01*
X176762624Y-73536791D01*
X176695189Y-73585786D01*
X176625796Y-73636203D01*
X176625794Y-73636205D01*
X176625793Y-73636205D01*
X176506205Y-73755793D01*
X176506205Y-73755794D01*
X176506203Y-73755796D01*
X176463509Y-73814558D01*
X176406791Y-73892624D01*
X176330008Y-74043316D01*
X176277743Y-74204173D01*
X176251286Y-74371216D01*
X163160286Y-74371216D01*
X163148593Y-74297394D01*
X163133829Y-74204173D01*
X163081565Y-74043321D01*
X163081563Y-74043318D01*
X163081563Y-74043316D01*
X163004780Y-73892624D01*
X162924894Y-73782670D01*
X162901415Y-73716865D01*
X162917240Y-73648811D01*
X162967346Y-73600116D01*
X163025213Y-73585786D01*
X175335786Y-73585786D01*
X175335786Y-71210286D01*
X175355471Y-71143247D01*
X175408275Y-71097492D01*
X175459786Y-71086286D01*
X188019893Y-71086286D01*
X188019897Y-71086287D01*
X188081725Y-71086286D01*
X188089831Y-71086550D01*
X188338673Y-71102859D01*
X188354741Y-71104975D01*
X188595333Y-71152830D01*
X188610995Y-71157026D01*
X188843283Y-71235876D01*
X188858254Y-71242077D01*
X189078264Y-71350572D01*
X189092305Y-71358680D01*
X189296261Y-71494958D01*
X189309129Y-71504831D01*
X189493551Y-71666563D01*
X189505021Y-71678033D01*
X189666755Y-71862453D01*
X189676629Y-71875321D01*
X189812907Y-72079273D01*
X189821017Y-72093320D01*
X189929512Y-72313323D01*
X189935719Y-72328308D01*
X190014566Y-72560581D01*
X190018764Y-72576248D01*
X190066620Y-72816830D01*
X190068737Y-72832911D01*
X190085020Y-73081303D01*
X190085286Y-73089414D01*
X190085286Y-98019893D01*
X190085285Y-98019897D01*
X190085285Y-98049888D01*
X190085285Y-98081301D01*
X190085285Y-98081723D01*
X190085020Y-98089832D01*
X190068712Y-98338664D01*
X190066594Y-98354746D01*
X190018739Y-98595334D01*
X190014542Y-98611001D01*
X189935697Y-98843270D01*
X189929493Y-98858248D01*
X189821000Y-99078252D01*
X189812890Y-99092300D01*
X189676615Y-99296250D01*
X189666741Y-99309118D01*
X189505008Y-99493539D01*
X189493539Y-99505008D01*
X189309118Y-99666741D01*
X189296250Y-99676615D01*
X189092300Y-99812890D01*
X189078252Y-99821000D01*
X188858248Y-99929493D01*
X188843270Y-99935697D01*
X188722608Y-99976657D01*
X188611001Y-100014542D01*
X188595334Y-100018739D01*
X188354746Y-100066594D01*
X188338664Y-100068712D01*
X188089832Y-100085020D01*
X188081723Y-100085285D01*
X188012303Y-100085285D01*
X188012287Y-100085286D01*
X148089842Y-100085286D01*
X148081731Y-100085020D01*
X147832915Y-100068710D01*
X147816834Y-100066593D01*
X147576255Y-100018737D01*
X147560588Y-100014539D01*
X147328318Y-99935693D01*
X147313333Y-99929486D01*
X147093334Y-99820993D01*
X147079292Y-99812886D01*
X146875337Y-99676606D01*
X146862470Y-99666733D01*
X146678048Y-99504997D01*
X146666580Y-99493528D01*
X146504858Y-99309118D01*
X146504853Y-99309112D01*
X146494982Y-99296248D01*
X146358704Y-99092291D01*
X146350597Y-99078250D01*
X146242106Y-98858248D01*
X146235902Y-98843272D01*
X146157051Y-98610982D01*
X146152855Y-98595316D01*
X146144996Y-98555807D01*
X146105002Y-98354740D01*
X146102887Y-98338681D01*
X146086550Y-98089398D01*
X146086286Y-98081303D01*
X146086286Y-98081301D01*
X146086287Y-98019897D01*
X146086286Y-98019893D01*
X146086286Y-92119741D01*
X160611286Y-92119741D01*
X160611286Y-92351830D01*
X160647594Y-92581066D01*
X160647594Y-92581069D01*
X160719312Y-92801794D01*
X160824681Y-93008592D01*
X160961101Y-93196358D01*
X161125214Y-93360471D01*
X161312980Y-93496891D01*
X161519775Y-93602258D01*
X161519777Y-93602259D01*
X161725661Y-93669154D01*
X161740507Y-93673978D01*
X161969740Y-93710286D01*
X161969741Y-93710286D01*
X162201831Y-93710286D01*
X162201832Y-93710286D01*
X162431065Y-93673978D01*
X162431068Y-93673977D01*
X162431069Y-93673977D01*
X162651794Y-93602259D01*
X162651794Y-93602258D01*
X162651797Y-93602258D01*
X162858592Y-93496891D01*
X163046358Y-93360471D01*
X163210471Y-93196358D01*
X163346891Y-93008592D01*
X163452258Y-92801797D01*
X163523978Y-92581065D01*
X163560286Y-92351832D01*
X163560286Y-92151216D01*
X176251286Y-92151216D01*
X176251286Y-92320355D01*
X176277743Y-92487398D01*
X176330008Y-92648255D01*
X176406791Y-92798947D01*
X176506203Y-92935776D01*
X176625796Y-93055369D01*
X176762625Y-93154781D01*
X176833820Y-93191057D01*
X176913316Y-93231563D01*
X176913318Y-93231563D01*
X176913321Y-93231565D01*
X177074173Y-93283829D01*
X177176433Y-93300024D01*
X177241217Y-93310286D01*
X177241221Y-93310286D01*
X177410355Y-93310286D01*
X177469412Y-93300931D01*
X177577399Y-93283829D01*
X177738251Y-93231565D01*
X177888947Y-93154781D01*
X178025776Y-93055369D01*
X178145369Y-92935776D01*
X178244781Y-92798947D01*
X178321565Y-92648251D01*
X178373829Y-92487399D01*
X178395300Y-92351832D01*
X178400286Y-92320355D01*
X178400286Y-92151216D01*
X178388593Y-92077394D01*
X178373829Y-91984173D01*
X178321565Y-91823321D01*
X178321563Y-91823318D01*
X178321563Y-91823316D01*
X178244780Y-91672624D01*
X178242710Y-91669775D01*
X178145369Y-91535796D01*
X178025776Y-91416203D01*
X177888947Y-91316791D01*
X177738255Y-91240008D01*
X177661076Y-91214931D01*
X177577399Y-91187743D01*
X177543989Y-91182451D01*
X177410355Y-91161286D01*
X177410351Y-91161286D01*
X177241221Y-91161286D01*
X177241217Y-91161286D01*
X177074173Y-91187743D01*
X176913316Y-91240008D01*
X176762624Y-91316791D01*
X176684558Y-91373509D01*
X176625796Y-91416203D01*
X176625794Y-91416205D01*
X176625793Y-91416205D01*
X176506205Y-91535793D01*
X176506205Y-91535794D01*
X176506203Y-91535796D01*
X176463509Y-91594558D01*
X176406791Y-91672624D01*
X176330008Y-91823316D01*
X176277743Y-91984173D01*
X176251286Y-92151216D01*
X163560286Y-92151216D01*
X163560286Y-92119740D01*
X163523978Y-91890507D01*
X163523977Y-91890503D01*
X163523977Y-91890502D01*
X163452259Y-91669777D01*
X163346890Y-91462979D01*
X163312907Y-91416205D01*
X163210471Y-91275214D01*
X163046358Y-91111101D01*
X162858592Y-90974681D01*
X162858584Y-90974677D01*
X162723995Y-90906100D01*
X162673199Y-90858125D01*
X162656404Y-90790304D01*
X162678942Y-90724169D01*
X162707405Y-90695297D01*
X162721501Y-90685055D01*
X162721502Y-90685054D01*
X162149876Y-90113428D01*
X162247900Y-90087164D01*
X162343672Y-90031870D01*
X162421870Y-89953672D01*
X162477164Y-89857900D01*
X162503428Y-89759876D01*
X163075054Y-90331502D01*
X163075054Y-90331501D01*
X163089880Y-90311096D01*
X163173772Y-90146447D01*
X163230878Y-89970694D01*
X163259786Y-89788181D01*
X163259786Y-89611216D01*
X176251286Y-89611216D01*
X176251286Y-89780355D01*
X176252526Y-89788181D01*
X176277743Y-89947399D01*
X176285312Y-89970694D01*
X176330008Y-90108255D01*
X176406791Y-90258947D01*
X176506203Y-90395776D01*
X176625796Y-90515369D01*
X176762625Y-90614781D01*
X176833820Y-90651057D01*
X176913316Y-90691563D01*
X176913318Y-90691563D01*
X176913321Y-90691565D01*
X177074173Y-90743829D01*
X177176433Y-90760024D01*
X177241217Y-90770286D01*
X177241221Y-90770286D01*
X177410355Y-90770286D01*
X177469412Y-90760931D01*
X177577399Y-90743829D01*
X177738251Y-90691565D01*
X177888947Y-90614781D01*
X178025776Y-90515369D01*
X178145369Y-90395776D01*
X178244781Y-90258947D01*
X178321565Y-90108251D01*
X178373829Y-89947399D01*
X178399046Y-89788181D01*
X178400286Y-89780355D01*
X178400286Y-89611216D01*
X178382655Y-89499900D01*
X178373829Y-89444173D01*
X178321565Y-89283321D01*
X178321563Y-89283318D01*
X178321563Y-89283316D01*
X178244780Y-89132624D01*
X178145369Y-88995796D01*
X178025776Y-88876203D01*
X177888947Y-88776791D01*
X177738255Y-88700008D01*
X177661076Y-88674931D01*
X177577399Y-88647743D01*
X177543989Y-88642451D01*
X177410355Y-88621286D01*
X177410351Y-88621286D01*
X177241221Y-88621286D01*
X177241217Y-88621286D01*
X177074173Y-88647743D01*
X176913316Y-88700008D01*
X176762624Y-88776791D01*
X176684558Y-88833509D01*
X176625796Y-88876203D01*
X176625794Y-88876205D01*
X176625793Y-88876205D01*
X176506205Y-88995793D01*
X176506205Y-88995794D01*
X176506203Y-88995796D01*
X176485146Y-89024779D01*
X176406791Y-89132624D01*
X176330008Y-89283316D01*
X176277743Y-89444173D01*
X176251286Y-89611216D01*
X163259786Y-89611216D01*
X163259786Y-89603390D01*
X163230878Y-89420877D01*
X163173772Y-89245124D01*
X163089878Y-89080472D01*
X163075055Y-89060069D01*
X162503428Y-89631695D01*
X162477164Y-89533672D01*
X162421870Y-89437900D01*
X162343672Y-89359702D01*
X162247900Y-89304408D01*
X162149876Y-89278142D01*
X162721502Y-88706516D01*
X162701093Y-88691689D01*
X162701089Y-88691686D01*
X162536450Y-88607800D01*
X162360694Y-88550693D01*
X162178181Y-88521786D01*
X161993391Y-88521786D01*
X161810877Y-88550693D01*
X161635124Y-88607799D01*
X161470478Y-88691689D01*
X161470474Y-88691692D01*
X161450069Y-88706515D01*
X161450069Y-88706516D01*
X162021696Y-89278142D01*
X161923672Y-89304408D01*
X161827900Y-89359702D01*
X161749702Y-89437900D01*
X161694408Y-89533672D01*
X161668142Y-89631695D01*
X161096516Y-89060069D01*
X161096515Y-89060069D01*
X161081692Y-89080474D01*
X161081689Y-89080478D01*
X160997799Y-89245124D01*
X160940693Y-89420877D01*
X160911786Y-89603390D01*
X160911786Y-89788181D01*
X160940693Y-89970694D01*
X160997800Y-90146450D01*
X161081686Y-90311089D01*
X161081689Y-90311093D01*
X161096516Y-90331501D01*
X161096516Y-90331502D01*
X161668142Y-89759876D01*
X161694408Y-89857900D01*
X161749702Y-89953672D01*
X161827900Y-90031870D01*
X161923672Y-90087164D01*
X162021695Y-90113429D01*
X161450069Y-90685054D01*
X161450069Y-90685055D01*
X161464165Y-90695296D01*
X161506831Y-90750625D01*
X161512812Y-90820238D01*
X161480207Y-90882034D01*
X161447576Y-90906099D01*
X161312984Y-90974677D01*
X161125211Y-91111103D01*
X160961103Y-91275211D01*
X160824681Y-91462979D01*
X160719312Y-91669777D01*
X160647594Y-91890502D01*
X160647594Y-91890505D01*
X160611286Y-92119741D01*
X146086286Y-92119741D01*
X146086286Y-89024781D01*
X149224767Y-89024781D01*
X149251686Y-89160108D01*
X149251689Y-89160118D01*
X149304489Y-89287590D01*
X149304496Y-89287603D01*
X149381153Y-89402327D01*
X149381156Y-89402331D01*
X149478722Y-89499897D01*
X149478726Y-89499900D01*
X149593450Y-89576557D01*
X149593463Y-89576564D01*
X149720935Y-89629364D01*
X149720940Y-89629366D01*
X149720944Y-89629366D01*
X149720945Y-89629367D01*
X149856272Y-89656286D01*
X149856275Y-89656286D01*
X149994263Y-89656286D01*
X150085309Y-89638175D01*
X150129596Y-89629366D01*
X150257079Y-89576561D01*
X150371810Y-89499900D01*
X150469382Y-89402328D01*
X150546043Y-89287597D01*
X150598848Y-89160114D01*
X150614689Y-89080478D01*
X150625768Y-89024781D01*
X150625768Y-88886790D01*
X150604121Y-88777966D01*
X150604121Y-88777965D01*
X150598849Y-88751465D01*
X150598849Y-88751463D01*
X150598848Y-88751458D01*
X150598846Y-88751453D01*
X150546046Y-88623981D01*
X150546039Y-88623968D01*
X150469382Y-88509244D01*
X150469379Y-88509240D01*
X150371813Y-88411674D01*
X150371809Y-88411671D01*
X150257085Y-88335014D01*
X150257075Y-88335009D01*
X150184031Y-88304753D01*
X150143803Y-88277873D01*
X149925269Y-88059338D01*
X149706731Y-88277874D01*
X149666504Y-88304752D01*
X149593463Y-88335007D01*
X149593454Y-88335012D01*
X149478730Y-88411668D01*
X149478722Y-88411674D01*
X149381156Y-88509240D01*
X149381153Y-88509244D01*
X149304496Y-88623968D01*
X149304489Y-88623981D01*
X149251689Y-88751453D01*
X149251686Y-88751463D01*
X149224768Y-88886790D01*
X149224768Y-88886793D01*
X149224768Y-89024779D01*
X149224768Y-89024781D01*
X149224767Y-89024781D01*
X146086286Y-89024781D01*
X146086286Y-87405799D01*
X148925268Y-87405799D01*
X148925268Y-88005757D01*
X148925269Y-88005773D01*
X148935762Y-88108483D01*
X148990909Y-88274905D01*
X148990911Y-88274910D01*
X148995367Y-88282133D01*
X149571716Y-87705786D01*
X149571716Y-87705785D01*
X149532221Y-87666290D01*
X149625268Y-87666290D01*
X149625268Y-87745282D01*
X149645712Y-87821582D01*
X149685208Y-87889991D01*
X149741063Y-87945846D01*
X149809472Y-87985342D01*
X149885772Y-88005786D01*
X149964764Y-88005786D01*
X150041064Y-87985342D01*
X150109473Y-87945846D01*
X150165328Y-87889991D01*
X150204824Y-87821582D01*
X150225268Y-87745282D01*
X150225268Y-87705785D01*
X150278820Y-87705785D01*
X150278820Y-87705786D01*
X150855167Y-88282133D01*
X150859625Y-88274907D01*
X150914773Y-88108483D01*
X150914774Y-88108476D01*
X150925267Y-88005772D01*
X150925267Y-87405814D01*
X150925266Y-87405798D01*
X150914773Y-87303088D01*
X150859625Y-87136662D01*
X150856411Y-87131452D01*
X150856410Y-87131450D01*
X150855168Y-87129436D01*
X150278820Y-87705785D01*
X150225268Y-87705785D01*
X150225268Y-87666290D01*
X150204824Y-87589990D01*
X150165328Y-87521581D01*
X150109473Y-87465726D01*
X150041064Y-87426230D01*
X149964764Y-87405786D01*
X149885772Y-87405786D01*
X149809472Y-87426230D01*
X149741063Y-87465726D01*
X149685208Y-87521581D01*
X149645712Y-87589990D01*
X149625268Y-87666290D01*
X149532221Y-87666290D01*
X148995367Y-87129436D01*
X148995366Y-87129437D01*
X148990912Y-87136659D01*
X148990910Y-87136663D01*
X148935762Y-87303088D01*
X148935761Y-87303095D01*
X148925268Y-87405799D01*
X146086286Y-87405799D01*
X146086286Y-80107090D01*
X149024768Y-80107090D01*
X149024768Y-80284481D01*
X149059371Y-80458444D01*
X149059374Y-80458453D01*
X149127251Y-80622326D01*
X149127258Y-80622339D01*
X149213825Y-80751895D01*
X149234703Y-80818573D01*
X149216218Y-80885953D01*
X149213825Y-80889677D01*
X149127258Y-81019232D01*
X149127251Y-81019245D01*
X149059374Y-81183118D01*
X149059371Y-81183127D01*
X149024768Y-81357090D01*
X149024768Y-81534481D01*
X149059371Y-81708444D01*
X149059374Y-81708453D01*
X149127251Y-81872326D01*
X149127258Y-81872339D01*
X149217166Y-82006895D01*
X149238044Y-82073573D01*
X149219559Y-82140953D01*
X149217166Y-82144677D01*
X149127258Y-82279232D01*
X149127251Y-82279245D01*
X149059374Y-82443118D01*
X149059371Y-82443127D01*
X149024768Y-82617090D01*
X149024768Y-82794481D01*
X149059371Y-82968444D01*
X149059374Y-82968453D01*
X149127251Y-83132326D01*
X149127258Y-83132339D01*
X149213825Y-83261895D01*
X149234703Y-83328573D01*
X149216218Y-83395953D01*
X149213825Y-83399677D01*
X149127258Y-83529232D01*
X149127251Y-83529245D01*
X149059374Y-83693118D01*
X149059371Y-83693127D01*
X149024768Y-83867090D01*
X149024768Y-84044481D01*
X149059371Y-84218444D01*
X149059374Y-84218453D01*
X149127251Y-84382326D01*
X149127258Y-84382339D01*
X149210484Y-84506895D01*
X149231362Y-84573573D01*
X149212877Y-84640953D01*
X149210484Y-84644677D01*
X149127258Y-84769232D01*
X149127251Y-84769245D01*
X149059374Y-84933118D01*
X149059371Y-84933127D01*
X149024768Y-85107090D01*
X149024768Y-85284481D01*
X149059371Y-85458444D01*
X149059374Y-85458453D01*
X149127251Y-85622326D01*
X149127258Y-85622339D01*
X149225803Y-85769820D01*
X149225806Y-85769824D01*
X149338864Y-85882882D01*
X149372349Y-85944205D01*
X149367365Y-86013897D01*
X149354286Y-86039453D01*
X149304495Y-86113970D01*
X149304489Y-86113981D01*
X149251689Y-86241453D01*
X149251686Y-86241463D01*
X149224768Y-86376790D01*
X149224768Y-86376793D01*
X149224768Y-86514779D01*
X149224768Y-86514781D01*
X149224767Y-86514781D01*
X149251686Y-86650108D01*
X149251689Y-86650118D01*
X149304489Y-86777590D01*
X149304496Y-86777603D01*
X149381153Y-86892327D01*
X149381156Y-86892331D01*
X149478722Y-86989897D01*
X149478726Y-86989900D01*
X149593450Y-87066557D01*
X149593457Y-87066561D01*
X149649432Y-87089746D01*
X149689660Y-87116626D01*
X149925267Y-87352233D01*
X150160873Y-87116626D01*
X150201098Y-87089749D01*
X150245841Y-87071216D01*
X161011286Y-87071216D01*
X161011286Y-87240355D01*
X161021222Y-87303088D01*
X161037489Y-87405798D01*
X161037743Y-87407398D01*
X161090008Y-87568255D01*
X161160085Y-87705786D01*
X161166791Y-87718947D01*
X161266203Y-87855776D01*
X161385796Y-87975369D01*
X161522625Y-88074781D01*
X161588755Y-88108476D01*
X161673316Y-88151563D01*
X161673318Y-88151563D01*
X161673321Y-88151565D01*
X161834173Y-88203829D01*
X161936433Y-88220024D01*
X162001217Y-88230286D01*
X162001221Y-88230286D01*
X162170355Y-88230286D01*
X162229412Y-88220931D01*
X162337399Y-88203829D01*
X162498251Y-88151565D01*
X162648947Y-88074781D01*
X162785776Y-87975369D01*
X162905369Y-87855776D01*
X163004781Y-87718947D01*
X163081565Y-87568251D01*
X163133829Y-87407399D01*
X163150931Y-87299412D01*
X163160286Y-87240355D01*
X163160286Y-87071216D01*
X176251286Y-87071216D01*
X176251286Y-87240355D01*
X176261222Y-87303088D01*
X176277489Y-87405798D01*
X176277743Y-87407398D01*
X176330008Y-87568255D01*
X176400085Y-87705786D01*
X176406791Y-87718947D01*
X176506203Y-87855776D01*
X176625796Y-87975369D01*
X176762625Y-88074781D01*
X176828755Y-88108476D01*
X176913316Y-88151563D01*
X176913318Y-88151563D01*
X176913321Y-88151565D01*
X177074173Y-88203829D01*
X177176433Y-88220024D01*
X177241217Y-88230286D01*
X177241221Y-88230286D01*
X177410355Y-88230286D01*
X177469412Y-88220931D01*
X177577399Y-88203829D01*
X177738251Y-88151565D01*
X177888947Y-88074781D01*
X178025776Y-87975369D01*
X178145369Y-87855776D01*
X178244781Y-87718947D01*
X178321565Y-87568251D01*
X178373829Y-87407399D01*
X178390931Y-87299412D01*
X178400286Y-87240355D01*
X178400286Y-87071216D01*
X178387406Y-86989897D01*
X178373829Y-86904173D01*
X178321565Y-86743321D01*
X178321563Y-86743318D01*
X178321563Y-86743316D01*
X178244780Y-86592624D01*
X178145369Y-86455796D01*
X178025776Y-86336203D01*
X177888947Y-86236791D01*
X177738255Y-86160008D01*
X177661076Y-86134931D01*
X177577399Y-86107743D01*
X177543989Y-86102451D01*
X177410355Y-86081286D01*
X177410351Y-86081286D01*
X177241221Y-86081286D01*
X177241217Y-86081286D01*
X177074173Y-86107743D01*
X176913316Y-86160008D01*
X176762624Y-86236791D01*
X176684558Y-86293509D01*
X176625796Y-86336203D01*
X176625794Y-86336205D01*
X176625793Y-86336205D01*
X176506205Y-86455793D01*
X176506205Y-86455794D01*
X176506203Y-86455796D01*
X176463509Y-86514558D01*
X176406791Y-86592624D01*
X176330008Y-86743316D01*
X176277743Y-86904173D01*
X176251286Y-87071216D01*
X163160286Y-87071216D01*
X163147406Y-86989897D01*
X163133829Y-86904173D01*
X163081565Y-86743321D01*
X163081563Y-86743318D01*
X163081563Y-86743316D01*
X163004780Y-86592624D01*
X162905369Y-86455796D01*
X162785776Y-86336203D01*
X162648947Y-86236791D01*
X162498255Y-86160008D01*
X162421076Y-86134931D01*
X162337399Y-86107743D01*
X162303989Y-86102451D01*
X162170355Y-86081286D01*
X162170351Y-86081286D01*
X162001221Y-86081286D01*
X162001217Y-86081286D01*
X161834173Y-86107743D01*
X161673316Y-86160008D01*
X161522624Y-86236791D01*
X161444558Y-86293509D01*
X161385796Y-86336203D01*
X161385794Y-86336205D01*
X161385793Y-86336205D01*
X161266205Y-86455793D01*
X161266205Y-86455794D01*
X161266203Y-86455796D01*
X161223509Y-86514558D01*
X161166791Y-86592624D01*
X161090008Y-86743316D01*
X161037743Y-86904173D01*
X161011286Y-87071216D01*
X150245841Y-87071216D01*
X150257079Y-87066561D01*
X150371810Y-86989900D01*
X150469382Y-86892328D01*
X150546043Y-86777597D01*
X150598848Y-86650114D01*
X150625768Y-86514779D01*
X150625768Y-86376793D01*
X150625768Y-86376790D01*
X150598849Y-86241463D01*
X150598848Y-86241462D01*
X150598848Y-86241458D01*
X150596915Y-86236791D01*
X150546046Y-86113981D01*
X150546039Y-86113968D01*
X150496250Y-86039454D01*
X150475372Y-85972777D01*
X150493856Y-85905396D01*
X150511667Y-85882885D01*
X150624732Y-85769821D01*
X150723281Y-85622333D01*
X150791162Y-85458452D01*
X150825768Y-85284477D01*
X150825768Y-85107095D01*
X150825768Y-85107092D01*
X150825767Y-85107090D01*
X150791164Y-84933127D01*
X150791161Y-84933118D01*
X150723284Y-84769245D01*
X150723282Y-84769241D01*
X150723281Y-84769239D01*
X150640051Y-84644677D01*
X150634077Y-84625599D01*
X150623571Y-84608591D01*
X150623850Y-84592938D01*
X150619173Y-84578000D01*
X150624461Y-84558722D01*
X150624818Y-84538733D01*
X150636834Y-84513616D01*
X150637657Y-84510620D01*
X150640051Y-84506895D01*
X150660986Y-84475564D01*
X156185286Y-84475564D01*
X156185286Y-84696008D01*
X156196884Y-84769232D01*
X156219771Y-84913738D01*
X156287889Y-85123389D01*
X156287890Y-85123392D01*
X156355908Y-85256882D01*
X156385917Y-85315777D01*
X156387973Y-85319811D01*
X156517538Y-85498144D01*
X156517542Y-85498149D01*
X156673422Y-85654029D01*
X156673427Y-85654033D01*
X156723326Y-85690286D01*
X156851764Y-85783601D01*
X156980161Y-85849023D01*
X157048179Y-85883681D01*
X157048182Y-85883682D01*
X157083786Y-85895250D01*
X157257835Y-85951801D01*
X157475564Y-85986286D01*
X157475565Y-85986286D01*
X157696007Y-85986286D01*
X157696008Y-85986286D01*
X157913737Y-85951801D01*
X158123392Y-85883681D01*
X158319808Y-85783601D01*
X158498151Y-85654028D01*
X158654028Y-85498151D01*
X158783601Y-85319808D01*
X158883681Y-85123392D01*
X158951801Y-84913737D01*
X158986286Y-84696008D01*
X158986286Y-84531216D01*
X161011286Y-84531216D01*
X161011286Y-84700355D01*
X161022196Y-84769239D01*
X161037743Y-84867399D01*
X161059096Y-84933118D01*
X161090008Y-85028255D01*
X161138484Y-85123392D01*
X161166791Y-85178947D01*
X161266203Y-85315776D01*
X161385796Y-85435369D01*
X161522625Y-85534781D01*
X161593820Y-85571057D01*
X161673316Y-85611563D01*
X161673318Y-85611563D01*
X161673321Y-85611565D01*
X161834173Y-85663829D01*
X161936433Y-85680024D01*
X162001217Y-85690286D01*
X162001221Y-85690286D01*
X162170355Y-85690286D01*
X162229412Y-85680931D01*
X162337399Y-85663829D01*
X162498251Y-85611565D01*
X162648947Y-85534781D01*
X162785776Y-85435369D01*
X162905369Y-85315776D01*
X163004781Y-85178947D01*
X163081565Y-85028251D01*
X163133829Y-84867399D01*
X163150931Y-84759412D01*
X163160286Y-84700355D01*
X163160286Y-84531216D01*
X176251286Y-84531216D01*
X176251286Y-84700355D01*
X176262196Y-84769239D01*
X176277743Y-84867399D01*
X176299096Y-84933118D01*
X176330008Y-85028255D01*
X176378484Y-85123392D01*
X176406791Y-85178947D01*
X176506203Y-85315776D01*
X176625796Y-85435369D01*
X176762625Y-85534781D01*
X176833820Y-85571057D01*
X176913316Y-85611563D01*
X176913318Y-85611563D01*
X176913321Y-85611565D01*
X177074173Y-85663829D01*
X177176433Y-85680024D01*
X177241217Y-85690286D01*
X177241221Y-85690286D01*
X177410355Y-85690286D01*
X177469412Y-85680931D01*
X177577399Y-85663829D01*
X177738251Y-85611565D01*
X177888947Y-85534781D01*
X178025776Y-85435369D01*
X178145369Y-85315776D01*
X178244781Y-85178947D01*
X178321565Y-85028251D01*
X178373829Y-84867399D01*
X178390931Y-84759412D01*
X178400286Y-84700355D01*
X178400286Y-84531216D01*
X178388593Y-84457394D01*
X178373829Y-84364173D01*
X178321565Y-84203321D01*
X178321563Y-84203318D01*
X178321563Y-84203316D01*
X178244780Y-84052624D01*
X178241553Y-84048182D01*
X178145369Y-83915796D01*
X178025776Y-83796203D01*
X177888947Y-83696791D01*
X177881738Y-83693118D01*
X177738255Y-83620008D01*
X177661076Y-83594931D01*
X177577399Y-83567743D01*
X177543989Y-83562451D01*
X177410355Y-83541286D01*
X177410351Y-83541286D01*
X177241221Y-83541286D01*
X177241217Y-83541286D01*
X177074173Y-83567743D01*
X176913316Y-83620008D01*
X176762624Y-83696791D01*
X176684558Y-83753509D01*
X176625796Y-83796203D01*
X176625794Y-83796205D01*
X176625793Y-83796205D01*
X176506205Y-83915793D01*
X176506205Y-83915794D01*
X176506203Y-83915796D01*
X176463509Y-83974558D01*
X176406791Y-84052624D01*
X176330008Y-84203316D01*
X176277743Y-84364173D01*
X176251286Y-84531216D01*
X163160286Y-84531216D01*
X163148593Y-84457394D01*
X163133829Y-84364173D01*
X163081565Y-84203321D01*
X163081563Y-84203318D01*
X163081563Y-84203316D01*
X163004780Y-84052624D01*
X163001553Y-84048182D01*
X162905369Y-83915796D01*
X162785776Y-83796203D01*
X162648947Y-83696791D01*
X162641738Y-83693118D01*
X162498255Y-83620008D01*
X162421076Y-83594931D01*
X162337399Y-83567743D01*
X162303989Y-83562451D01*
X162170355Y-83541286D01*
X162170351Y-83541286D01*
X162001221Y-83541286D01*
X162001217Y-83541286D01*
X161834173Y-83567743D01*
X161673316Y-83620008D01*
X161522624Y-83696791D01*
X161444558Y-83753509D01*
X161385796Y-83796203D01*
X161385794Y-83796205D01*
X161385793Y-83796205D01*
X161266205Y-83915793D01*
X161266205Y-83915794D01*
X161266203Y-83915796D01*
X161223509Y-83974558D01*
X161166791Y-84052624D01*
X161090008Y-84203316D01*
X161037743Y-84364173D01*
X161011286Y-84531216D01*
X158986286Y-84531216D01*
X158986286Y-84475564D01*
X158951801Y-84257835D01*
X158917741Y-84153007D01*
X158883682Y-84048182D01*
X158883681Y-84048179D01*
X158816226Y-83915794D01*
X158783601Y-83851764D01*
X158743234Y-83796203D01*
X158654033Y-83673427D01*
X158654029Y-83673422D01*
X158498149Y-83517542D01*
X158498144Y-83517538D01*
X158319811Y-83387973D01*
X158319810Y-83387972D01*
X158319808Y-83387971D01*
X158256882Y-83355908D01*
X158123392Y-83287890D01*
X158123389Y-83287889D01*
X157913738Y-83219771D01*
X157804872Y-83202528D01*
X157696008Y-83185286D01*
X157475564Y-83185286D01*
X157402987Y-83196781D01*
X157257833Y-83219771D01*
X157048182Y-83287889D01*
X157048179Y-83287890D01*
X156851760Y-83387973D01*
X156673427Y-83517538D01*
X156673422Y-83517542D01*
X156517542Y-83673422D01*
X156517538Y-83673427D01*
X156387973Y-83851760D01*
X156287890Y-84048179D01*
X156287889Y-84048182D01*
X156219771Y-84257833D01*
X156200053Y-84382326D01*
X156185286Y-84475564D01*
X150660986Y-84475564D01*
X150710273Y-84401801D01*
X150710273Y-84401800D01*
X150723276Y-84382340D01*
X150723277Y-84382339D01*
X150723281Y-84382333D01*
X150791162Y-84218452D01*
X150825768Y-84044477D01*
X150825768Y-83867095D01*
X150825768Y-83867092D01*
X150825767Y-83867090D01*
X150791164Y-83693127D01*
X150791161Y-83693118D01*
X150723284Y-83529245D01*
X150723282Y-83529241D01*
X150723281Y-83529239D01*
X150636710Y-83399677D01*
X150615832Y-83333000D01*
X150634316Y-83265620D01*
X150636710Y-83261895D01*
X150664856Y-83219771D01*
X150723281Y-83132333D01*
X150791162Y-82968452D01*
X150825768Y-82794477D01*
X150825768Y-82617095D01*
X150825768Y-82617092D01*
X150825767Y-82617090D01*
X150791164Y-82443127D01*
X150791161Y-82443118D01*
X150723284Y-82279245D01*
X150723282Y-82279241D01*
X150723281Y-82279239D01*
X150633369Y-82144677D01*
X150612491Y-82078000D01*
X150630975Y-82010620D01*
X150633369Y-82006895D01*
X150643845Y-81991216D01*
X161011286Y-81991216D01*
X161011286Y-82160355D01*
X161037743Y-82327398D01*
X161090008Y-82488255D01*
X161155654Y-82617090D01*
X161166791Y-82638947D01*
X161266203Y-82775776D01*
X161385796Y-82895369D01*
X161522625Y-82994781D01*
X161593820Y-83031057D01*
X161673316Y-83071563D01*
X161673318Y-83071563D01*
X161673321Y-83071565D01*
X161834173Y-83123829D01*
X161936433Y-83140024D01*
X162001217Y-83150286D01*
X162001221Y-83150286D01*
X162170355Y-83150286D01*
X162229412Y-83140931D01*
X162337399Y-83123829D01*
X162498251Y-83071565D01*
X162648947Y-82994781D01*
X162785776Y-82895369D01*
X162905369Y-82775776D01*
X163004781Y-82638947D01*
X163081565Y-82488251D01*
X163133829Y-82327399D01*
X163150931Y-82219412D01*
X163160286Y-82160355D01*
X163160286Y-81991216D01*
X176251286Y-81991216D01*
X176251286Y-82160355D01*
X176277743Y-82327398D01*
X176330008Y-82488255D01*
X176395654Y-82617090D01*
X176406791Y-82638947D01*
X176506203Y-82775776D01*
X176625796Y-82895369D01*
X176762625Y-82994781D01*
X176833820Y-83031057D01*
X176913316Y-83071563D01*
X176913318Y-83071563D01*
X176913321Y-83071565D01*
X177074173Y-83123829D01*
X177176433Y-83140024D01*
X177241217Y-83150286D01*
X177241221Y-83150286D01*
X177410355Y-83150286D01*
X177469412Y-83140931D01*
X177577399Y-83123829D01*
X177738251Y-83071565D01*
X177888947Y-82994781D01*
X178025776Y-82895369D01*
X178145369Y-82775776D01*
X178244781Y-82638947D01*
X178321565Y-82488251D01*
X178373829Y-82327399D01*
X178390931Y-82219412D01*
X178400286Y-82160355D01*
X178400286Y-81991216D01*
X178383254Y-81883682D01*
X178373829Y-81824173D01*
X178321565Y-81663321D01*
X178321563Y-81663318D01*
X178321563Y-81663316D01*
X178244780Y-81512624D01*
X178234265Y-81498151D01*
X178145369Y-81375796D01*
X178025776Y-81256203D01*
X177888947Y-81156791D01*
X177738255Y-81080008D01*
X177661076Y-81054931D01*
X177577399Y-81027743D01*
X177543989Y-81022451D01*
X177410355Y-81001286D01*
X177410351Y-81001286D01*
X177241221Y-81001286D01*
X177241217Y-81001286D01*
X177074173Y-81027743D01*
X176913316Y-81080008D01*
X176762624Y-81156791D01*
X176684558Y-81213509D01*
X176625796Y-81256203D01*
X176625794Y-81256205D01*
X176625793Y-81256205D01*
X176506205Y-81375793D01*
X176506205Y-81375794D01*
X176506203Y-81375796D01*
X176463509Y-81434558D01*
X176406791Y-81512624D01*
X176330008Y-81663316D01*
X176277743Y-81824173D01*
X176251286Y-81991216D01*
X163160286Y-81991216D01*
X163143254Y-81883682D01*
X163133829Y-81824173D01*
X163081565Y-81663321D01*
X163081563Y-81663318D01*
X163081563Y-81663316D01*
X163004780Y-81512624D01*
X162994265Y-81498151D01*
X162905369Y-81375796D01*
X162785776Y-81256203D01*
X162648947Y-81156791D01*
X162498255Y-81080008D01*
X162421076Y-81054931D01*
X162337399Y-81027743D01*
X162303989Y-81022451D01*
X162170355Y-81001286D01*
X162170351Y-81001286D01*
X162001221Y-81001286D01*
X162001217Y-81001286D01*
X161834173Y-81027743D01*
X161673316Y-81080008D01*
X161522624Y-81156791D01*
X161444558Y-81213509D01*
X161385796Y-81256203D01*
X161385794Y-81256205D01*
X161385793Y-81256205D01*
X161266205Y-81375793D01*
X161266205Y-81375794D01*
X161266203Y-81375796D01*
X161223509Y-81434558D01*
X161166791Y-81512624D01*
X161090008Y-81663316D01*
X161037743Y-81824173D01*
X161011286Y-81991216D01*
X150643845Y-81991216D01*
X150723281Y-81872333D01*
X150791162Y-81708452D01*
X150801988Y-81654029D01*
X150825767Y-81534481D01*
X150825768Y-81534479D01*
X150825768Y-81357092D01*
X150825767Y-81357090D01*
X150791164Y-81183127D01*
X150791161Y-81183118D01*
X150723284Y-81019245D01*
X150723282Y-81019241D01*
X150723281Y-81019239D01*
X150636710Y-80889677D01*
X150615832Y-80823000D01*
X150634316Y-80755620D01*
X150636710Y-80751895D01*
X150652620Y-80728082D01*
X150723281Y-80622333D01*
X150784074Y-80475564D01*
X156185286Y-80475564D01*
X156185286Y-80696007D01*
X156219771Y-80913738D01*
X156287889Y-81123389D01*
X156287890Y-81123392D01*
X156387973Y-81319811D01*
X156517538Y-81498144D01*
X156517542Y-81498149D01*
X156673422Y-81654029D01*
X156673427Y-81654033D01*
X156748331Y-81708453D01*
X156851764Y-81783601D01*
X156980161Y-81849023D01*
X157048179Y-81883681D01*
X157048182Y-81883682D01*
X157153007Y-81917741D01*
X157257835Y-81951801D01*
X157475564Y-81986286D01*
X157475565Y-81986286D01*
X157696007Y-81986286D01*
X157696008Y-81986286D01*
X157913737Y-81951801D01*
X158123392Y-81883681D01*
X158138734Y-81875864D01*
X158138737Y-81875863D01*
X158319806Y-81783602D01*
X158319805Y-81783602D01*
X158319808Y-81783601D01*
X158498151Y-81654028D01*
X158654028Y-81498151D01*
X158783601Y-81319808D01*
X158883681Y-81123392D01*
X158951801Y-80913737D01*
X158986286Y-80696008D01*
X158986286Y-80475564D01*
X158951801Y-80257835D01*
X158917741Y-80153007D01*
X158883682Y-80048182D01*
X158883681Y-80048179D01*
X158825053Y-79933118D01*
X158783601Y-79851764D01*
X158767046Y-79828978D01*
X158654033Y-79673427D01*
X158654029Y-79673422D01*
X158498149Y-79517542D01*
X158498144Y-79517538D01*
X158406859Y-79451216D01*
X161011286Y-79451216D01*
X161011286Y-79620355D01*
X161019691Y-79673421D01*
X161037743Y-79787399D01*
X161064931Y-79871076D01*
X161090008Y-79948255D01*
X161166791Y-80098947D01*
X161266203Y-80235776D01*
X161385796Y-80355369D01*
X161522625Y-80454781D01*
X161563414Y-80475564D01*
X161673316Y-80531563D01*
X161673318Y-80531563D01*
X161673321Y-80531565D01*
X161834173Y-80583829D01*
X161936433Y-80600024D01*
X162001217Y-80610286D01*
X162001221Y-80610286D01*
X162170355Y-80610286D01*
X162229412Y-80600931D01*
X162337399Y-80583829D01*
X162498251Y-80531565D01*
X162648947Y-80454781D01*
X162785776Y-80355369D01*
X162905369Y-80235776D01*
X163004781Y-80098947D01*
X163081565Y-79948251D01*
X163133829Y-79787399D01*
X163151881Y-79673421D01*
X163160286Y-79620355D01*
X163160286Y-79451216D01*
X176251286Y-79451216D01*
X176251286Y-79620355D01*
X176259691Y-79673421D01*
X176277743Y-79787399D01*
X176304931Y-79871076D01*
X176330008Y-79948255D01*
X176406791Y-80098947D01*
X176506203Y-80235776D01*
X176625796Y-80355369D01*
X176762625Y-80454781D01*
X176803414Y-80475564D01*
X176913316Y-80531563D01*
X176913318Y-80531563D01*
X176913321Y-80531565D01*
X177074173Y-80583829D01*
X177176433Y-80600024D01*
X177241217Y-80610286D01*
X177241221Y-80610286D01*
X177410355Y-80610286D01*
X177469412Y-80600931D01*
X177577399Y-80583829D01*
X177738251Y-80531565D01*
X177888947Y-80454781D01*
X178025776Y-80355369D01*
X178145369Y-80235776D01*
X178244781Y-80098947D01*
X178321565Y-79948251D01*
X178373829Y-79787399D01*
X178391881Y-79673421D01*
X178400286Y-79620355D01*
X178400286Y-79451216D01*
X178388593Y-79377394D01*
X178373829Y-79284173D01*
X178321565Y-79123321D01*
X178321563Y-79123318D01*
X178321563Y-79123316D01*
X178244780Y-78972624D01*
X178145369Y-78835796D01*
X178025776Y-78716203D01*
X177888947Y-78616791D01*
X177738255Y-78540008D01*
X177661076Y-78514931D01*
X177577399Y-78487743D01*
X177543989Y-78482451D01*
X177410355Y-78461286D01*
X177410351Y-78461286D01*
X177241221Y-78461286D01*
X177241217Y-78461286D01*
X177074173Y-78487743D01*
X176913316Y-78540008D01*
X176762624Y-78616791D01*
X176684558Y-78673509D01*
X176625796Y-78716203D01*
X176625794Y-78716205D01*
X176625793Y-78716205D01*
X176506205Y-78835793D01*
X176506205Y-78835794D01*
X176506203Y-78835796D01*
X176463509Y-78894558D01*
X176406791Y-78972624D01*
X176330008Y-79123316D01*
X176277743Y-79284173D01*
X176251286Y-79451216D01*
X163160286Y-79451216D01*
X163148593Y-79377394D01*
X163133829Y-79284173D01*
X163081565Y-79123321D01*
X163081563Y-79123318D01*
X163081563Y-79123316D01*
X163004780Y-78972624D01*
X162905369Y-78835796D01*
X162785776Y-78716203D01*
X162648947Y-78616791D01*
X162498255Y-78540008D01*
X162421076Y-78514931D01*
X162337399Y-78487743D01*
X162303989Y-78482451D01*
X162170355Y-78461286D01*
X162170351Y-78461286D01*
X162001221Y-78461286D01*
X162001217Y-78461286D01*
X161834173Y-78487743D01*
X161673316Y-78540008D01*
X161522624Y-78616791D01*
X161444558Y-78673509D01*
X161385796Y-78716203D01*
X161385794Y-78716205D01*
X161385793Y-78716205D01*
X161266205Y-78835793D01*
X161266205Y-78835794D01*
X161266203Y-78835796D01*
X161223509Y-78894558D01*
X161166791Y-78972624D01*
X161090008Y-79123316D01*
X161037743Y-79284173D01*
X161011286Y-79451216D01*
X158406859Y-79451216D01*
X158319811Y-79387973D01*
X158319810Y-79387972D01*
X158319808Y-79387971D01*
X158205823Y-79329892D01*
X158123392Y-79287890D01*
X158123389Y-79287889D01*
X157913738Y-79219771D01*
X157804872Y-79202528D01*
X157696008Y-79185286D01*
X157475564Y-79185286D01*
X157402987Y-79196781D01*
X157257833Y-79219771D01*
X157048182Y-79287889D01*
X157048179Y-79287890D01*
X156851760Y-79387973D01*
X156673427Y-79517538D01*
X156673422Y-79517542D01*
X156517542Y-79673422D01*
X156517538Y-79673427D01*
X156387973Y-79851760D01*
X156287890Y-80048179D01*
X156287889Y-80048182D01*
X156219771Y-80257833D01*
X156185286Y-80475564D01*
X150784074Y-80475564D01*
X150791162Y-80458452D01*
X150825768Y-80284477D01*
X150825768Y-80107095D01*
X150825768Y-80107092D01*
X150825767Y-80107090D01*
X150791164Y-79933127D01*
X150791161Y-79933118D01*
X150723284Y-79769245D01*
X150723277Y-79769232D01*
X150624732Y-79621751D01*
X150624729Y-79621747D01*
X150499306Y-79496324D01*
X150499302Y-79496321D01*
X150351821Y-79397776D01*
X150351808Y-79397769D01*
X150187935Y-79329892D01*
X150187926Y-79329889D01*
X150013962Y-79295286D01*
X150013959Y-79295286D01*
X149836577Y-79295286D01*
X149836574Y-79295286D01*
X149662609Y-79329889D01*
X149662600Y-79329892D01*
X149498727Y-79397769D01*
X149498714Y-79397776D01*
X149351233Y-79496321D01*
X149351229Y-79496324D01*
X149225806Y-79621747D01*
X149225803Y-79621751D01*
X149127258Y-79769232D01*
X149127251Y-79769245D01*
X149059374Y-79933118D01*
X149059371Y-79933127D01*
X149024768Y-80107090D01*
X146086286Y-80107090D01*
X146086286Y-76911216D01*
X161011286Y-76911216D01*
X161011286Y-77080355D01*
X161037743Y-77247398D01*
X161090008Y-77408255D01*
X161166791Y-77558947D01*
X161266203Y-77695776D01*
X161385796Y-77815369D01*
X161522625Y-77914781D01*
X161593820Y-77951057D01*
X161673316Y-77991563D01*
X161673318Y-77991563D01*
X161673321Y-77991565D01*
X161834173Y-78043829D01*
X161936433Y-78060024D01*
X162001217Y-78070286D01*
X162001221Y-78070286D01*
X162170355Y-78070286D01*
X162229412Y-78060931D01*
X162337399Y-78043829D01*
X162498251Y-77991565D01*
X162648947Y-77914781D01*
X162785776Y-77815369D01*
X162905369Y-77695776D01*
X163004781Y-77558947D01*
X163081565Y-77408251D01*
X163133829Y-77247399D01*
X163150931Y-77139412D01*
X163160286Y-77080355D01*
X163160286Y-76911216D01*
X176251286Y-76911216D01*
X176251286Y-77080355D01*
X176277743Y-77247398D01*
X176330008Y-77408255D01*
X176406791Y-77558947D01*
X176506203Y-77695776D01*
X176625796Y-77815369D01*
X176762625Y-77914781D01*
X176833820Y-77951057D01*
X176913316Y-77991563D01*
X176913318Y-77991563D01*
X176913321Y-77991565D01*
X177074173Y-78043829D01*
X177176433Y-78060024D01*
X177241217Y-78070286D01*
X177241221Y-78070286D01*
X177410355Y-78070286D01*
X177469412Y-78060931D01*
X177577399Y-78043829D01*
X177738251Y-77991565D01*
X177888947Y-77914781D01*
X178025776Y-77815369D01*
X178145369Y-77695776D01*
X178244781Y-77558947D01*
X178321565Y-77408251D01*
X178373829Y-77247399D01*
X178390931Y-77139412D01*
X178400286Y-77080355D01*
X178400286Y-76911216D01*
X178388593Y-76837394D01*
X178373829Y-76744173D01*
X178321565Y-76583321D01*
X178321563Y-76583318D01*
X178321563Y-76583316D01*
X178244780Y-76432624D01*
X178145369Y-76295796D01*
X178025776Y-76176203D01*
X177888947Y-76076791D01*
X177738255Y-76000008D01*
X177661076Y-75974931D01*
X177577399Y-75947743D01*
X177543989Y-75942451D01*
X177410355Y-75921286D01*
X177410351Y-75921286D01*
X177241221Y-75921286D01*
X177241217Y-75921286D01*
X177074173Y-75947743D01*
X176913316Y-76000008D01*
X176762624Y-76076791D01*
X176684558Y-76133509D01*
X176625796Y-76176203D01*
X176625794Y-76176205D01*
X176625793Y-76176205D01*
X176506205Y-76295793D01*
X176506205Y-76295794D01*
X176506203Y-76295796D01*
X176463509Y-76354558D01*
X176406791Y-76432624D01*
X176330008Y-76583316D01*
X176277743Y-76744173D01*
X176251286Y-76911216D01*
X163160286Y-76911216D01*
X163148593Y-76837394D01*
X163133829Y-76744173D01*
X163081565Y-76583321D01*
X163081563Y-76583318D01*
X163081563Y-76583316D01*
X163004780Y-76432624D01*
X162905369Y-76295796D01*
X162785776Y-76176203D01*
X162648947Y-76076791D01*
X162498255Y-76000008D01*
X162421076Y-75974931D01*
X162337399Y-75947743D01*
X162303989Y-75942451D01*
X162170355Y-75921286D01*
X162170351Y-75921286D01*
X162001221Y-75921286D01*
X162001217Y-75921286D01*
X161834173Y-75947743D01*
X161673316Y-76000008D01*
X161522624Y-76076791D01*
X161444558Y-76133509D01*
X161385796Y-76176203D01*
X161385794Y-76176205D01*
X161385793Y-76176205D01*
X161266205Y-76295793D01*
X161266205Y-76295794D01*
X161266203Y-76295796D01*
X161223509Y-76354558D01*
X161166791Y-76432624D01*
X161090008Y-76583316D01*
X161037743Y-76744173D01*
X161011286Y-76911216D01*
X146086286Y-76911216D01*
X146086286Y-73089835D01*
X146086552Y-73081724D01*
X146096593Y-72928534D01*
X146102861Y-72832907D01*
X146104978Y-72816832D01*
X146152835Y-72576244D01*
X146157032Y-72560584D01*
X146157033Y-72560581D01*
X146235881Y-72328302D01*
X146242083Y-72313332D01*
X146350582Y-72093320D01*
X146358683Y-72079288D01*
X146494972Y-71875317D01*
X146504829Y-71862471D01*
X146666578Y-71678033D01*
X146678034Y-71666576D01*
X146862471Y-71504829D01*
X146875317Y-71494972D01*
X147079288Y-71358683D01*
X147093323Y-71350579D01*
X147313332Y-71242083D01*
X147328302Y-71235881D01*
X147560590Y-71157030D01*
X147576244Y-71152835D01*
X147816837Y-71104977D01*
X147832909Y-71102861D01*
X148081731Y-71086552D01*
X148089841Y-71086286D01*
X148151681Y-71086286D01*
X162211786Y-71086286D01*
X162278825Y-71105971D01*
G37*
%TD.AperFunction*%
%TD*%
M02*
