%TF.GenerationSoftware,KiCad,Pcbnew,9.0.7*%
%TF.CreationDate,2026-02-13T21:43:43+07:00*%
%TF.ProjectId,aqm_sensor,61716d5f-7365-46e7-936f-722e6b696361,rev?*%
%TF.SameCoordinates,Original*%
%TF.FileFunction,Drillmap*%
%TF.FilePolarity,Positive*%
%FSLAX45Y45*%
G04 Gerber Fmt 4.5, Leading zero omitted, Abs format (unit mm)*
G04 Created by KiCad (PCBNEW 9.0.7) date 2026-02-13 21:43:43*
%MOMM*%
%LPD*%
G01*
G04 APERTURE LIST*
%ADD10C,0.050000*%
%ADD11C,0.200000*%
%ADD12C,0.100000*%
%ADD13C,0.270000*%
G04 APERTURE END LIST*
D10*
X14558579Y-7258579D02*
G75*
G02*
X14758579Y-7058579I200001J-1D01*
G01*
X14558579Y-9858579D02*
X14558579Y-7258579D01*
X19058579Y-9858579D02*
G75*
G02*
X18858579Y-10058579I-199999J-1D01*
G01*
X18858579Y-7058579D02*
G75*
G02*
X19058581Y-7258579I1J-200001D01*
G01*
X14758579Y-10058579D02*
G75*
G02*
X14558581Y-9858579I1J199999D01*
G01*
X18858579Y-10058579D02*
X14758579Y-10058579D01*
X14758579Y-7058579D02*
X18858579Y-7058579D01*
X19058579Y-7258579D02*
X19058579Y-9858579D01*
D11*
D12*
X14683579Y-8533579D02*
X14733579Y-8583579D01*
X14733579Y-8533579D02*
X14683579Y-8583579D01*
X14683579Y-8733579D02*
X14733579Y-8783579D01*
X14733579Y-8733579D02*
X14683579Y-8783579D01*
X14731079Y-9631079D02*
X14781079Y-9681079D01*
X14781079Y-9631079D02*
X14731079Y-9681079D01*
X14733579Y-7433579D02*
X14783579Y-7483579D01*
X14783579Y-7433579D02*
X14733579Y-7483579D01*
X14790389Y-9487890D02*
X14840389Y-9537890D01*
X14840389Y-9487890D02*
X14790389Y-9537890D01*
X14790389Y-9774268D02*
X14840389Y-9824268D01*
X14840389Y-9774268D02*
X14790389Y-9824268D01*
X14792889Y-7290389D02*
X14842889Y-7340389D01*
X14842889Y-7290389D02*
X14792889Y-7340389D01*
X14792889Y-7576768D02*
X14842889Y-7626768D01*
X14842889Y-7576768D02*
X14792889Y-7626768D01*
X14933579Y-9428579D02*
X14983579Y-9478579D01*
X14983579Y-9428579D02*
X14933579Y-9478579D01*
X14933579Y-9833579D02*
X14983579Y-9883579D01*
X14983579Y-9833579D02*
X14933579Y-9883579D01*
X14936079Y-7231079D02*
X14986079Y-7281079D01*
X14986079Y-7231079D02*
X14936079Y-7281079D01*
X14936079Y-7636079D02*
X14986079Y-7686079D01*
X14986079Y-7636079D02*
X14936079Y-7686079D01*
X15076768Y-9487890D02*
X15126768Y-9537890D01*
X15126768Y-9487890D02*
X15076768Y-9537890D01*
X15076768Y-9774268D02*
X15126768Y-9824268D01*
X15126768Y-9774268D02*
X15076768Y-9824268D01*
X15079268Y-7290389D02*
X15129268Y-7340389D01*
X15129268Y-7290389D02*
X15079268Y-7340389D01*
X15079268Y-7576768D02*
X15129268Y-7626768D01*
X15129268Y-7576768D02*
X15079268Y-7626768D01*
X15136079Y-9631079D02*
X15186079Y-9681079D01*
X15186079Y-9631079D02*
X15136079Y-9681079D01*
X15138579Y-7433579D02*
X15188579Y-7483579D01*
X15188579Y-7433579D02*
X15138579Y-7483579D01*
X18433579Y-7433579D02*
X18483579Y-7483579D01*
X18483579Y-7433579D02*
X18433579Y-7483579D01*
X18433579Y-9631079D02*
X18483579Y-9681079D01*
X18483579Y-9631079D02*
X18433579Y-9681079D01*
X18492890Y-7290389D02*
X18542890Y-7340389D01*
X18542890Y-7290389D02*
X18492890Y-7340389D01*
X18492890Y-7576768D02*
X18542890Y-7626768D01*
X18542890Y-7576768D02*
X18492890Y-7626768D01*
X18492890Y-9487890D02*
X18542890Y-9537890D01*
X18542890Y-9487890D02*
X18492890Y-9537890D01*
X18492890Y-9774268D02*
X18542890Y-9824268D01*
X18542890Y-9774268D02*
X18492890Y-9824268D01*
X18636079Y-7231079D02*
X18686079Y-7281079D01*
X18686079Y-7231079D02*
X18636079Y-7281079D01*
X18636079Y-7636079D02*
X18686079Y-7686079D01*
X18686079Y-7636079D02*
X18636079Y-7686079D01*
X18636079Y-9428579D02*
X18686079Y-9478579D01*
X18686079Y-9428579D02*
X18636079Y-9478579D01*
X18636079Y-9833579D02*
X18686079Y-9883579D01*
X18686079Y-9833579D02*
X18636079Y-9883579D01*
X18779268Y-7290389D02*
X18829268Y-7340389D01*
X18829268Y-7290389D02*
X18779268Y-7340389D01*
X18779268Y-7576768D02*
X18829268Y-7626768D01*
X18829268Y-7576768D02*
X18779268Y-7626768D01*
X18779268Y-9487890D02*
X18829268Y-9537890D01*
X18829268Y-9487890D02*
X18779268Y-9537890D01*
X18779268Y-9774268D02*
X18829268Y-9824268D01*
X18829268Y-9774268D02*
X18779268Y-9824268D01*
X18838579Y-7433579D02*
X18888579Y-7483579D01*
X18888579Y-7433579D02*
X18838579Y-7483579D01*
X18838579Y-9631079D02*
X18888579Y-9681079D01*
X18888579Y-9631079D02*
X18838579Y-9681079D01*
X18613579Y-8058579D02*
G75*
G02*
X18553579Y-8058579I-30000J0D01*
G01*
X18553579Y-8058579D02*
G75*
G02*
X18613579Y-8058579I30000J0D01*
G01*
X18613579Y-8183579D02*
G75*
G02*
X18553579Y-8183579I-30000J0D01*
G01*
X18553579Y-8183579D02*
G75*
G02*
X18613579Y-8183579I30000J0D01*
G01*
X18613579Y-8309579D02*
G75*
G02*
X18553579Y-8309579I-30000J0D01*
G01*
X18553579Y-8309579D02*
G75*
G02*
X18613579Y-8309579I30000J0D01*
G01*
X18613579Y-8434579D02*
G75*
G02*
X18553579Y-8434579I-30000J0D01*
G01*
X18553579Y-8434579D02*
G75*
G02*
X18613579Y-8434579I30000J0D01*
G01*
X18613579Y-8558579D02*
G75*
G02*
X18553579Y-8558579I-30000J0D01*
G01*
X18553579Y-8558579D02*
G75*
G02*
X18613579Y-8558579I30000J0D01*
G01*
X18613579Y-8683579D02*
G75*
G02*
X18553579Y-8683579I-30000J0D01*
G01*
X18553579Y-8683579D02*
G75*
G02*
X18613579Y-8683579I30000J0D01*
G01*
X18613579Y-8809579D02*
G75*
G02*
X18553579Y-8809579I-30000J0D01*
G01*
X18553579Y-8809579D02*
G75*
G02*
X18613579Y-8809579I30000J0D01*
G01*
X18613579Y-8934579D02*
G75*
G02*
X18553579Y-8934579I-30000J0D01*
G01*
X18553579Y-8934579D02*
G75*
G02*
X18613579Y-8934579I30000J0D01*
G01*
X18183579Y-8828579D02*
X18183579Y-8888579D01*
X18153579Y-8858579D02*
X18213579Y-8858579D01*
X15552027Y-7472277D02*
X15552027Y-7412880D01*
X15492630Y-7412880D01*
X15492630Y-7472277D01*
X15552027Y-7472277D01*
X15552027Y-7726277D02*
X15552027Y-7666880D01*
X15492630Y-7666880D01*
X15492630Y-7726277D01*
X15552027Y-7726277D01*
X15552027Y-7980277D02*
X15552027Y-7920880D01*
X15492630Y-7920880D01*
X15492630Y-7980277D01*
X15552027Y-7980277D01*
X15552027Y-8234277D02*
X15552027Y-8174880D01*
X15492630Y-8174880D01*
X15492630Y-8234277D01*
X15552027Y-8234277D01*
X15552027Y-8488277D02*
X15552027Y-8428880D01*
X15492630Y-8428880D01*
X15492630Y-8488277D01*
X15552027Y-8488277D01*
X15552027Y-8742277D02*
X15552027Y-8682880D01*
X15492630Y-8682880D01*
X15492630Y-8742277D01*
X15552027Y-8742277D01*
X15552027Y-8996277D02*
X15552027Y-8936880D01*
X15492630Y-8936880D01*
X15492630Y-8996277D01*
X15552027Y-8996277D01*
X15552027Y-9250277D02*
X15552027Y-9190880D01*
X15492630Y-9190880D01*
X15492630Y-9250277D01*
X15552027Y-9250277D01*
X17076027Y-7472277D02*
X17076027Y-7412880D01*
X17016630Y-7412880D01*
X17016630Y-7472277D01*
X17076027Y-7472277D01*
X17076027Y-7726277D02*
X17076027Y-7666880D01*
X17016630Y-7666880D01*
X17016630Y-7726277D01*
X17076027Y-7726277D01*
X17076027Y-7980277D02*
X17076027Y-7920880D01*
X17016630Y-7920880D01*
X17016630Y-7980277D01*
X17076027Y-7980277D01*
X17076027Y-8234277D02*
X17076027Y-8174880D01*
X17016630Y-8174880D01*
X17016630Y-8234277D01*
X17076027Y-8234277D01*
X17076027Y-8488277D02*
X17076027Y-8428880D01*
X17016630Y-8428880D01*
X17016630Y-8488277D01*
X17076027Y-8488277D01*
X17076027Y-8742277D02*
X17076027Y-8682880D01*
X17016630Y-8682880D01*
X17016630Y-8742277D01*
X17076027Y-8742277D01*
X17076027Y-8996277D02*
X17076027Y-8936880D01*
X17016630Y-8936880D01*
X17016630Y-8996277D01*
X17076027Y-8996277D01*
X17076027Y-9250277D02*
X17076027Y-9190880D01*
X17016630Y-9190880D01*
X17016630Y-9250277D01*
X17076027Y-9250277D01*
D13*
X14958579Y-9791079D02*
X15093579Y-9656079D01*
X14958579Y-9521079D01*
X14823579Y-9656079D01*
X14958579Y-9791079D01*
X14961079Y-7593579D02*
X15096079Y-7458579D01*
X14961079Y-7323579D01*
X14826079Y-7458579D01*
X14961079Y-7593579D01*
X18661079Y-7593579D02*
X18796079Y-7458579D01*
X18661079Y-7323579D01*
X18526079Y-7458579D01*
X18661079Y-7593579D01*
X18661079Y-9791079D02*
X18796079Y-9656079D01*
X18661079Y-9521079D01*
X18526079Y-9656079D01*
X18661079Y-9791079D01*
D11*
X14816855Y-10372562D02*
X14816855Y-10172562D01*
X14816855Y-10172562D02*
X14864474Y-10172562D01*
X14864474Y-10172562D02*
X14893046Y-10182086D01*
X14893046Y-10182086D02*
X14912093Y-10201134D01*
X14912093Y-10201134D02*
X14921617Y-10220181D01*
X14921617Y-10220181D02*
X14931141Y-10258277D01*
X14931141Y-10258277D02*
X14931141Y-10286848D01*
X14931141Y-10286848D02*
X14921617Y-10324943D01*
X14921617Y-10324943D02*
X14912093Y-10343991D01*
X14912093Y-10343991D02*
X14893046Y-10363039D01*
X14893046Y-10363039D02*
X14864474Y-10372562D01*
X14864474Y-10372562D02*
X14816855Y-10372562D01*
X15016855Y-10372562D02*
X15016855Y-10239229D01*
X15016855Y-10277324D02*
X15026379Y-10258277D01*
X15026379Y-10258277D02*
X15035903Y-10248753D01*
X15035903Y-10248753D02*
X15054951Y-10239229D01*
X15054951Y-10239229D02*
X15073998Y-10239229D01*
X15140665Y-10372562D02*
X15140665Y-10239229D01*
X15140665Y-10172562D02*
X15131141Y-10182086D01*
X15131141Y-10182086D02*
X15140665Y-10191610D01*
X15140665Y-10191610D02*
X15150189Y-10182086D01*
X15150189Y-10182086D02*
X15140665Y-10172562D01*
X15140665Y-10172562D02*
X15140665Y-10191610D01*
X15264474Y-10372562D02*
X15245427Y-10363039D01*
X15245427Y-10363039D02*
X15235903Y-10343991D01*
X15235903Y-10343991D02*
X15235903Y-10172562D01*
X15369236Y-10372562D02*
X15350189Y-10363039D01*
X15350189Y-10363039D02*
X15340665Y-10343991D01*
X15340665Y-10343991D02*
X15340665Y-10172562D01*
X15597808Y-10372562D02*
X15597808Y-10172562D01*
X15597808Y-10172562D02*
X15664474Y-10315420D01*
X15664474Y-10315420D02*
X15731141Y-10172562D01*
X15731141Y-10172562D02*
X15731141Y-10372562D01*
X15912093Y-10372562D02*
X15912093Y-10267801D01*
X15912093Y-10267801D02*
X15902570Y-10248753D01*
X15902570Y-10248753D02*
X15883522Y-10239229D01*
X15883522Y-10239229D02*
X15845427Y-10239229D01*
X15845427Y-10239229D02*
X15826379Y-10248753D01*
X15912093Y-10363039D02*
X15893046Y-10372562D01*
X15893046Y-10372562D02*
X15845427Y-10372562D01*
X15845427Y-10372562D02*
X15826379Y-10363039D01*
X15826379Y-10363039D02*
X15816855Y-10343991D01*
X15816855Y-10343991D02*
X15816855Y-10324943D01*
X15816855Y-10324943D02*
X15826379Y-10305896D01*
X15826379Y-10305896D02*
X15845427Y-10296372D01*
X15845427Y-10296372D02*
X15893046Y-10296372D01*
X15893046Y-10296372D02*
X15912093Y-10286848D01*
X16007332Y-10239229D02*
X16007332Y-10439229D01*
X16007332Y-10248753D02*
X16026379Y-10239229D01*
X16026379Y-10239229D02*
X16064474Y-10239229D01*
X16064474Y-10239229D02*
X16083522Y-10248753D01*
X16083522Y-10248753D02*
X16093046Y-10258277D01*
X16093046Y-10258277D02*
X16102570Y-10277324D01*
X16102570Y-10277324D02*
X16102570Y-10334467D01*
X16102570Y-10334467D02*
X16093046Y-10353515D01*
X16093046Y-10353515D02*
X16083522Y-10363039D01*
X16083522Y-10363039D02*
X16064474Y-10372562D01*
X16064474Y-10372562D02*
X16026379Y-10372562D01*
X16026379Y-10372562D02*
X16007332Y-10363039D01*
X16188284Y-10353515D02*
X16197808Y-10363039D01*
X16197808Y-10363039D02*
X16188284Y-10372562D01*
X16188284Y-10372562D02*
X16178760Y-10363039D01*
X16178760Y-10363039D02*
X16188284Y-10353515D01*
X16188284Y-10353515D02*
X16188284Y-10372562D01*
X16188284Y-10248753D02*
X16197808Y-10258277D01*
X16197808Y-10258277D02*
X16188284Y-10267801D01*
X16188284Y-10267801D02*
X16178760Y-10258277D01*
X16178760Y-10258277D02*
X16188284Y-10248753D01*
X16188284Y-10248753D02*
X16188284Y-10267801D01*
D12*
X14506079Y-10676079D02*
X14556079Y-10726079D01*
X14556079Y-10676079D02*
X14506079Y-10726079D01*
D11*
X14854951Y-10592562D02*
X14873998Y-10592562D01*
X14873998Y-10592562D02*
X14893046Y-10602086D01*
X14893046Y-10602086D02*
X14902570Y-10611610D01*
X14902570Y-10611610D02*
X14912093Y-10630658D01*
X14912093Y-10630658D02*
X14921617Y-10668753D01*
X14921617Y-10668753D02*
X14921617Y-10716372D01*
X14921617Y-10716372D02*
X14912093Y-10754467D01*
X14912093Y-10754467D02*
X14902570Y-10773515D01*
X14902570Y-10773515D02*
X14893046Y-10783039D01*
X14893046Y-10783039D02*
X14873998Y-10792562D01*
X14873998Y-10792562D02*
X14854951Y-10792562D01*
X14854951Y-10792562D02*
X14835903Y-10783039D01*
X14835903Y-10783039D02*
X14826379Y-10773515D01*
X14826379Y-10773515D02*
X14816855Y-10754467D01*
X14816855Y-10754467D02*
X14807332Y-10716372D01*
X14807332Y-10716372D02*
X14807332Y-10668753D01*
X14807332Y-10668753D02*
X14816855Y-10630658D01*
X14816855Y-10630658D02*
X14826379Y-10611610D01*
X14826379Y-10611610D02*
X14835903Y-10602086D01*
X14835903Y-10602086D02*
X14854951Y-10592562D01*
X15007332Y-10773515D02*
X15016855Y-10783039D01*
X15016855Y-10783039D02*
X15007332Y-10792562D01*
X15007332Y-10792562D02*
X14997808Y-10783039D01*
X14997808Y-10783039D02*
X15007332Y-10773515D01*
X15007332Y-10773515D02*
X15007332Y-10792562D01*
X15197808Y-10592562D02*
X15102570Y-10592562D01*
X15102570Y-10592562D02*
X15093046Y-10687801D01*
X15093046Y-10687801D02*
X15102570Y-10678277D01*
X15102570Y-10678277D02*
X15121617Y-10668753D01*
X15121617Y-10668753D02*
X15169236Y-10668753D01*
X15169236Y-10668753D02*
X15188284Y-10678277D01*
X15188284Y-10678277D02*
X15197808Y-10687801D01*
X15197808Y-10687801D02*
X15207332Y-10706848D01*
X15207332Y-10706848D02*
X15207332Y-10754467D01*
X15207332Y-10754467D02*
X15197808Y-10773515D01*
X15197808Y-10773515D02*
X15188284Y-10783039D01*
X15188284Y-10783039D02*
X15169236Y-10792562D01*
X15169236Y-10792562D02*
X15121617Y-10792562D01*
X15121617Y-10792562D02*
X15102570Y-10783039D01*
X15102570Y-10783039D02*
X15093046Y-10773515D01*
X15331141Y-10592562D02*
X15350189Y-10592562D01*
X15350189Y-10592562D02*
X15369236Y-10602086D01*
X15369236Y-10602086D02*
X15378760Y-10611610D01*
X15378760Y-10611610D02*
X15388284Y-10630658D01*
X15388284Y-10630658D02*
X15397808Y-10668753D01*
X15397808Y-10668753D02*
X15397808Y-10716372D01*
X15397808Y-10716372D02*
X15388284Y-10754467D01*
X15388284Y-10754467D02*
X15378760Y-10773515D01*
X15378760Y-10773515D02*
X15369236Y-10783039D01*
X15369236Y-10783039D02*
X15350189Y-10792562D01*
X15350189Y-10792562D02*
X15331141Y-10792562D01*
X15331141Y-10792562D02*
X15312093Y-10783039D01*
X15312093Y-10783039D02*
X15302570Y-10773515D01*
X15302570Y-10773515D02*
X15293046Y-10754467D01*
X15293046Y-10754467D02*
X15283522Y-10716372D01*
X15283522Y-10716372D02*
X15283522Y-10668753D01*
X15283522Y-10668753D02*
X15293046Y-10630658D01*
X15293046Y-10630658D02*
X15302570Y-10611610D01*
X15302570Y-10611610D02*
X15312093Y-10602086D01*
X15312093Y-10602086D02*
X15331141Y-10592562D01*
X15521617Y-10592562D02*
X15540665Y-10592562D01*
X15540665Y-10592562D02*
X15559713Y-10602086D01*
X15559713Y-10602086D02*
X15569236Y-10611610D01*
X15569236Y-10611610D02*
X15578760Y-10630658D01*
X15578760Y-10630658D02*
X15588284Y-10668753D01*
X15588284Y-10668753D02*
X15588284Y-10716372D01*
X15588284Y-10716372D02*
X15578760Y-10754467D01*
X15578760Y-10754467D02*
X15569236Y-10773515D01*
X15569236Y-10773515D02*
X15559713Y-10783039D01*
X15559713Y-10783039D02*
X15540665Y-10792562D01*
X15540665Y-10792562D02*
X15521617Y-10792562D01*
X15521617Y-10792562D02*
X15502570Y-10783039D01*
X15502570Y-10783039D02*
X15493046Y-10773515D01*
X15493046Y-10773515D02*
X15483522Y-10754467D01*
X15483522Y-10754467D02*
X15473998Y-10716372D01*
X15473998Y-10716372D02*
X15473998Y-10668753D01*
X15473998Y-10668753D02*
X15483522Y-10630658D01*
X15483522Y-10630658D02*
X15493046Y-10611610D01*
X15493046Y-10611610D02*
X15502570Y-10602086D01*
X15502570Y-10602086D02*
X15521617Y-10592562D01*
X15673998Y-10792562D02*
X15673998Y-10659229D01*
X15673998Y-10678277D02*
X15683522Y-10668753D01*
X15683522Y-10668753D02*
X15702570Y-10659229D01*
X15702570Y-10659229D02*
X15731141Y-10659229D01*
X15731141Y-10659229D02*
X15750189Y-10668753D01*
X15750189Y-10668753D02*
X15759713Y-10687801D01*
X15759713Y-10687801D02*
X15759713Y-10792562D01*
X15759713Y-10687801D02*
X15769236Y-10668753D01*
X15769236Y-10668753D02*
X15788284Y-10659229D01*
X15788284Y-10659229D02*
X15816855Y-10659229D01*
X15816855Y-10659229D02*
X15835903Y-10668753D01*
X15835903Y-10668753D02*
X15845427Y-10687801D01*
X15845427Y-10687801D02*
X15845427Y-10792562D01*
X15940665Y-10792562D02*
X15940665Y-10659229D01*
X15940665Y-10678277D02*
X15950189Y-10668753D01*
X15950189Y-10668753D02*
X15969236Y-10659229D01*
X15969236Y-10659229D02*
X15997808Y-10659229D01*
X15997808Y-10659229D02*
X16016855Y-10668753D01*
X16016855Y-10668753D02*
X16026379Y-10687801D01*
X16026379Y-10687801D02*
X16026379Y-10792562D01*
X16026379Y-10687801D02*
X16035903Y-10668753D01*
X16035903Y-10668753D02*
X16054951Y-10659229D01*
X16054951Y-10659229D02*
X16083522Y-10659229D01*
X16083522Y-10659229D02*
X16102570Y-10668753D01*
X16102570Y-10668753D02*
X16112094Y-10687801D01*
X16112094Y-10687801D02*
X16112094Y-10792562D01*
X16502570Y-10583039D02*
X16331141Y-10840181D01*
X16759713Y-10592562D02*
X16778760Y-10592562D01*
X16778760Y-10592562D02*
X16797808Y-10602086D01*
X16797808Y-10602086D02*
X16807332Y-10611610D01*
X16807332Y-10611610D02*
X16816856Y-10630658D01*
X16816856Y-10630658D02*
X16826379Y-10668753D01*
X16826379Y-10668753D02*
X16826379Y-10716372D01*
X16826379Y-10716372D02*
X16816856Y-10754467D01*
X16816856Y-10754467D02*
X16807332Y-10773515D01*
X16807332Y-10773515D02*
X16797808Y-10783039D01*
X16797808Y-10783039D02*
X16778760Y-10792562D01*
X16778760Y-10792562D02*
X16759713Y-10792562D01*
X16759713Y-10792562D02*
X16740665Y-10783039D01*
X16740665Y-10783039D02*
X16731141Y-10773515D01*
X16731141Y-10773515D02*
X16721617Y-10754467D01*
X16721617Y-10754467D02*
X16712094Y-10716372D01*
X16712094Y-10716372D02*
X16712094Y-10668753D01*
X16712094Y-10668753D02*
X16721617Y-10630658D01*
X16721617Y-10630658D02*
X16731141Y-10611610D01*
X16731141Y-10611610D02*
X16740665Y-10602086D01*
X16740665Y-10602086D02*
X16759713Y-10592562D01*
X16912094Y-10773515D02*
X16921618Y-10783039D01*
X16921618Y-10783039D02*
X16912094Y-10792562D01*
X16912094Y-10792562D02*
X16902570Y-10783039D01*
X16902570Y-10783039D02*
X16912094Y-10773515D01*
X16912094Y-10773515D02*
X16912094Y-10792562D01*
X17045427Y-10592562D02*
X17064475Y-10592562D01*
X17064475Y-10592562D02*
X17083522Y-10602086D01*
X17083522Y-10602086D02*
X17093046Y-10611610D01*
X17093046Y-10611610D02*
X17102570Y-10630658D01*
X17102570Y-10630658D02*
X17112094Y-10668753D01*
X17112094Y-10668753D02*
X17112094Y-10716372D01*
X17112094Y-10716372D02*
X17102570Y-10754467D01*
X17102570Y-10754467D02*
X17093046Y-10773515D01*
X17093046Y-10773515D02*
X17083522Y-10783039D01*
X17083522Y-10783039D02*
X17064475Y-10792562D01*
X17064475Y-10792562D02*
X17045427Y-10792562D01*
X17045427Y-10792562D02*
X17026379Y-10783039D01*
X17026379Y-10783039D02*
X17016856Y-10773515D01*
X17016856Y-10773515D02*
X17007332Y-10754467D01*
X17007332Y-10754467D02*
X16997808Y-10716372D01*
X16997808Y-10716372D02*
X16997808Y-10668753D01*
X16997808Y-10668753D02*
X17007332Y-10630658D01*
X17007332Y-10630658D02*
X17016856Y-10611610D01*
X17016856Y-10611610D02*
X17026379Y-10602086D01*
X17026379Y-10602086D02*
X17045427Y-10592562D01*
X17302570Y-10792562D02*
X17188284Y-10792562D01*
X17245427Y-10792562D02*
X17245427Y-10592562D01*
X17245427Y-10592562D02*
X17226379Y-10621134D01*
X17226379Y-10621134D02*
X17207332Y-10640181D01*
X17207332Y-10640181D02*
X17188284Y-10649705D01*
X17397808Y-10792562D02*
X17435903Y-10792562D01*
X17435903Y-10792562D02*
X17454951Y-10783039D01*
X17454951Y-10783039D02*
X17464475Y-10773515D01*
X17464475Y-10773515D02*
X17483522Y-10744943D01*
X17483522Y-10744943D02*
X17493046Y-10706848D01*
X17493046Y-10706848D02*
X17493046Y-10630658D01*
X17493046Y-10630658D02*
X17483522Y-10611610D01*
X17483522Y-10611610D02*
X17473999Y-10602086D01*
X17473999Y-10602086D02*
X17454951Y-10592562D01*
X17454951Y-10592562D02*
X17416856Y-10592562D01*
X17416856Y-10592562D02*
X17397808Y-10602086D01*
X17397808Y-10602086D02*
X17388284Y-10611610D01*
X17388284Y-10611610D02*
X17378760Y-10630658D01*
X17378760Y-10630658D02*
X17378760Y-10678277D01*
X17378760Y-10678277D02*
X17388284Y-10697324D01*
X17388284Y-10697324D02*
X17397808Y-10706848D01*
X17397808Y-10706848D02*
X17416856Y-10716372D01*
X17416856Y-10716372D02*
X17454951Y-10716372D01*
X17454951Y-10716372D02*
X17473999Y-10706848D01*
X17473999Y-10706848D02*
X17483522Y-10697324D01*
X17483522Y-10697324D02*
X17493046Y-10678277D01*
X17559713Y-10592562D02*
X17693046Y-10592562D01*
X17693046Y-10592562D02*
X17607332Y-10792562D01*
X17759713Y-10592562D02*
X17759713Y-10630658D01*
X17835903Y-10592562D02*
X17835903Y-10630658D01*
X18131142Y-10868753D02*
X18121618Y-10859229D01*
X18121618Y-10859229D02*
X18102570Y-10830658D01*
X18102570Y-10830658D02*
X18093046Y-10811610D01*
X18093046Y-10811610D02*
X18083522Y-10783039D01*
X18083522Y-10783039D02*
X18073999Y-10735420D01*
X18073999Y-10735420D02*
X18073999Y-10697324D01*
X18073999Y-10697324D02*
X18083522Y-10649705D01*
X18083522Y-10649705D02*
X18093046Y-10621134D01*
X18093046Y-10621134D02*
X18102570Y-10602086D01*
X18102570Y-10602086D02*
X18121618Y-10573515D01*
X18121618Y-10573515D02*
X18131142Y-10563991D01*
X18188284Y-10592562D02*
X18312094Y-10592562D01*
X18312094Y-10592562D02*
X18245427Y-10668753D01*
X18245427Y-10668753D02*
X18273999Y-10668753D01*
X18273999Y-10668753D02*
X18293046Y-10678277D01*
X18293046Y-10678277D02*
X18302570Y-10687801D01*
X18302570Y-10687801D02*
X18312094Y-10706848D01*
X18312094Y-10706848D02*
X18312094Y-10754467D01*
X18312094Y-10754467D02*
X18302570Y-10773515D01*
X18302570Y-10773515D02*
X18293046Y-10783039D01*
X18293046Y-10783039D02*
X18273999Y-10792562D01*
X18273999Y-10792562D02*
X18216856Y-10792562D01*
X18216856Y-10792562D02*
X18197808Y-10783039D01*
X18197808Y-10783039D02*
X18188284Y-10773515D01*
X18483522Y-10659229D02*
X18483522Y-10792562D01*
X18435903Y-10583039D02*
X18388284Y-10725896D01*
X18388284Y-10725896D02*
X18512094Y-10725896D01*
X18740665Y-10792562D02*
X18740665Y-10592562D01*
X18826380Y-10792562D02*
X18826380Y-10687801D01*
X18826380Y-10687801D02*
X18816856Y-10668753D01*
X18816856Y-10668753D02*
X18797808Y-10659229D01*
X18797808Y-10659229D02*
X18769237Y-10659229D01*
X18769237Y-10659229D02*
X18750189Y-10668753D01*
X18750189Y-10668753D02*
X18740665Y-10678277D01*
X18950189Y-10792562D02*
X18931142Y-10783039D01*
X18931142Y-10783039D02*
X18921618Y-10773515D01*
X18921618Y-10773515D02*
X18912094Y-10754467D01*
X18912094Y-10754467D02*
X18912094Y-10697324D01*
X18912094Y-10697324D02*
X18921618Y-10678277D01*
X18921618Y-10678277D02*
X18931142Y-10668753D01*
X18931142Y-10668753D02*
X18950189Y-10659229D01*
X18950189Y-10659229D02*
X18978761Y-10659229D01*
X18978761Y-10659229D02*
X18997808Y-10668753D01*
X18997808Y-10668753D02*
X19007332Y-10678277D01*
X19007332Y-10678277D02*
X19016856Y-10697324D01*
X19016856Y-10697324D02*
X19016856Y-10754467D01*
X19016856Y-10754467D02*
X19007332Y-10773515D01*
X19007332Y-10773515D02*
X18997808Y-10783039D01*
X18997808Y-10783039D02*
X18978761Y-10792562D01*
X18978761Y-10792562D02*
X18950189Y-10792562D01*
X19131142Y-10792562D02*
X19112094Y-10783039D01*
X19112094Y-10783039D02*
X19102570Y-10763991D01*
X19102570Y-10763991D02*
X19102570Y-10592562D01*
X19283523Y-10783039D02*
X19264475Y-10792562D01*
X19264475Y-10792562D02*
X19226380Y-10792562D01*
X19226380Y-10792562D02*
X19207332Y-10783039D01*
X19207332Y-10783039D02*
X19197808Y-10763991D01*
X19197808Y-10763991D02*
X19197808Y-10687801D01*
X19197808Y-10687801D02*
X19207332Y-10668753D01*
X19207332Y-10668753D02*
X19226380Y-10659229D01*
X19226380Y-10659229D02*
X19264475Y-10659229D01*
X19264475Y-10659229D02*
X19283523Y-10668753D01*
X19283523Y-10668753D02*
X19293046Y-10687801D01*
X19293046Y-10687801D02*
X19293046Y-10706848D01*
X19293046Y-10706848D02*
X19197808Y-10725896D01*
X19369237Y-10783039D02*
X19388284Y-10792562D01*
X19388284Y-10792562D02*
X19426380Y-10792562D01*
X19426380Y-10792562D02*
X19445427Y-10783039D01*
X19445427Y-10783039D02*
X19454951Y-10763991D01*
X19454951Y-10763991D02*
X19454951Y-10754467D01*
X19454951Y-10754467D02*
X19445427Y-10735420D01*
X19445427Y-10735420D02*
X19426380Y-10725896D01*
X19426380Y-10725896D02*
X19397808Y-10725896D01*
X19397808Y-10725896D02*
X19378761Y-10716372D01*
X19378761Y-10716372D02*
X19369237Y-10697324D01*
X19369237Y-10697324D02*
X19369237Y-10687801D01*
X19369237Y-10687801D02*
X19378761Y-10668753D01*
X19378761Y-10668753D02*
X19397808Y-10659229D01*
X19397808Y-10659229D02*
X19426380Y-10659229D01*
X19426380Y-10659229D02*
X19445427Y-10668753D01*
X19521618Y-10868753D02*
X19531142Y-10859229D01*
X19531142Y-10859229D02*
X19550189Y-10830658D01*
X19550189Y-10830658D02*
X19559713Y-10811610D01*
X19559713Y-10811610D02*
X19569237Y-10783039D01*
X19569237Y-10783039D02*
X19578761Y-10735420D01*
X19578761Y-10735420D02*
X19578761Y-10697324D01*
X19578761Y-10697324D02*
X19569237Y-10649705D01*
X19569237Y-10649705D02*
X19559713Y-10621134D01*
X19559713Y-10621134D02*
X19550189Y-10602086D01*
X19550189Y-10602086D02*
X19531142Y-10573515D01*
X19531142Y-10573515D02*
X19521618Y-10563991D01*
D12*
X14556079Y-10965079D02*
G75*
G02*
X14496079Y-10965079I-30000J0D01*
G01*
X14496079Y-10965079D02*
G75*
G02*
X14556079Y-10965079I30000J0D01*
G01*
D11*
X14854951Y-10856562D02*
X14873998Y-10856562D01*
X14873998Y-10856562D02*
X14893046Y-10866086D01*
X14893046Y-10866086D02*
X14902570Y-10875610D01*
X14902570Y-10875610D02*
X14912093Y-10894658D01*
X14912093Y-10894658D02*
X14921617Y-10932753D01*
X14921617Y-10932753D02*
X14921617Y-10980372D01*
X14921617Y-10980372D02*
X14912093Y-11018467D01*
X14912093Y-11018467D02*
X14902570Y-11037515D01*
X14902570Y-11037515D02*
X14893046Y-11047039D01*
X14893046Y-11047039D02*
X14873998Y-11056562D01*
X14873998Y-11056562D02*
X14854951Y-11056562D01*
X14854951Y-11056562D02*
X14835903Y-11047039D01*
X14835903Y-11047039D02*
X14826379Y-11037515D01*
X14826379Y-11037515D02*
X14816855Y-11018467D01*
X14816855Y-11018467D02*
X14807332Y-10980372D01*
X14807332Y-10980372D02*
X14807332Y-10932753D01*
X14807332Y-10932753D02*
X14816855Y-10894658D01*
X14816855Y-10894658D02*
X14826379Y-10875610D01*
X14826379Y-10875610D02*
X14835903Y-10866086D01*
X14835903Y-10866086D02*
X14854951Y-10856562D01*
X15007332Y-11037515D02*
X15016855Y-11047039D01*
X15016855Y-11047039D02*
X15007332Y-11056562D01*
X15007332Y-11056562D02*
X14997808Y-11047039D01*
X14997808Y-11047039D02*
X15007332Y-11037515D01*
X15007332Y-11037515D02*
X15007332Y-11056562D01*
X15188284Y-10856562D02*
X15150189Y-10856562D01*
X15150189Y-10856562D02*
X15131141Y-10866086D01*
X15131141Y-10866086D02*
X15121617Y-10875610D01*
X15121617Y-10875610D02*
X15102570Y-10904181D01*
X15102570Y-10904181D02*
X15093046Y-10942277D01*
X15093046Y-10942277D02*
X15093046Y-11018467D01*
X15093046Y-11018467D02*
X15102570Y-11037515D01*
X15102570Y-11037515D02*
X15112093Y-11047039D01*
X15112093Y-11047039D02*
X15131141Y-11056562D01*
X15131141Y-11056562D02*
X15169236Y-11056562D01*
X15169236Y-11056562D02*
X15188284Y-11047039D01*
X15188284Y-11047039D02*
X15197808Y-11037515D01*
X15197808Y-11037515D02*
X15207332Y-11018467D01*
X15207332Y-11018467D02*
X15207332Y-10970848D01*
X15207332Y-10970848D02*
X15197808Y-10951801D01*
X15197808Y-10951801D02*
X15188284Y-10942277D01*
X15188284Y-10942277D02*
X15169236Y-10932753D01*
X15169236Y-10932753D02*
X15131141Y-10932753D01*
X15131141Y-10932753D02*
X15112093Y-10942277D01*
X15112093Y-10942277D02*
X15102570Y-10951801D01*
X15102570Y-10951801D02*
X15093046Y-10970848D01*
X15331141Y-10856562D02*
X15350189Y-10856562D01*
X15350189Y-10856562D02*
X15369236Y-10866086D01*
X15369236Y-10866086D02*
X15378760Y-10875610D01*
X15378760Y-10875610D02*
X15388284Y-10894658D01*
X15388284Y-10894658D02*
X15397808Y-10932753D01*
X15397808Y-10932753D02*
X15397808Y-10980372D01*
X15397808Y-10980372D02*
X15388284Y-11018467D01*
X15388284Y-11018467D02*
X15378760Y-11037515D01*
X15378760Y-11037515D02*
X15369236Y-11047039D01*
X15369236Y-11047039D02*
X15350189Y-11056562D01*
X15350189Y-11056562D02*
X15331141Y-11056562D01*
X15331141Y-11056562D02*
X15312093Y-11047039D01*
X15312093Y-11047039D02*
X15302570Y-11037515D01*
X15302570Y-11037515D02*
X15293046Y-11018467D01*
X15293046Y-11018467D02*
X15283522Y-10980372D01*
X15283522Y-10980372D02*
X15283522Y-10932753D01*
X15283522Y-10932753D02*
X15293046Y-10894658D01*
X15293046Y-10894658D02*
X15302570Y-10875610D01*
X15302570Y-10875610D02*
X15312093Y-10866086D01*
X15312093Y-10866086D02*
X15331141Y-10856562D01*
X15521617Y-10856562D02*
X15540665Y-10856562D01*
X15540665Y-10856562D02*
X15559713Y-10866086D01*
X15559713Y-10866086D02*
X15569236Y-10875610D01*
X15569236Y-10875610D02*
X15578760Y-10894658D01*
X15578760Y-10894658D02*
X15588284Y-10932753D01*
X15588284Y-10932753D02*
X15588284Y-10980372D01*
X15588284Y-10980372D02*
X15578760Y-11018467D01*
X15578760Y-11018467D02*
X15569236Y-11037515D01*
X15569236Y-11037515D02*
X15559713Y-11047039D01*
X15559713Y-11047039D02*
X15540665Y-11056562D01*
X15540665Y-11056562D02*
X15521617Y-11056562D01*
X15521617Y-11056562D02*
X15502570Y-11047039D01*
X15502570Y-11047039D02*
X15493046Y-11037515D01*
X15493046Y-11037515D02*
X15483522Y-11018467D01*
X15483522Y-11018467D02*
X15473998Y-10980372D01*
X15473998Y-10980372D02*
X15473998Y-10932753D01*
X15473998Y-10932753D02*
X15483522Y-10894658D01*
X15483522Y-10894658D02*
X15493046Y-10875610D01*
X15493046Y-10875610D02*
X15502570Y-10866086D01*
X15502570Y-10866086D02*
X15521617Y-10856562D01*
X15673998Y-11056562D02*
X15673998Y-10923229D01*
X15673998Y-10942277D02*
X15683522Y-10932753D01*
X15683522Y-10932753D02*
X15702570Y-10923229D01*
X15702570Y-10923229D02*
X15731141Y-10923229D01*
X15731141Y-10923229D02*
X15750189Y-10932753D01*
X15750189Y-10932753D02*
X15759713Y-10951801D01*
X15759713Y-10951801D02*
X15759713Y-11056562D01*
X15759713Y-10951801D02*
X15769236Y-10932753D01*
X15769236Y-10932753D02*
X15788284Y-10923229D01*
X15788284Y-10923229D02*
X15816855Y-10923229D01*
X15816855Y-10923229D02*
X15835903Y-10932753D01*
X15835903Y-10932753D02*
X15845427Y-10951801D01*
X15845427Y-10951801D02*
X15845427Y-11056562D01*
X15940665Y-11056562D02*
X15940665Y-10923229D01*
X15940665Y-10942277D02*
X15950189Y-10932753D01*
X15950189Y-10932753D02*
X15969236Y-10923229D01*
X15969236Y-10923229D02*
X15997808Y-10923229D01*
X15997808Y-10923229D02*
X16016855Y-10932753D01*
X16016855Y-10932753D02*
X16026379Y-10951801D01*
X16026379Y-10951801D02*
X16026379Y-11056562D01*
X16026379Y-10951801D02*
X16035903Y-10932753D01*
X16035903Y-10932753D02*
X16054951Y-10923229D01*
X16054951Y-10923229D02*
X16083522Y-10923229D01*
X16083522Y-10923229D02*
X16102570Y-10932753D01*
X16102570Y-10932753D02*
X16112094Y-10951801D01*
X16112094Y-10951801D02*
X16112094Y-11056562D01*
X16502570Y-10847039D02*
X16331141Y-11104181D01*
X16759713Y-10856562D02*
X16778760Y-10856562D01*
X16778760Y-10856562D02*
X16797808Y-10866086D01*
X16797808Y-10866086D02*
X16807332Y-10875610D01*
X16807332Y-10875610D02*
X16816856Y-10894658D01*
X16816856Y-10894658D02*
X16826379Y-10932753D01*
X16826379Y-10932753D02*
X16826379Y-10980372D01*
X16826379Y-10980372D02*
X16816856Y-11018467D01*
X16816856Y-11018467D02*
X16807332Y-11037515D01*
X16807332Y-11037515D02*
X16797808Y-11047039D01*
X16797808Y-11047039D02*
X16778760Y-11056562D01*
X16778760Y-11056562D02*
X16759713Y-11056562D01*
X16759713Y-11056562D02*
X16740665Y-11047039D01*
X16740665Y-11047039D02*
X16731141Y-11037515D01*
X16731141Y-11037515D02*
X16721617Y-11018467D01*
X16721617Y-11018467D02*
X16712094Y-10980372D01*
X16712094Y-10980372D02*
X16712094Y-10932753D01*
X16712094Y-10932753D02*
X16721617Y-10894658D01*
X16721617Y-10894658D02*
X16731141Y-10875610D01*
X16731141Y-10875610D02*
X16740665Y-10866086D01*
X16740665Y-10866086D02*
X16759713Y-10856562D01*
X16912094Y-11037515D02*
X16921618Y-11047039D01*
X16921618Y-11047039D02*
X16912094Y-11056562D01*
X16912094Y-11056562D02*
X16902570Y-11047039D01*
X16902570Y-11047039D02*
X16912094Y-11037515D01*
X16912094Y-11037515D02*
X16912094Y-11056562D01*
X17045427Y-10856562D02*
X17064475Y-10856562D01*
X17064475Y-10856562D02*
X17083522Y-10866086D01*
X17083522Y-10866086D02*
X17093046Y-10875610D01*
X17093046Y-10875610D02*
X17102570Y-10894658D01*
X17102570Y-10894658D02*
X17112094Y-10932753D01*
X17112094Y-10932753D02*
X17112094Y-10980372D01*
X17112094Y-10980372D02*
X17102570Y-11018467D01*
X17102570Y-11018467D02*
X17093046Y-11037515D01*
X17093046Y-11037515D02*
X17083522Y-11047039D01*
X17083522Y-11047039D02*
X17064475Y-11056562D01*
X17064475Y-11056562D02*
X17045427Y-11056562D01*
X17045427Y-11056562D02*
X17026379Y-11047039D01*
X17026379Y-11047039D02*
X17016856Y-11037515D01*
X17016856Y-11037515D02*
X17007332Y-11018467D01*
X17007332Y-11018467D02*
X16997808Y-10980372D01*
X16997808Y-10980372D02*
X16997808Y-10932753D01*
X16997808Y-10932753D02*
X17007332Y-10894658D01*
X17007332Y-10894658D02*
X17016856Y-10875610D01*
X17016856Y-10875610D02*
X17026379Y-10866086D01*
X17026379Y-10866086D02*
X17045427Y-10856562D01*
X17188284Y-10875610D02*
X17197808Y-10866086D01*
X17197808Y-10866086D02*
X17216856Y-10856562D01*
X17216856Y-10856562D02*
X17264475Y-10856562D01*
X17264475Y-10856562D02*
X17283522Y-10866086D01*
X17283522Y-10866086D02*
X17293046Y-10875610D01*
X17293046Y-10875610D02*
X17302570Y-10894658D01*
X17302570Y-10894658D02*
X17302570Y-10913705D01*
X17302570Y-10913705D02*
X17293046Y-10942277D01*
X17293046Y-10942277D02*
X17178760Y-11056562D01*
X17178760Y-11056562D02*
X17302570Y-11056562D01*
X17369237Y-10856562D02*
X17493046Y-10856562D01*
X17493046Y-10856562D02*
X17426379Y-10932753D01*
X17426379Y-10932753D02*
X17454951Y-10932753D01*
X17454951Y-10932753D02*
X17473999Y-10942277D01*
X17473999Y-10942277D02*
X17483522Y-10951801D01*
X17483522Y-10951801D02*
X17493046Y-10970848D01*
X17493046Y-10970848D02*
X17493046Y-11018467D01*
X17493046Y-11018467D02*
X17483522Y-11037515D01*
X17483522Y-11037515D02*
X17473999Y-11047039D01*
X17473999Y-11047039D02*
X17454951Y-11056562D01*
X17454951Y-11056562D02*
X17397808Y-11056562D01*
X17397808Y-11056562D02*
X17378760Y-11047039D01*
X17378760Y-11047039D02*
X17369237Y-11037515D01*
X17664475Y-10856562D02*
X17626379Y-10856562D01*
X17626379Y-10856562D02*
X17607332Y-10866086D01*
X17607332Y-10866086D02*
X17597808Y-10875610D01*
X17597808Y-10875610D02*
X17578760Y-10904181D01*
X17578760Y-10904181D02*
X17569237Y-10942277D01*
X17569237Y-10942277D02*
X17569237Y-11018467D01*
X17569237Y-11018467D02*
X17578760Y-11037515D01*
X17578760Y-11037515D02*
X17588284Y-11047039D01*
X17588284Y-11047039D02*
X17607332Y-11056562D01*
X17607332Y-11056562D02*
X17645427Y-11056562D01*
X17645427Y-11056562D02*
X17664475Y-11047039D01*
X17664475Y-11047039D02*
X17673999Y-11037515D01*
X17673999Y-11037515D02*
X17683522Y-11018467D01*
X17683522Y-11018467D02*
X17683522Y-10970848D01*
X17683522Y-10970848D02*
X17673999Y-10951801D01*
X17673999Y-10951801D02*
X17664475Y-10942277D01*
X17664475Y-10942277D02*
X17645427Y-10932753D01*
X17645427Y-10932753D02*
X17607332Y-10932753D01*
X17607332Y-10932753D02*
X17588284Y-10942277D01*
X17588284Y-10942277D02*
X17578760Y-10951801D01*
X17578760Y-10951801D02*
X17569237Y-10970848D01*
X17759713Y-10856562D02*
X17759713Y-10894658D01*
X17835903Y-10856562D02*
X17835903Y-10894658D01*
X18131142Y-11132753D02*
X18121618Y-11123229D01*
X18121618Y-11123229D02*
X18102570Y-11094658D01*
X18102570Y-11094658D02*
X18093046Y-11075610D01*
X18093046Y-11075610D02*
X18083522Y-11047039D01*
X18083522Y-11047039D02*
X18073999Y-10999420D01*
X18073999Y-10999420D02*
X18073999Y-10961324D01*
X18073999Y-10961324D02*
X18083522Y-10913705D01*
X18083522Y-10913705D02*
X18093046Y-10885134D01*
X18093046Y-10885134D02*
X18102570Y-10866086D01*
X18102570Y-10866086D02*
X18121618Y-10837515D01*
X18121618Y-10837515D02*
X18131142Y-10827991D01*
X18235903Y-10942277D02*
X18216856Y-10932753D01*
X18216856Y-10932753D02*
X18207332Y-10923229D01*
X18207332Y-10923229D02*
X18197808Y-10904181D01*
X18197808Y-10904181D02*
X18197808Y-10894658D01*
X18197808Y-10894658D02*
X18207332Y-10875610D01*
X18207332Y-10875610D02*
X18216856Y-10866086D01*
X18216856Y-10866086D02*
X18235903Y-10856562D01*
X18235903Y-10856562D02*
X18273999Y-10856562D01*
X18273999Y-10856562D02*
X18293046Y-10866086D01*
X18293046Y-10866086D02*
X18302570Y-10875610D01*
X18302570Y-10875610D02*
X18312094Y-10894658D01*
X18312094Y-10894658D02*
X18312094Y-10904181D01*
X18312094Y-10904181D02*
X18302570Y-10923229D01*
X18302570Y-10923229D02*
X18293046Y-10932753D01*
X18293046Y-10932753D02*
X18273999Y-10942277D01*
X18273999Y-10942277D02*
X18235903Y-10942277D01*
X18235903Y-10942277D02*
X18216856Y-10951801D01*
X18216856Y-10951801D02*
X18207332Y-10961324D01*
X18207332Y-10961324D02*
X18197808Y-10980372D01*
X18197808Y-10980372D02*
X18197808Y-11018467D01*
X18197808Y-11018467D02*
X18207332Y-11037515D01*
X18207332Y-11037515D02*
X18216856Y-11047039D01*
X18216856Y-11047039D02*
X18235903Y-11056562D01*
X18235903Y-11056562D02*
X18273999Y-11056562D01*
X18273999Y-11056562D02*
X18293046Y-11047039D01*
X18293046Y-11047039D02*
X18302570Y-11037515D01*
X18302570Y-11037515D02*
X18312094Y-11018467D01*
X18312094Y-11018467D02*
X18312094Y-10980372D01*
X18312094Y-10980372D02*
X18302570Y-10961324D01*
X18302570Y-10961324D02*
X18293046Y-10951801D01*
X18293046Y-10951801D02*
X18273999Y-10942277D01*
X18550189Y-11056562D02*
X18550189Y-10856562D01*
X18635903Y-11056562D02*
X18635903Y-10951801D01*
X18635903Y-10951801D02*
X18626380Y-10932753D01*
X18626380Y-10932753D02*
X18607332Y-10923229D01*
X18607332Y-10923229D02*
X18578761Y-10923229D01*
X18578761Y-10923229D02*
X18559713Y-10932753D01*
X18559713Y-10932753D02*
X18550189Y-10942277D01*
X18759713Y-11056562D02*
X18740665Y-11047039D01*
X18740665Y-11047039D02*
X18731142Y-11037515D01*
X18731142Y-11037515D02*
X18721618Y-11018467D01*
X18721618Y-11018467D02*
X18721618Y-10961324D01*
X18721618Y-10961324D02*
X18731142Y-10942277D01*
X18731142Y-10942277D02*
X18740665Y-10932753D01*
X18740665Y-10932753D02*
X18759713Y-10923229D01*
X18759713Y-10923229D02*
X18788284Y-10923229D01*
X18788284Y-10923229D02*
X18807332Y-10932753D01*
X18807332Y-10932753D02*
X18816856Y-10942277D01*
X18816856Y-10942277D02*
X18826380Y-10961324D01*
X18826380Y-10961324D02*
X18826380Y-11018467D01*
X18826380Y-11018467D02*
X18816856Y-11037515D01*
X18816856Y-11037515D02*
X18807332Y-11047039D01*
X18807332Y-11047039D02*
X18788284Y-11056562D01*
X18788284Y-11056562D02*
X18759713Y-11056562D01*
X18940665Y-11056562D02*
X18921618Y-11047039D01*
X18921618Y-11047039D02*
X18912094Y-11027991D01*
X18912094Y-11027991D02*
X18912094Y-10856562D01*
X19093046Y-11047039D02*
X19073999Y-11056562D01*
X19073999Y-11056562D02*
X19035903Y-11056562D01*
X19035903Y-11056562D02*
X19016856Y-11047039D01*
X19016856Y-11047039D02*
X19007332Y-11027991D01*
X19007332Y-11027991D02*
X19007332Y-10951801D01*
X19007332Y-10951801D02*
X19016856Y-10932753D01*
X19016856Y-10932753D02*
X19035903Y-10923229D01*
X19035903Y-10923229D02*
X19073999Y-10923229D01*
X19073999Y-10923229D02*
X19093046Y-10932753D01*
X19093046Y-10932753D02*
X19102570Y-10951801D01*
X19102570Y-10951801D02*
X19102570Y-10970848D01*
X19102570Y-10970848D02*
X19007332Y-10989896D01*
X19178761Y-11047039D02*
X19197808Y-11056562D01*
X19197808Y-11056562D02*
X19235903Y-11056562D01*
X19235903Y-11056562D02*
X19254951Y-11047039D01*
X19254951Y-11047039D02*
X19264475Y-11027991D01*
X19264475Y-11027991D02*
X19264475Y-11018467D01*
X19264475Y-11018467D02*
X19254951Y-10999420D01*
X19254951Y-10999420D02*
X19235903Y-10989896D01*
X19235903Y-10989896D02*
X19207332Y-10989896D01*
X19207332Y-10989896D02*
X19188284Y-10980372D01*
X19188284Y-10980372D02*
X19178761Y-10961324D01*
X19178761Y-10961324D02*
X19178761Y-10951801D01*
X19178761Y-10951801D02*
X19188284Y-10932753D01*
X19188284Y-10932753D02*
X19207332Y-10923229D01*
X19207332Y-10923229D02*
X19235903Y-10923229D01*
X19235903Y-10923229D02*
X19254951Y-10932753D01*
X19331142Y-11132753D02*
X19340665Y-11123229D01*
X19340665Y-11123229D02*
X19359713Y-11094658D01*
X19359713Y-11094658D02*
X19369237Y-11075610D01*
X19369237Y-11075610D02*
X19378761Y-11047039D01*
X19378761Y-11047039D02*
X19388284Y-10999420D01*
X19388284Y-10999420D02*
X19388284Y-10961324D01*
X19388284Y-10961324D02*
X19378761Y-10913705D01*
X19378761Y-10913705D02*
X19369237Y-10885134D01*
X19369237Y-10885134D02*
X19359713Y-10866086D01*
X19359713Y-10866086D02*
X19340665Y-10837515D01*
X19340665Y-10837515D02*
X19331142Y-10827991D01*
D12*
X14526079Y-11199079D02*
X14526079Y-11259079D01*
X14496079Y-11229079D02*
X14556079Y-11229079D01*
D11*
X14854951Y-11120562D02*
X14873998Y-11120562D01*
X14873998Y-11120562D02*
X14893046Y-11130086D01*
X14893046Y-11130086D02*
X14902570Y-11139610D01*
X14902570Y-11139610D02*
X14912093Y-11158658D01*
X14912093Y-11158658D02*
X14921617Y-11196753D01*
X14921617Y-11196753D02*
X14921617Y-11244372D01*
X14921617Y-11244372D02*
X14912093Y-11282467D01*
X14912093Y-11282467D02*
X14902570Y-11301515D01*
X14902570Y-11301515D02*
X14893046Y-11311039D01*
X14893046Y-11311039D02*
X14873998Y-11320562D01*
X14873998Y-11320562D02*
X14854951Y-11320562D01*
X14854951Y-11320562D02*
X14835903Y-11311039D01*
X14835903Y-11311039D02*
X14826379Y-11301515D01*
X14826379Y-11301515D02*
X14816855Y-11282467D01*
X14816855Y-11282467D02*
X14807332Y-11244372D01*
X14807332Y-11244372D02*
X14807332Y-11196753D01*
X14807332Y-11196753D02*
X14816855Y-11158658D01*
X14816855Y-11158658D02*
X14826379Y-11139610D01*
X14826379Y-11139610D02*
X14835903Y-11130086D01*
X14835903Y-11130086D02*
X14854951Y-11120562D01*
X15007332Y-11301515D02*
X15016855Y-11311039D01*
X15016855Y-11311039D02*
X15007332Y-11320562D01*
X15007332Y-11320562D02*
X14997808Y-11311039D01*
X14997808Y-11311039D02*
X15007332Y-11301515D01*
X15007332Y-11301515D02*
X15007332Y-11320562D01*
X15188284Y-11120562D02*
X15150189Y-11120562D01*
X15150189Y-11120562D02*
X15131141Y-11130086D01*
X15131141Y-11130086D02*
X15121617Y-11139610D01*
X15121617Y-11139610D02*
X15102570Y-11168181D01*
X15102570Y-11168181D02*
X15093046Y-11206277D01*
X15093046Y-11206277D02*
X15093046Y-11282467D01*
X15093046Y-11282467D02*
X15102570Y-11301515D01*
X15102570Y-11301515D02*
X15112093Y-11311039D01*
X15112093Y-11311039D02*
X15131141Y-11320562D01*
X15131141Y-11320562D02*
X15169236Y-11320562D01*
X15169236Y-11320562D02*
X15188284Y-11311039D01*
X15188284Y-11311039D02*
X15197808Y-11301515D01*
X15197808Y-11301515D02*
X15207332Y-11282467D01*
X15207332Y-11282467D02*
X15207332Y-11234848D01*
X15207332Y-11234848D02*
X15197808Y-11215800D01*
X15197808Y-11215800D02*
X15188284Y-11206277D01*
X15188284Y-11206277D02*
X15169236Y-11196753D01*
X15169236Y-11196753D02*
X15131141Y-11196753D01*
X15131141Y-11196753D02*
X15112093Y-11206277D01*
X15112093Y-11206277D02*
X15102570Y-11215800D01*
X15102570Y-11215800D02*
X15093046Y-11234848D01*
X15331141Y-11120562D02*
X15350189Y-11120562D01*
X15350189Y-11120562D02*
X15369236Y-11130086D01*
X15369236Y-11130086D02*
X15378760Y-11139610D01*
X15378760Y-11139610D02*
X15388284Y-11158658D01*
X15388284Y-11158658D02*
X15397808Y-11196753D01*
X15397808Y-11196753D02*
X15397808Y-11244372D01*
X15397808Y-11244372D02*
X15388284Y-11282467D01*
X15388284Y-11282467D02*
X15378760Y-11301515D01*
X15378760Y-11301515D02*
X15369236Y-11311039D01*
X15369236Y-11311039D02*
X15350189Y-11320562D01*
X15350189Y-11320562D02*
X15331141Y-11320562D01*
X15331141Y-11320562D02*
X15312093Y-11311039D01*
X15312093Y-11311039D02*
X15302570Y-11301515D01*
X15302570Y-11301515D02*
X15293046Y-11282467D01*
X15293046Y-11282467D02*
X15283522Y-11244372D01*
X15283522Y-11244372D02*
X15283522Y-11196753D01*
X15283522Y-11196753D02*
X15293046Y-11158658D01*
X15293046Y-11158658D02*
X15302570Y-11139610D01*
X15302570Y-11139610D02*
X15312093Y-11130086D01*
X15312093Y-11130086D02*
X15331141Y-11120562D01*
X15521617Y-11120562D02*
X15540665Y-11120562D01*
X15540665Y-11120562D02*
X15559713Y-11130086D01*
X15559713Y-11130086D02*
X15569236Y-11139610D01*
X15569236Y-11139610D02*
X15578760Y-11158658D01*
X15578760Y-11158658D02*
X15588284Y-11196753D01*
X15588284Y-11196753D02*
X15588284Y-11244372D01*
X15588284Y-11244372D02*
X15578760Y-11282467D01*
X15578760Y-11282467D02*
X15569236Y-11301515D01*
X15569236Y-11301515D02*
X15559713Y-11311039D01*
X15559713Y-11311039D02*
X15540665Y-11320562D01*
X15540665Y-11320562D02*
X15521617Y-11320562D01*
X15521617Y-11320562D02*
X15502570Y-11311039D01*
X15502570Y-11311039D02*
X15493046Y-11301515D01*
X15493046Y-11301515D02*
X15483522Y-11282467D01*
X15483522Y-11282467D02*
X15473998Y-11244372D01*
X15473998Y-11244372D02*
X15473998Y-11196753D01*
X15473998Y-11196753D02*
X15483522Y-11158658D01*
X15483522Y-11158658D02*
X15493046Y-11139610D01*
X15493046Y-11139610D02*
X15502570Y-11130086D01*
X15502570Y-11130086D02*
X15521617Y-11120562D01*
X15673998Y-11320562D02*
X15673998Y-11187229D01*
X15673998Y-11206277D02*
X15683522Y-11196753D01*
X15683522Y-11196753D02*
X15702570Y-11187229D01*
X15702570Y-11187229D02*
X15731141Y-11187229D01*
X15731141Y-11187229D02*
X15750189Y-11196753D01*
X15750189Y-11196753D02*
X15759713Y-11215800D01*
X15759713Y-11215800D02*
X15759713Y-11320562D01*
X15759713Y-11215800D02*
X15769236Y-11196753D01*
X15769236Y-11196753D02*
X15788284Y-11187229D01*
X15788284Y-11187229D02*
X15816855Y-11187229D01*
X15816855Y-11187229D02*
X15835903Y-11196753D01*
X15835903Y-11196753D02*
X15845427Y-11215800D01*
X15845427Y-11215800D02*
X15845427Y-11320562D01*
X15940665Y-11320562D02*
X15940665Y-11187229D01*
X15940665Y-11206277D02*
X15950189Y-11196753D01*
X15950189Y-11196753D02*
X15969236Y-11187229D01*
X15969236Y-11187229D02*
X15997808Y-11187229D01*
X15997808Y-11187229D02*
X16016855Y-11196753D01*
X16016855Y-11196753D02*
X16026379Y-11215800D01*
X16026379Y-11215800D02*
X16026379Y-11320562D01*
X16026379Y-11215800D02*
X16035903Y-11196753D01*
X16035903Y-11196753D02*
X16054951Y-11187229D01*
X16054951Y-11187229D02*
X16083522Y-11187229D01*
X16083522Y-11187229D02*
X16102570Y-11196753D01*
X16102570Y-11196753D02*
X16112094Y-11215800D01*
X16112094Y-11215800D02*
X16112094Y-11320562D01*
X16502570Y-11111039D02*
X16331141Y-11368181D01*
X16759713Y-11120562D02*
X16778760Y-11120562D01*
X16778760Y-11120562D02*
X16797808Y-11130086D01*
X16797808Y-11130086D02*
X16807332Y-11139610D01*
X16807332Y-11139610D02*
X16816856Y-11158658D01*
X16816856Y-11158658D02*
X16826379Y-11196753D01*
X16826379Y-11196753D02*
X16826379Y-11244372D01*
X16826379Y-11244372D02*
X16816856Y-11282467D01*
X16816856Y-11282467D02*
X16807332Y-11301515D01*
X16807332Y-11301515D02*
X16797808Y-11311039D01*
X16797808Y-11311039D02*
X16778760Y-11320562D01*
X16778760Y-11320562D02*
X16759713Y-11320562D01*
X16759713Y-11320562D02*
X16740665Y-11311039D01*
X16740665Y-11311039D02*
X16731141Y-11301515D01*
X16731141Y-11301515D02*
X16721617Y-11282467D01*
X16721617Y-11282467D02*
X16712094Y-11244372D01*
X16712094Y-11244372D02*
X16712094Y-11196753D01*
X16712094Y-11196753D02*
X16721617Y-11158658D01*
X16721617Y-11158658D02*
X16731141Y-11139610D01*
X16731141Y-11139610D02*
X16740665Y-11130086D01*
X16740665Y-11130086D02*
X16759713Y-11120562D01*
X16912094Y-11301515D02*
X16921618Y-11311039D01*
X16921618Y-11311039D02*
X16912094Y-11320562D01*
X16912094Y-11320562D02*
X16902570Y-11311039D01*
X16902570Y-11311039D02*
X16912094Y-11301515D01*
X16912094Y-11301515D02*
X16912094Y-11320562D01*
X17045427Y-11120562D02*
X17064475Y-11120562D01*
X17064475Y-11120562D02*
X17083522Y-11130086D01*
X17083522Y-11130086D02*
X17093046Y-11139610D01*
X17093046Y-11139610D02*
X17102570Y-11158658D01*
X17102570Y-11158658D02*
X17112094Y-11196753D01*
X17112094Y-11196753D02*
X17112094Y-11244372D01*
X17112094Y-11244372D02*
X17102570Y-11282467D01*
X17102570Y-11282467D02*
X17093046Y-11301515D01*
X17093046Y-11301515D02*
X17083522Y-11311039D01*
X17083522Y-11311039D02*
X17064475Y-11320562D01*
X17064475Y-11320562D02*
X17045427Y-11320562D01*
X17045427Y-11320562D02*
X17026379Y-11311039D01*
X17026379Y-11311039D02*
X17016856Y-11301515D01*
X17016856Y-11301515D02*
X17007332Y-11282467D01*
X17007332Y-11282467D02*
X16997808Y-11244372D01*
X16997808Y-11244372D02*
X16997808Y-11196753D01*
X16997808Y-11196753D02*
X17007332Y-11158658D01*
X17007332Y-11158658D02*
X17016856Y-11139610D01*
X17016856Y-11139610D02*
X17026379Y-11130086D01*
X17026379Y-11130086D02*
X17045427Y-11120562D01*
X17188284Y-11139610D02*
X17197808Y-11130086D01*
X17197808Y-11130086D02*
X17216856Y-11120562D01*
X17216856Y-11120562D02*
X17264475Y-11120562D01*
X17264475Y-11120562D02*
X17283522Y-11130086D01*
X17283522Y-11130086D02*
X17293046Y-11139610D01*
X17293046Y-11139610D02*
X17302570Y-11158658D01*
X17302570Y-11158658D02*
X17302570Y-11177705D01*
X17302570Y-11177705D02*
X17293046Y-11206277D01*
X17293046Y-11206277D02*
X17178760Y-11320562D01*
X17178760Y-11320562D02*
X17302570Y-11320562D01*
X17369237Y-11120562D02*
X17493046Y-11120562D01*
X17493046Y-11120562D02*
X17426379Y-11196753D01*
X17426379Y-11196753D02*
X17454951Y-11196753D01*
X17454951Y-11196753D02*
X17473999Y-11206277D01*
X17473999Y-11206277D02*
X17483522Y-11215800D01*
X17483522Y-11215800D02*
X17493046Y-11234848D01*
X17493046Y-11234848D02*
X17493046Y-11282467D01*
X17493046Y-11282467D02*
X17483522Y-11301515D01*
X17483522Y-11301515D02*
X17473999Y-11311039D01*
X17473999Y-11311039D02*
X17454951Y-11320562D01*
X17454951Y-11320562D02*
X17397808Y-11320562D01*
X17397808Y-11320562D02*
X17378760Y-11311039D01*
X17378760Y-11311039D02*
X17369237Y-11301515D01*
X17664475Y-11120562D02*
X17626379Y-11120562D01*
X17626379Y-11120562D02*
X17607332Y-11130086D01*
X17607332Y-11130086D02*
X17597808Y-11139610D01*
X17597808Y-11139610D02*
X17578760Y-11168181D01*
X17578760Y-11168181D02*
X17569237Y-11206277D01*
X17569237Y-11206277D02*
X17569237Y-11282467D01*
X17569237Y-11282467D02*
X17578760Y-11301515D01*
X17578760Y-11301515D02*
X17588284Y-11311039D01*
X17588284Y-11311039D02*
X17607332Y-11320562D01*
X17607332Y-11320562D02*
X17645427Y-11320562D01*
X17645427Y-11320562D02*
X17664475Y-11311039D01*
X17664475Y-11311039D02*
X17673999Y-11301515D01*
X17673999Y-11301515D02*
X17683522Y-11282467D01*
X17683522Y-11282467D02*
X17683522Y-11234848D01*
X17683522Y-11234848D02*
X17673999Y-11215800D01*
X17673999Y-11215800D02*
X17664475Y-11206277D01*
X17664475Y-11206277D02*
X17645427Y-11196753D01*
X17645427Y-11196753D02*
X17607332Y-11196753D01*
X17607332Y-11196753D02*
X17588284Y-11206277D01*
X17588284Y-11206277D02*
X17578760Y-11215800D01*
X17578760Y-11215800D02*
X17569237Y-11234848D01*
X17759713Y-11120562D02*
X17759713Y-11158658D01*
X17835903Y-11120562D02*
X17835903Y-11158658D01*
X18131142Y-11396753D02*
X18121618Y-11387229D01*
X18121618Y-11387229D02*
X18102570Y-11358658D01*
X18102570Y-11358658D02*
X18093046Y-11339610D01*
X18093046Y-11339610D02*
X18083522Y-11311039D01*
X18083522Y-11311039D02*
X18073999Y-11263419D01*
X18073999Y-11263419D02*
X18073999Y-11225324D01*
X18073999Y-11225324D02*
X18083522Y-11177705D01*
X18083522Y-11177705D02*
X18093046Y-11149134D01*
X18093046Y-11149134D02*
X18102570Y-11130086D01*
X18102570Y-11130086D02*
X18121618Y-11101515D01*
X18121618Y-11101515D02*
X18131142Y-11091991D01*
X18312094Y-11320562D02*
X18197808Y-11320562D01*
X18254951Y-11320562D02*
X18254951Y-11120562D01*
X18254951Y-11120562D02*
X18235903Y-11149134D01*
X18235903Y-11149134D02*
X18216856Y-11168181D01*
X18216856Y-11168181D02*
X18197808Y-11177705D01*
X18550189Y-11320562D02*
X18550189Y-11120562D01*
X18635903Y-11320562D02*
X18635903Y-11215800D01*
X18635903Y-11215800D02*
X18626380Y-11196753D01*
X18626380Y-11196753D02*
X18607332Y-11187229D01*
X18607332Y-11187229D02*
X18578761Y-11187229D01*
X18578761Y-11187229D02*
X18559713Y-11196753D01*
X18559713Y-11196753D02*
X18550189Y-11206277D01*
X18759713Y-11320562D02*
X18740665Y-11311039D01*
X18740665Y-11311039D02*
X18731142Y-11301515D01*
X18731142Y-11301515D02*
X18721618Y-11282467D01*
X18721618Y-11282467D02*
X18721618Y-11225324D01*
X18721618Y-11225324D02*
X18731142Y-11206277D01*
X18731142Y-11206277D02*
X18740665Y-11196753D01*
X18740665Y-11196753D02*
X18759713Y-11187229D01*
X18759713Y-11187229D02*
X18788284Y-11187229D01*
X18788284Y-11187229D02*
X18807332Y-11196753D01*
X18807332Y-11196753D02*
X18816856Y-11206277D01*
X18816856Y-11206277D02*
X18826380Y-11225324D01*
X18826380Y-11225324D02*
X18826380Y-11282467D01*
X18826380Y-11282467D02*
X18816856Y-11301515D01*
X18816856Y-11301515D02*
X18807332Y-11311039D01*
X18807332Y-11311039D02*
X18788284Y-11320562D01*
X18788284Y-11320562D02*
X18759713Y-11320562D01*
X18940665Y-11320562D02*
X18921618Y-11311039D01*
X18921618Y-11311039D02*
X18912094Y-11291991D01*
X18912094Y-11291991D02*
X18912094Y-11120562D01*
X19093046Y-11311039D02*
X19073999Y-11320562D01*
X19073999Y-11320562D02*
X19035903Y-11320562D01*
X19035903Y-11320562D02*
X19016856Y-11311039D01*
X19016856Y-11311039D02*
X19007332Y-11291991D01*
X19007332Y-11291991D02*
X19007332Y-11215800D01*
X19007332Y-11215800D02*
X19016856Y-11196753D01*
X19016856Y-11196753D02*
X19035903Y-11187229D01*
X19035903Y-11187229D02*
X19073999Y-11187229D01*
X19073999Y-11187229D02*
X19093046Y-11196753D01*
X19093046Y-11196753D02*
X19102570Y-11215800D01*
X19102570Y-11215800D02*
X19102570Y-11234848D01*
X19102570Y-11234848D02*
X19007332Y-11253896D01*
X19169237Y-11396753D02*
X19178761Y-11387229D01*
X19178761Y-11387229D02*
X19197808Y-11358658D01*
X19197808Y-11358658D02*
X19207332Y-11339610D01*
X19207332Y-11339610D02*
X19216856Y-11311039D01*
X19216856Y-11311039D02*
X19226380Y-11263419D01*
X19226380Y-11263419D02*
X19226380Y-11225324D01*
X19226380Y-11225324D02*
X19216856Y-11177705D01*
X19216856Y-11177705D02*
X19207332Y-11149134D01*
X19207332Y-11149134D02*
X19197808Y-11130086D01*
X19197808Y-11130086D02*
X19178761Y-11101515D01*
X19178761Y-11101515D02*
X19169237Y-11091991D01*
D12*
X14543777Y-11522777D02*
X14543777Y-11463380D01*
X14484380Y-11463380D01*
X14484380Y-11522777D01*
X14543777Y-11522777D01*
D11*
X14854951Y-11384562D02*
X14873998Y-11384562D01*
X14873998Y-11384562D02*
X14893046Y-11394086D01*
X14893046Y-11394086D02*
X14902570Y-11403610D01*
X14902570Y-11403610D02*
X14912093Y-11422658D01*
X14912093Y-11422658D02*
X14921617Y-11460753D01*
X14921617Y-11460753D02*
X14921617Y-11508372D01*
X14921617Y-11508372D02*
X14912093Y-11546467D01*
X14912093Y-11546467D02*
X14902570Y-11565515D01*
X14902570Y-11565515D02*
X14893046Y-11575039D01*
X14893046Y-11575039D02*
X14873998Y-11584562D01*
X14873998Y-11584562D02*
X14854951Y-11584562D01*
X14854951Y-11584562D02*
X14835903Y-11575039D01*
X14835903Y-11575039D02*
X14826379Y-11565515D01*
X14826379Y-11565515D02*
X14816855Y-11546467D01*
X14816855Y-11546467D02*
X14807332Y-11508372D01*
X14807332Y-11508372D02*
X14807332Y-11460753D01*
X14807332Y-11460753D02*
X14816855Y-11422658D01*
X14816855Y-11422658D02*
X14826379Y-11403610D01*
X14826379Y-11403610D02*
X14835903Y-11394086D01*
X14835903Y-11394086D02*
X14854951Y-11384562D01*
X15007332Y-11565515D02*
X15016855Y-11575039D01*
X15016855Y-11575039D02*
X15007332Y-11584562D01*
X15007332Y-11584562D02*
X14997808Y-11575039D01*
X14997808Y-11575039D02*
X15007332Y-11565515D01*
X15007332Y-11565515D02*
X15007332Y-11584562D01*
X15131141Y-11470277D02*
X15112093Y-11460753D01*
X15112093Y-11460753D02*
X15102570Y-11451229D01*
X15102570Y-11451229D02*
X15093046Y-11432181D01*
X15093046Y-11432181D02*
X15093046Y-11422658D01*
X15093046Y-11422658D02*
X15102570Y-11403610D01*
X15102570Y-11403610D02*
X15112093Y-11394086D01*
X15112093Y-11394086D02*
X15131141Y-11384562D01*
X15131141Y-11384562D02*
X15169236Y-11384562D01*
X15169236Y-11384562D02*
X15188284Y-11394086D01*
X15188284Y-11394086D02*
X15197808Y-11403610D01*
X15197808Y-11403610D02*
X15207332Y-11422658D01*
X15207332Y-11422658D02*
X15207332Y-11432181D01*
X15207332Y-11432181D02*
X15197808Y-11451229D01*
X15197808Y-11451229D02*
X15188284Y-11460753D01*
X15188284Y-11460753D02*
X15169236Y-11470277D01*
X15169236Y-11470277D02*
X15131141Y-11470277D01*
X15131141Y-11470277D02*
X15112093Y-11479800D01*
X15112093Y-11479800D02*
X15102570Y-11489324D01*
X15102570Y-11489324D02*
X15093046Y-11508372D01*
X15093046Y-11508372D02*
X15093046Y-11546467D01*
X15093046Y-11546467D02*
X15102570Y-11565515D01*
X15102570Y-11565515D02*
X15112093Y-11575039D01*
X15112093Y-11575039D02*
X15131141Y-11584562D01*
X15131141Y-11584562D02*
X15169236Y-11584562D01*
X15169236Y-11584562D02*
X15188284Y-11575039D01*
X15188284Y-11575039D02*
X15197808Y-11565515D01*
X15197808Y-11565515D02*
X15207332Y-11546467D01*
X15207332Y-11546467D02*
X15207332Y-11508372D01*
X15207332Y-11508372D02*
X15197808Y-11489324D01*
X15197808Y-11489324D02*
X15188284Y-11479800D01*
X15188284Y-11479800D02*
X15169236Y-11470277D01*
X15378760Y-11451229D02*
X15378760Y-11584562D01*
X15331141Y-11375039D02*
X15283522Y-11517896D01*
X15283522Y-11517896D02*
X15407332Y-11517896D01*
X15521617Y-11384562D02*
X15540665Y-11384562D01*
X15540665Y-11384562D02*
X15559713Y-11394086D01*
X15559713Y-11394086D02*
X15569236Y-11403610D01*
X15569236Y-11403610D02*
X15578760Y-11422658D01*
X15578760Y-11422658D02*
X15588284Y-11460753D01*
X15588284Y-11460753D02*
X15588284Y-11508372D01*
X15588284Y-11508372D02*
X15578760Y-11546467D01*
X15578760Y-11546467D02*
X15569236Y-11565515D01*
X15569236Y-11565515D02*
X15559713Y-11575039D01*
X15559713Y-11575039D02*
X15540665Y-11584562D01*
X15540665Y-11584562D02*
X15521617Y-11584562D01*
X15521617Y-11584562D02*
X15502570Y-11575039D01*
X15502570Y-11575039D02*
X15493046Y-11565515D01*
X15493046Y-11565515D02*
X15483522Y-11546467D01*
X15483522Y-11546467D02*
X15473998Y-11508372D01*
X15473998Y-11508372D02*
X15473998Y-11460753D01*
X15473998Y-11460753D02*
X15483522Y-11422658D01*
X15483522Y-11422658D02*
X15493046Y-11403610D01*
X15493046Y-11403610D02*
X15502570Y-11394086D01*
X15502570Y-11394086D02*
X15521617Y-11384562D01*
X15673998Y-11584562D02*
X15673998Y-11451229D01*
X15673998Y-11470277D02*
X15683522Y-11460753D01*
X15683522Y-11460753D02*
X15702570Y-11451229D01*
X15702570Y-11451229D02*
X15731141Y-11451229D01*
X15731141Y-11451229D02*
X15750189Y-11460753D01*
X15750189Y-11460753D02*
X15759713Y-11479800D01*
X15759713Y-11479800D02*
X15759713Y-11584562D01*
X15759713Y-11479800D02*
X15769236Y-11460753D01*
X15769236Y-11460753D02*
X15788284Y-11451229D01*
X15788284Y-11451229D02*
X15816855Y-11451229D01*
X15816855Y-11451229D02*
X15835903Y-11460753D01*
X15835903Y-11460753D02*
X15845427Y-11479800D01*
X15845427Y-11479800D02*
X15845427Y-11584562D01*
X15940665Y-11584562D02*
X15940665Y-11451229D01*
X15940665Y-11470277D02*
X15950189Y-11460753D01*
X15950189Y-11460753D02*
X15969236Y-11451229D01*
X15969236Y-11451229D02*
X15997808Y-11451229D01*
X15997808Y-11451229D02*
X16016855Y-11460753D01*
X16016855Y-11460753D02*
X16026379Y-11479800D01*
X16026379Y-11479800D02*
X16026379Y-11584562D01*
X16026379Y-11479800D02*
X16035903Y-11460753D01*
X16035903Y-11460753D02*
X16054951Y-11451229D01*
X16054951Y-11451229D02*
X16083522Y-11451229D01*
X16083522Y-11451229D02*
X16102570Y-11460753D01*
X16102570Y-11460753D02*
X16112094Y-11479800D01*
X16112094Y-11479800D02*
X16112094Y-11584562D01*
X16502570Y-11375039D02*
X16331141Y-11632181D01*
X16759713Y-11384562D02*
X16778760Y-11384562D01*
X16778760Y-11384562D02*
X16797808Y-11394086D01*
X16797808Y-11394086D02*
X16807332Y-11403610D01*
X16807332Y-11403610D02*
X16816856Y-11422658D01*
X16816856Y-11422658D02*
X16826379Y-11460753D01*
X16826379Y-11460753D02*
X16826379Y-11508372D01*
X16826379Y-11508372D02*
X16816856Y-11546467D01*
X16816856Y-11546467D02*
X16807332Y-11565515D01*
X16807332Y-11565515D02*
X16797808Y-11575039D01*
X16797808Y-11575039D02*
X16778760Y-11584562D01*
X16778760Y-11584562D02*
X16759713Y-11584562D01*
X16759713Y-11584562D02*
X16740665Y-11575039D01*
X16740665Y-11575039D02*
X16731141Y-11565515D01*
X16731141Y-11565515D02*
X16721617Y-11546467D01*
X16721617Y-11546467D02*
X16712094Y-11508372D01*
X16712094Y-11508372D02*
X16712094Y-11460753D01*
X16712094Y-11460753D02*
X16721617Y-11422658D01*
X16721617Y-11422658D02*
X16731141Y-11403610D01*
X16731141Y-11403610D02*
X16740665Y-11394086D01*
X16740665Y-11394086D02*
X16759713Y-11384562D01*
X16912094Y-11565515D02*
X16921618Y-11575039D01*
X16921618Y-11575039D02*
X16912094Y-11584562D01*
X16912094Y-11584562D02*
X16902570Y-11575039D01*
X16902570Y-11575039D02*
X16912094Y-11565515D01*
X16912094Y-11565515D02*
X16912094Y-11584562D01*
X17045427Y-11384562D02*
X17064475Y-11384562D01*
X17064475Y-11384562D02*
X17083522Y-11394086D01*
X17083522Y-11394086D02*
X17093046Y-11403610D01*
X17093046Y-11403610D02*
X17102570Y-11422658D01*
X17102570Y-11422658D02*
X17112094Y-11460753D01*
X17112094Y-11460753D02*
X17112094Y-11508372D01*
X17112094Y-11508372D02*
X17102570Y-11546467D01*
X17102570Y-11546467D02*
X17093046Y-11565515D01*
X17093046Y-11565515D02*
X17083522Y-11575039D01*
X17083522Y-11575039D02*
X17064475Y-11584562D01*
X17064475Y-11584562D02*
X17045427Y-11584562D01*
X17045427Y-11584562D02*
X17026379Y-11575039D01*
X17026379Y-11575039D02*
X17016856Y-11565515D01*
X17016856Y-11565515D02*
X17007332Y-11546467D01*
X17007332Y-11546467D02*
X16997808Y-11508372D01*
X16997808Y-11508372D02*
X16997808Y-11460753D01*
X16997808Y-11460753D02*
X17007332Y-11422658D01*
X17007332Y-11422658D02*
X17016856Y-11403610D01*
X17016856Y-11403610D02*
X17026379Y-11394086D01*
X17026379Y-11394086D02*
X17045427Y-11384562D01*
X17178760Y-11384562D02*
X17302570Y-11384562D01*
X17302570Y-11384562D02*
X17235903Y-11460753D01*
X17235903Y-11460753D02*
X17264475Y-11460753D01*
X17264475Y-11460753D02*
X17283522Y-11470277D01*
X17283522Y-11470277D02*
X17293046Y-11479800D01*
X17293046Y-11479800D02*
X17302570Y-11498848D01*
X17302570Y-11498848D02*
X17302570Y-11546467D01*
X17302570Y-11546467D02*
X17293046Y-11565515D01*
X17293046Y-11565515D02*
X17283522Y-11575039D01*
X17283522Y-11575039D02*
X17264475Y-11584562D01*
X17264475Y-11584562D02*
X17207332Y-11584562D01*
X17207332Y-11584562D02*
X17188284Y-11575039D01*
X17188284Y-11575039D02*
X17178760Y-11565515D01*
X17369237Y-11384562D02*
X17493046Y-11384562D01*
X17493046Y-11384562D02*
X17426379Y-11460753D01*
X17426379Y-11460753D02*
X17454951Y-11460753D01*
X17454951Y-11460753D02*
X17473999Y-11470277D01*
X17473999Y-11470277D02*
X17483522Y-11479800D01*
X17483522Y-11479800D02*
X17493046Y-11498848D01*
X17493046Y-11498848D02*
X17493046Y-11546467D01*
X17493046Y-11546467D02*
X17483522Y-11565515D01*
X17483522Y-11565515D02*
X17473999Y-11575039D01*
X17473999Y-11575039D02*
X17454951Y-11584562D01*
X17454951Y-11584562D02*
X17397808Y-11584562D01*
X17397808Y-11584562D02*
X17378760Y-11575039D01*
X17378760Y-11575039D02*
X17369237Y-11565515D01*
X17683522Y-11584562D02*
X17569237Y-11584562D01*
X17626379Y-11584562D02*
X17626379Y-11384562D01*
X17626379Y-11384562D02*
X17607332Y-11413134D01*
X17607332Y-11413134D02*
X17588284Y-11432181D01*
X17588284Y-11432181D02*
X17569237Y-11441705D01*
X17759713Y-11384562D02*
X17759713Y-11422658D01*
X17835903Y-11384562D02*
X17835903Y-11422658D01*
X18131142Y-11660753D02*
X18121618Y-11651229D01*
X18121618Y-11651229D02*
X18102570Y-11622658D01*
X18102570Y-11622658D02*
X18093046Y-11603610D01*
X18093046Y-11603610D02*
X18083522Y-11575039D01*
X18083522Y-11575039D02*
X18073999Y-11527419D01*
X18073999Y-11527419D02*
X18073999Y-11489324D01*
X18073999Y-11489324D02*
X18083522Y-11441705D01*
X18083522Y-11441705D02*
X18093046Y-11413134D01*
X18093046Y-11413134D02*
X18102570Y-11394086D01*
X18102570Y-11394086D02*
X18121618Y-11365515D01*
X18121618Y-11365515D02*
X18131142Y-11355991D01*
X18312094Y-11584562D02*
X18197808Y-11584562D01*
X18254951Y-11584562D02*
X18254951Y-11384562D01*
X18254951Y-11384562D02*
X18235903Y-11413134D01*
X18235903Y-11413134D02*
X18216856Y-11432181D01*
X18216856Y-11432181D02*
X18197808Y-11441705D01*
X18483522Y-11384562D02*
X18445427Y-11384562D01*
X18445427Y-11384562D02*
X18426380Y-11394086D01*
X18426380Y-11394086D02*
X18416856Y-11403610D01*
X18416856Y-11403610D02*
X18397808Y-11432181D01*
X18397808Y-11432181D02*
X18388284Y-11470277D01*
X18388284Y-11470277D02*
X18388284Y-11546467D01*
X18388284Y-11546467D02*
X18397808Y-11565515D01*
X18397808Y-11565515D02*
X18407332Y-11575039D01*
X18407332Y-11575039D02*
X18426380Y-11584562D01*
X18426380Y-11584562D02*
X18464475Y-11584562D01*
X18464475Y-11584562D02*
X18483522Y-11575039D01*
X18483522Y-11575039D02*
X18493046Y-11565515D01*
X18493046Y-11565515D02*
X18502570Y-11546467D01*
X18502570Y-11546467D02*
X18502570Y-11498848D01*
X18502570Y-11498848D02*
X18493046Y-11479800D01*
X18493046Y-11479800D02*
X18483522Y-11470277D01*
X18483522Y-11470277D02*
X18464475Y-11460753D01*
X18464475Y-11460753D02*
X18426380Y-11460753D01*
X18426380Y-11460753D02*
X18407332Y-11470277D01*
X18407332Y-11470277D02*
X18397808Y-11479800D01*
X18397808Y-11479800D02*
X18388284Y-11498848D01*
X18740665Y-11584562D02*
X18740665Y-11384562D01*
X18826380Y-11584562D02*
X18826380Y-11479800D01*
X18826380Y-11479800D02*
X18816856Y-11460753D01*
X18816856Y-11460753D02*
X18797808Y-11451229D01*
X18797808Y-11451229D02*
X18769237Y-11451229D01*
X18769237Y-11451229D02*
X18750189Y-11460753D01*
X18750189Y-11460753D02*
X18740665Y-11470277D01*
X18950189Y-11584562D02*
X18931142Y-11575039D01*
X18931142Y-11575039D02*
X18921618Y-11565515D01*
X18921618Y-11565515D02*
X18912094Y-11546467D01*
X18912094Y-11546467D02*
X18912094Y-11489324D01*
X18912094Y-11489324D02*
X18921618Y-11470277D01*
X18921618Y-11470277D02*
X18931142Y-11460753D01*
X18931142Y-11460753D02*
X18950189Y-11451229D01*
X18950189Y-11451229D02*
X18978761Y-11451229D01*
X18978761Y-11451229D02*
X18997808Y-11460753D01*
X18997808Y-11460753D02*
X19007332Y-11470277D01*
X19007332Y-11470277D02*
X19016856Y-11489324D01*
X19016856Y-11489324D02*
X19016856Y-11546467D01*
X19016856Y-11546467D02*
X19007332Y-11565515D01*
X19007332Y-11565515D02*
X18997808Y-11575039D01*
X18997808Y-11575039D02*
X18978761Y-11584562D01*
X18978761Y-11584562D02*
X18950189Y-11584562D01*
X19131142Y-11584562D02*
X19112094Y-11575039D01*
X19112094Y-11575039D02*
X19102570Y-11555991D01*
X19102570Y-11555991D02*
X19102570Y-11384562D01*
X19283523Y-11575039D02*
X19264475Y-11584562D01*
X19264475Y-11584562D02*
X19226380Y-11584562D01*
X19226380Y-11584562D02*
X19207332Y-11575039D01*
X19207332Y-11575039D02*
X19197808Y-11555991D01*
X19197808Y-11555991D02*
X19197808Y-11479800D01*
X19197808Y-11479800D02*
X19207332Y-11460753D01*
X19207332Y-11460753D02*
X19226380Y-11451229D01*
X19226380Y-11451229D02*
X19264475Y-11451229D01*
X19264475Y-11451229D02*
X19283523Y-11460753D01*
X19283523Y-11460753D02*
X19293046Y-11479800D01*
X19293046Y-11479800D02*
X19293046Y-11498848D01*
X19293046Y-11498848D02*
X19197808Y-11517896D01*
X19369237Y-11575039D02*
X19388284Y-11584562D01*
X19388284Y-11584562D02*
X19426380Y-11584562D01*
X19426380Y-11584562D02*
X19445427Y-11575039D01*
X19445427Y-11575039D02*
X19454951Y-11555991D01*
X19454951Y-11555991D02*
X19454951Y-11546467D01*
X19454951Y-11546467D02*
X19445427Y-11527419D01*
X19445427Y-11527419D02*
X19426380Y-11517896D01*
X19426380Y-11517896D02*
X19397808Y-11517896D01*
X19397808Y-11517896D02*
X19378761Y-11508372D01*
X19378761Y-11508372D02*
X19369237Y-11489324D01*
X19369237Y-11489324D02*
X19369237Y-11479800D01*
X19369237Y-11479800D02*
X19378761Y-11460753D01*
X19378761Y-11460753D02*
X19397808Y-11451229D01*
X19397808Y-11451229D02*
X19426380Y-11451229D01*
X19426380Y-11451229D02*
X19445427Y-11460753D01*
X19521618Y-11660753D02*
X19531142Y-11651229D01*
X19531142Y-11651229D02*
X19550189Y-11622658D01*
X19550189Y-11622658D02*
X19559713Y-11603610D01*
X19559713Y-11603610D02*
X19569237Y-11575039D01*
X19569237Y-11575039D02*
X19578761Y-11527419D01*
X19578761Y-11527419D02*
X19578761Y-11489324D01*
X19578761Y-11489324D02*
X19569237Y-11441705D01*
X19569237Y-11441705D02*
X19559713Y-11413134D01*
X19559713Y-11413134D02*
X19550189Y-11394086D01*
X19550189Y-11394086D02*
X19531142Y-11365515D01*
X19531142Y-11365515D02*
X19521618Y-11355991D01*
X14456079Y-11857079D02*
X14556079Y-11757079D01*
X14456079Y-11657079D01*
X14356079Y-11757079D01*
X14456079Y-11857079D01*
X14807332Y-11667610D02*
X14816855Y-11658086D01*
X14816855Y-11658086D02*
X14835903Y-11648562D01*
X14835903Y-11648562D02*
X14883522Y-11648562D01*
X14883522Y-11648562D02*
X14902570Y-11658086D01*
X14902570Y-11658086D02*
X14912093Y-11667610D01*
X14912093Y-11667610D02*
X14921617Y-11686658D01*
X14921617Y-11686658D02*
X14921617Y-11705705D01*
X14921617Y-11705705D02*
X14912093Y-11734277D01*
X14912093Y-11734277D02*
X14797808Y-11848562D01*
X14797808Y-11848562D02*
X14921617Y-11848562D01*
X15007332Y-11829515D02*
X15016855Y-11839039D01*
X15016855Y-11839039D02*
X15007332Y-11848562D01*
X15007332Y-11848562D02*
X14997808Y-11839039D01*
X14997808Y-11839039D02*
X15007332Y-11829515D01*
X15007332Y-11829515D02*
X15007332Y-11848562D01*
X15083522Y-11648562D02*
X15216855Y-11648562D01*
X15216855Y-11648562D02*
X15131141Y-11848562D01*
X15331141Y-11648562D02*
X15350189Y-11648562D01*
X15350189Y-11648562D02*
X15369236Y-11658086D01*
X15369236Y-11658086D02*
X15378760Y-11667610D01*
X15378760Y-11667610D02*
X15388284Y-11686658D01*
X15388284Y-11686658D02*
X15397808Y-11724753D01*
X15397808Y-11724753D02*
X15397808Y-11772372D01*
X15397808Y-11772372D02*
X15388284Y-11810467D01*
X15388284Y-11810467D02*
X15378760Y-11829515D01*
X15378760Y-11829515D02*
X15369236Y-11839039D01*
X15369236Y-11839039D02*
X15350189Y-11848562D01*
X15350189Y-11848562D02*
X15331141Y-11848562D01*
X15331141Y-11848562D02*
X15312093Y-11839039D01*
X15312093Y-11839039D02*
X15302570Y-11829515D01*
X15302570Y-11829515D02*
X15293046Y-11810467D01*
X15293046Y-11810467D02*
X15283522Y-11772372D01*
X15283522Y-11772372D02*
X15283522Y-11724753D01*
X15283522Y-11724753D02*
X15293046Y-11686658D01*
X15293046Y-11686658D02*
X15302570Y-11667610D01*
X15302570Y-11667610D02*
X15312093Y-11658086D01*
X15312093Y-11658086D02*
X15331141Y-11648562D01*
X15521617Y-11648562D02*
X15540665Y-11648562D01*
X15540665Y-11648562D02*
X15559713Y-11658086D01*
X15559713Y-11658086D02*
X15569236Y-11667610D01*
X15569236Y-11667610D02*
X15578760Y-11686658D01*
X15578760Y-11686658D02*
X15588284Y-11724753D01*
X15588284Y-11724753D02*
X15588284Y-11772372D01*
X15588284Y-11772372D02*
X15578760Y-11810467D01*
X15578760Y-11810467D02*
X15569236Y-11829515D01*
X15569236Y-11829515D02*
X15559713Y-11839039D01*
X15559713Y-11839039D02*
X15540665Y-11848562D01*
X15540665Y-11848562D02*
X15521617Y-11848562D01*
X15521617Y-11848562D02*
X15502570Y-11839039D01*
X15502570Y-11839039D02*
X15493046Y-11829515D01*
X15493046Y-11829515D02*
X15483522Y-11810467D01*
X15483522Y-11810467D02*
X15473998Y-11772372D01*
X15473998Y-11772372D02*
X15473998Y-11724753D01*
X15473998Y-11724753D02*
X15483522Y-11686658D01*
X15483522Y-11686658D02*
X15493046Y-11667610D01*
X15493046Y-11667610D02*
X15502570Y-11658086D01*
X15502570Y-11658086D02*
X15521617Y-11648562D01*
X15673998Y-11848562D02*
X15673998Y-11715229D01*
X15673998Y-11734277D02*
X15683522Y-11724753D01*
X15683522Y-11724753D02*
X15702570Y-11715229D01*
X15702570Y-11715229D02*
X15731141Y-11715229D01*
X15731141Y-11715229D02*
X15750189Y-11724753D01*
X15750189Y-11724753D02*
X15759713Y-11743800D01*
X15759713Y-11743800D02*
X15759713Y-11848562D01*
X15759713Y-11743800D02*
X15769236Y-11724753D01*
X15769236Y-11724753D02*
X15788284Y-11715229D01*
X15788284Y-11715229D02*
X15816855Y-11715229D01*
X15816855Y-11715229D02*
X15835903Y-11724753D01*
X15835903Y-11724753D02*
X15845427Y-11743800D01*
X15845427Y-11743800D02*
X15845427Y-11848562D01*
X15940665Y-11848562D02*
X15940665Y-11715229D01*
X15940665Y-11734277D02*
X15950189Y-11724753D01*
X15950189Y-11724753D02*
X15969236Y-11715229D01*
X15969236Y-11715229D02*
X15997808Y-11715229D01*
X15997808Y-11715229D02*
X16016855Y-11724753D01*
X16016855Y-11724753D02*
X16026379Y-11743800D01*
X16026379Y-11743800D02*
X16026379Y-11848562D01*
X16026379Y-11743800D02*
X16035903Y-11724753D01*
X16035903Y-11724753D02*
X16054951Y-11715229D01*
X16054951Y-11715229D02*
X16083522Y-11715229D01*
X16083522Y-11715229D02*
X16102570Y-11724753D01*
X16102570Y-11724753D02*
X16112094Y-11743800D01*
X16112094Y-11743800D02*
X16112094Y-11848562D01*
X16502570Y-11639039D02*
X16331141Y-11896181D01*
X16759713Y-11648562D02*
X16778760Y-11648562D01*
X16778760Y-11648562D02*
X16797808Y-11658086D01*
X16797808Y-11658086D02*
X16807332Y-11667610D01*
X16807332Y-11667610D02*
X16816856Y-11686658D01*
X16816856Y-11686658D02*
X16826379Y-11724753D01*
X16826379Y-11724753D02*
X16826379Y-11772372D01*
X16826379Y-11772372D02*
X16816856Y-11810467D01*
X16816856Y-11810467D02*
X16807332Y-11829515D01*
X16807332Y-11829515D02*
X16797808Y-11839039D01*
X16797808Y-11839039D02*
X16778760Y-11848562D01*
X16778760Y-11848562D02*
X16759713Y-11848562D01*
X16759713Y-11848562D02*
X16740665Y-11839039D01*
X16740665Y-11839039D02*
X16731141Y-11829515D01*
X16731141Y-11829515D02*
X16721617Y-11810467D01*
X16721617Y-11810467D02*
X16712094Y-11772372D01*
X16712094Y-11772372D02*
X16712094Y-11724753D01*
X16712094Y-11724753D02*
X16721617Y-11686658D01*
X16721617Y-11686658D02*
X16731141Y-11667610D01*
X16731141Y-11667610D02*
X16740665Y-11658086D01*
X16740665Y-11658086D02*
X16759713Y-11648562D01*
X16912094Y-11829515D02*
X16921618Y-11839039D01*
X16921618Y-11839039D02*
X16912094Y-11848562D01*
X16912094Y-11848562D02*
X16902570Y-11839039D01*
X16902570Y-11839039D02*
X16912094Y-11829515D01*
X16912094Y-11829515D02*
X16912094Y-11848562D01*
X17112094Y-11848562D02*
X16997808Y-11848562D01*
X17054951Y-11848562D02*
X17054951Y-11648562D01*
X17054951Y-11648562D02*
X17035903Y-11677134D01*
X17035903Y-11677134D02*
X17016856Y-11696181D01*
X17016856Y-11696181D02*
X16997808Y-11705705D01*
X17235903Y-11648562D02*
X17254951Y-11648562D01*
X17254951Y-11648562D02*
X17273999Y-11658086D01*
X17273999Y-11658086D02*
X17283522Y-11667610D01*
X17283522Y-11667610D02*
X17293046Y-11686658D01*
X17293046Y-11686658D02*
X17302570Y-11724753D01*
X17302570Y-11724753D02*
X17302570Y-11772372D01*
X17302570Y-11772372D02*
X17293046Y-11810467D01*
X17293046Y-11810467D02*
X17283522Y-11829515D01*
X17283522Y-11829515D02*
X17273999Y-11839039D01*
X17273999Y-11839039D02*
X17254951Y-11848562D01*
X17254951Y-11848562D02*
X17235903Y-11848562D01*
X17235903Y-11848562D02*
X17216856Y-11839039D01*
X17216856Y-11839039D02*
X17207332Y-11829515D01*
X17207332Y-11829515D02*
X17197808Y-11810467D01*
X17197808Y-11810467D02*
X17188284Y-11772372D01*
X17188284Y-11772372D02*
X17188284Y-11724753D01*
X17188284Y-11724753D02*
X17197808Y-11686658D01*
X17197808Y-11686658D02*
X17207332Y-11667610D01*
X17207332Y-11667610D02*
X17216856Y-11658086D01*
X17216856Y-11658086D02*
X17235903Y-11648562D01*
X17473999Y-11648562D02*
X17435903Y-11648562D01*
X17435903Y-11648562D02*
X17416856Y-11658086D01*
X17416856Y-11658086D02*
X17407332Y-11667610D01*
X17407332Y-11667610D02*
X17388284Y-11696181D01*
X17388284Y-11696181D02*
X17378760Y-11734277D01*
X17378760Y-11734277D02*
X17378760Y-11810467D01*
X17378760Y-11810467D02*
X17388284Y-11829515D01*
X17388284Y-11829515D02*
X17397808Y-11839039D01*
X17397808Y-11839039D02*
X17416856Y-11848562D01*
X17416856Y-11848562D02*
X17454951Y-11848562D01*
X17454951Y-11848562D02*
X17473999Y-11839039D01*
X17473999Y-11839039D02*
X17483522Y-11829515D01*
X17483522Y-11829515D02*
X17493046Y-11810467D01*
X17493046Y-11810467D02*
X17493046Y-11762848D01*
X17493046Y-11762848D02*
X17483522Y-11743800D01*
X17483522Y-11743800D02*
X17473999Y-11734277D01*
X17473999Y-11734277D02*
X17454951Y-11724753D01*
X17454951Y-11724753D02*
X17416856Y-11724753D01*
X17416856Y-11724753D02*
X17397808Y-11734277D01*
X17397808Y-11734277D02*
X17388284Y-11743800D01*
X17388284Y-11743800D02*
X17378760Y-11762848D01*
X17559713Y-11648562D02*
X17683522Y-11648562D01*
X17683522Y-11648562D02*
X17616856Y-11724753D01*
X17616856Y-11724753D02*
X17645427Y-11724753D01*
X17645427Y-11724753D02*
X17664475Y-11734277D01*
X17664475Y-11734277D02*
X17673999Y-11743800D01*
X17673999Y-11743800D02*
X17683522Y-11762848D01*
X17683522Y-11762848D02*
X17683522Y-11810467D01*
X17683522Y-11810467D02*
X17673999Y-11829515D01*
X17673999Y-11829515D02*
X17664475Y-11839039D01*
X17664475Y-11839039D02*
X17645427Y-11848562D01*
X17645427Y-11848562D02*
X17588284Y-11848562D01*
X17588284Y-11848562D02*
X17569237Y-11839039D01*
X17569237Y-11839039D02*
X17559713Y-11829515D01*
X17759713Y-11648562D02*
X17759713Y-11686658D01*
X17835903Y-11648562D02*
X17835903Y-11686658D01*
X18131142Y-11924753D02*
X18121618Y-11915229D01*
X18121618Y-11915229D02*
X18102570Y-11886658D01*
X18102570Y-11886658D02*
X18093046Y-11867610D01*
X18093046Y-11867610D02*
X18083522Y-11839039D01*
X18083522Y-11839039D02*
X18073999Y-11791419D01*
X18073999Y-11791419D02*
X18073999Y-11753324D01*
X18073999Y-11753324D02*
X18083522Y-11705705D01*
X18083522Y-11705705D02*
X18093046Y-11677134D01*
X18093046Y-11677134D02*
X18102570Y-11658086D01*
X18102570Y-11658086D02*
X18121618Y-11629515D01*
X18121618Y-11629515D02*
X18131142Y-11619991D01*
X18293046Y-11715229D02*
X18293046Y-11848562D01*
X18245427Y-11639039D02*
X18197808Y-11781896D01*
X18197808Y-11781896D02*
X18321618Y-11781896D01*
X18550189Y-11848562D02*
X18550189Y-11648562D01*
X18635903Y-11848562D02*
X18635903Y-11743800D01*
X18635903Y-11743800D02*
X18626380Y-11724753D01*
X18626380Y-11724753D02*
X18607332Y-11715229D01*
X18607332Y-11715229D02*
X18578761Y-11715229D01*
X18578761Y-11715229D02*
X18559713Y-11724753D01*
X18559713Y-11724753D02*
X18550189Y-11734277D01*
X18759713Y-11848562D02*
X18740665Y-11839039D01*
X18740665Y-11839039D02*
X18731142Y-11829515D01*
X18731142Y-11829515D02*
X18721618Y-11810467D01*
X18721618Y-11810467D02*
X18721618Y-11753324D01*
X18721618Y-11753324D02*
X18731142Y-11734277D01*
X18731142Y-11734277D02*
X18740665Y-11724753D01*
X18740665Y-11724753D02*
X18759713Y-11715229D01*
X18759713Y-11715229D02*
X18788284Y-11715229D01*
X18788284Y-11715229D02*
X18807332Y-11724753D01*
X18807332Y-11724753D02*
X18816856Y-11734277D01*
X18816856Y-11734277D02*
X18826380Y-11753324D01*
X18826380Y-11753324D02*
X18826380Y-11810467D01*
X18826380Y-11810467D02*
X18816856Y-11829515D01*
X18816856Y-11829515D02*
X18807332Y-11839039D01*
X18807332Y-11839039D02*
X18788284Y-11848562D01*
X18788284Y-11848562D02*
X18759713Y-11848562D01*
X18940665Y-11848562D02*
X18921618Y-11839039D01*
X18921618Y-11839039D02*
X18912094Y-11819991D01*
X18912094Y-11819991D02*
X18912094Y-11648562D01*
X19093046Y-11839039D02*
X19073999Y-11848562D01*
X19073999Y-11848562D02*
X19035903Y-11848562D01*
X19035903Y-11848562D02*
X19016856Y-11839039D01*
X19016856Y-11839039D02*
X19007332Y-11819991D01*
X19007332Y-11819991D02*
X19007332Y-11743800D01*
X19007332Y-11743800D02*
X19016856Y-11724753D01*
X19016856Y-11724753D02*
X19035903Y-11715229D01*
X19035903Y-11715229D02*
X19073999Y-11715229D01*
X19073999Y-11715229D02*
X19093046Y-11724753D01*
X19093046Y-11724753D02*
X19102570Y-11743800D01*
X19102570Y-11743800D02*
X19102570Y-11762848D01*
X19102570Y-11762848D02*
X19007332Y-11781896D01*
X19178761Y-11839039D02*
X19197808Y-11848562D01*
X19197808Y-11848562D02*
X19235903Y-11848562D01*
X19235903Y-11848562D02*
X19254951Y-11839039D01*
X19254951Y-11839039D02*
X19264475Y-11819991D01*
X19264475Y-11819991D02*
X19264475Y-11810467D01*
X19264475Y-11810467D02*
X19254951Y-11791419D01*
X19254951Y-11791419D02*
X19235903Y-11781896D01*
X19235903Y-11781896D02*
X19207332Y-11781896D01*
X19207332Y-11781896D02*
X19188284Y-11772372D01*
X19188284Y-11772372D02*
X19178761Y-11753324D01*
X19178761Y-11753324D02*
X19178761Y-11743800D01*
X19178761Y-11743800D02*
X19188284Y-11724753D01*
X19188284Y-11724753D02*
X19207332Y-11715229D01*
X19207332Y-11715229D02*
X19235903Y-11715229D01*
X19235903Y-11715229D02*
X19254951Y-11724753D01*
X19331142Y-11924753D02*
X19340665Y-11915229D01*
X19340665Y-11915229D02*
X19359713Y-11886658D01*
X19359713Y-11886658D02*
X19369237Y-11867610D01*
X19369237Y-11867610D02*
X19378761Y-11839039D01*
X19378761Y-11839039D02*
X19388284Y-11791419D01*
X19388284Y-11791419D02*
X19388284Y-11753324D01*
X19388284Y-11753324D02*
X19378761Y-11705705D01*
X19378761Y-11705705D02*
X19369237Y-11677134D01*
X19369237Y-11677134D02*
X19359713Y-11658086D01*
X19359713Y-11658086D02*
X19340665Y-11629515D01*
X19340665Y-11629515D02*
X19331142Y-11619991D01*
M02*
