%TF.GenerationSoftware,KiCad,Pcbnew,9.0.7*%
%TF.CreationDate,2026-03-22T11:42:43+07:00*%
%TF.ProjectId,aqm_sensor,61716d5f-7365-46e7-936f-722e6b696361,rev?*%
%TF.SameCoordinates,Original*%
%TF.FileFunction,Plated,1,2,PTH,Drill*%
%TF.FilePolarity,Positive*%
%FSLAX46Y46*%
G04 Gerber Fmt 4.6, Leading zero omitted, Abs format (unit mm)*
G04 Created by KiCad (PCBNEW 9.0.7) date 2026-03-22 11:42:43*
%MOMM*%
%LPD*%
G01*
G04 APERTURE LIST*
%TA.AperFunction,ViaDrill*%
%ADD10C,0.300000*%
%TD*%
%TA.AperFunction,ComponentDrill*%
%ADD11C,0.500000*%
%TD*%
%TA.AperFunction,ComponentDrill*%
%ADD12C,0.599999*%
%TD*%
%TA.AperFunction,ComponentDrill*%
%ADD13C,0.840000*%
%TD*%
%TA.AperFunction,ComponentDrill*%
%ADD14C,1.000000*%
%TD*%
%TA.AperFunction,ComponentDrill*%
%ADD15C,2.700000*%
%TD*%
G04 APERTURE END LIST*
D10*
X148505786Y-87705786D03*
X152585786Y-88335786D03*
X152585786Y-94835786D03*
X156335786Y-72585786D03*
X157210786Y-73460786D03*
X181335786Y-93085786D03*
X186335786Y-83585786D03*
X189085786Y-80335786D03*
X189085786Y-81502453D03*
X189085786Y-82669119D03*
X189085786Y-83835786D03*
D11*
%TO.C,H2*%
X147374627Y-96585786D03*
%TO.C,H1*%
X147560786Y-74585786D03*
%TO.C,H2*%
X147967736Y-95153895D03*
X147967736Y-98017677D03*
%TO.C,H1*%
X148153895Y-73153895D03*
X148153895Y-76017677D03*
%TO.C,H2*%
X149399627Y-94560786D03*
X149399627Y-98610786D03*
%TO.C,H1*%
X149585786Y-72560786D03*
X149585786Y-76610786D03*
%TO.C,H2*%
X150831518Y-95153895D03*
X150831518Y-98017677D03*
%TO.C,H1*%
X151017677Y-73153895D03*
X151017677Y-76017677D03*
%TO.C,H2*%
X151424627Y-96585786D03*
%TO.C,H1*%
X151610786Y-74585786D03*
%TO.C,H3*%
X184535786Y-74585786D03*
%TO.C,H4*%
X184560786Y-96560786D03*
%TO.C,H3*%
X185128895Y-73153895D03*
X185128895Y-76017677D03*
%TO.C,H4*%
X185153895Y-95128895D03*
X185153895Y-97992677D03*
%TO.C,H3*%
X186560786Y-72560786D03*
X186560786Y-76610786D03*
%TO.C,H4*%
X186585786Y-94535786D03*
X186585786Y-98585786D03*
%TO.C,H3*%
X187992677Y-73153895D03*
X187992677Y-76017677D03*
%TO.C,H4*%
X188017677Y-95128895D03*
X188017677Y-97992677D03*
%TO.C,H3*%
X188585786Y-74585786D03*
%TO.C,H4*%
X188610786Y-96560786D03*
D12*
%TO.C,J1*%
X149925268Y-80195786D03*
X149925268Y-81445786D03*
X149925268Y-82705786D03*
X149925268Y-83955786D03*
X149925268Y-85195786D03*
X149925268Y-86445786D03*
X149925268Y-87705786D03*
X149925268Y-88955786D03*
D13*
%TO.C,U1*%
X162085786Y-74455786D03*
X162085786Y-76995786D03*
X162085786Y-79535786D03*
X162085786Y-82075786D03*
X162085786Y-84615786D03*
X162085786Y-87155786D03*
X162085786Y-89695786D03*
X162085786Y-92235786D03*
X177325786Y-74455786D03*
X177325786Y-76995786D03*
X177325786Y-79535786D03*
X177325786Y-82075786D03*
X177325786Y-84615786D03*
X177325786Y-87155786D03*
X177325786Y-89695786D03*
X177325786Y-92235786D03*
D14*
%TO.C,TP1*%
X157585786Y-80585786D03*
%TO.C,TP3*%
X157585786Y-84585786D03*
D15*
%TO.C,H2*%
X149399627Y-96585786D03*
%TO.C,H1*%
X149585786Y-74585786D03*
%TO.C,H3*%
X186560786Y-74585786D03*
%TO.C,H4*%
X186585786Y-96560786D03*
M02*
