%TF.GenerationSoftware,KiCad,Pcbnew,9.0.7*%
%TF.CreationDate,2026-02-13T21:43:38+07:00*%
%TF.ProjectId,aqm_sensor,61716d5f-7365-46e7-936f-722e6b696361,rev?*%
%TF.SameCoordinates,Original*%
%TF.FileFunction,Copper,L1,Top*%
%TF.FilePolarity,Positive*%
%FSLAX46Y46*%
G04 Gerber Fmt 4.6, Leading zero omitted, Abs format (unit mm)*
G04 Created by KiCad (PCBNEW 9.0.7) date 2026-02-13 21:43:38*
%MOMM*%
%LPD*%
G01*
G04 APERTURE LIST*
G04 Aperture macros list*
%AMRoundRect*
0 Rectangle with rounded corners*
0 $1 Rounding radius*
0 $2 $3 $4 $5 $6 $7 $8 $9 X,Y pos of 4 corners*
0 Add a 4 corners polygon primitive as box body*
4,1,4,$2,$3,$4,$5,$6,$7,$8,$9,$2,$3,0*
0 Add four circle primitives for the rounded corners*
1,1,$1+$1,$2,$3*
1,1,$1+$1,$4,$5*
1,1,$1+$1,$6,$7*
1,1,$1+$1,$8,$9*
0 Add four rect primitives between the rounded corners*
20,1,$1+$1,$2,$3,$4,$5,0*
20,1,$1+$1,$4,$5,$6,$7,0*
20,1,$1+$1,$6,$7,$8,$9,0*
20,1,$1+$1,$8,$9,$2,$3,0*%
G04 Aperture macros list end*
%TA.AperFunction,ComponentPad*%
%ADD10C,1.000000*%
%TD*%
%TA.AperFunction,ComponentPad*%
%ADD11R,1.000000X1.000000*%
%TD*%
%TA.AperFunction,SMDPad,CuDef*%
%ADD12R,1.000000X1.500000*%
%TD*%
%TA.AperFunction,SMDPad,CuDef*%
%ADD13RoundRect,0.250000X-1.500000X-0.550000X1.500000X-0.550000X1.500000X0.550000X-1.500000X0.550000X0*%
%TD*%
%TA.AperFunction,SMDPad,CuDef*%
%ADD14RoundRect,0.250000X-0.312500X-0.625000X0.312500X-0.625000X0.312500X0.625000X-0.312500X0.625000X0*%
%TD*%
%TA.AperFunction,SMDPad,CuDef*%
%ADD15RoundRect,0.250000X-0.650000X0.325000X-0.650000X-0.325000X0.650000X-0.325000X0.650000X0.325000X0*%
%TD*%
%TA.AperFunction,SMDPad,CuDef*%
%ADD16RoundRect,0.150000X-0.625000X0.150000X-0.625000X-0.150000X0.625000X-0.150000X0.625000X0.150000X0*%
%TD*%
%TA.AperFunction,SMDPad,CuDef*%
%ADD17RoundRect,0.250000X-0.650000X0.350000X-0.650000X-0.350000X0.650000X-0.350000X0.650000X0.350000X0*%
%TD*%
%TA.AperFunction,ComponentPad*%
%ADD18C,0.800000*%
%TD*%
%TA.AperFunction,ComponentPad*%
%ADD19C,5.400000*%
%TD*%
%TA.AperFunction,SMDPad,CuDef*%
%ADD20RoundRect,0.250000X0.325000X0.650000X-0.325000X0.650000X-0.325000X-0.650000X0.325000X-0.650000X0*%
%TD*%
%TA.AperFunction,ComponentPad*%
%ADD21C,1.348000*%
%TD*%
%TA.AperFunction,ViaPad*%
%ADD22C,1.500000*%
%TD*%
%TA.AperFunction,Conductor*%
%ADD23C,0.500000*%
%TD*%
%TA.AperFunction,Conductor*%
%ADD24C,0.800000*%
%TD*%
%TA.AperFunction,Conductor*%
%ADD25C,0.200000*%
%TD*%
G04 APERTURE END LIST*
D10*
%TO.P,J3,8,8*%
%TO.N,unconnected-(J3-Pad8)*%
X185835786Y-80585786D03*
%TO.P,J3,7,7*%
%TO.N,unconnected-(J3-Pad7)*%
X185835786Y-81835786D03*
%TO.P,J3,6,6*%
%TO.N,/PMS_RESET*%
X185835786Y-83095786D03*
%TO.P,J3,5,5*%
%TO.N,Net-(J3-Pad5)*%
X185835786Y-84345786D03*
%TO.P,J3,4,4*%
%TO.N,/PMS_RX*%
X185835786Y-85585786D03*
%TO.P,J3,3,3*%
%TO.N,/PMS_SET*%
X185835786Y-86835786D03*
%TO.P,J3,2,2*%
%TO.N,+5V*%
X185835786Y-88095786D03*
D11*
%TO.P,J3,1,1*%
%TO.N,GND*%
X185835786Y-89345786D03*
%TD*%
D12*
%TO.P,D1,1,VSS*%
%TO.N,GND*%
X179785786Y-88585786D03*
%TO.P,D1,2,DIN*%
%TO.N,/LED*%
X176585786Y-88585786D03*
%TO.P,D1,3,VDD*%
%TO.N,+3.3V*%
X176585786Y-93485786D03*
%TO.P,D1,4,DOUT*%
%TO.N,unconnected-(D1-DOUT-Pad4)*%
X179785786Y-93485786D03*
%TD*%
D13*
%TO.P,C4,1*%
%TO.N,+5V*%
X175085786Y-75085786D03*
%TO.P,C4,2*%
%TO.N,GND*%
X180485786Y-75085786D03*
%TD*%
D14*
%TO.P,R5,1*%
%TO.N,/PMS_TX*%
X176660786Y-84085786D03*
%TO.P,R5,2*%
%TO.N,Net-(J3-Pad5)*%
X179585786Y-84085786D03*
%TD*%
D15*
%TO.P,C2,1*%
%TO.N,GND*%
X151085786Y-79335786D03*
%TO.P,C2,2*%
%TO.N,+3.3V*%
X151085786Y-82285786D03*
%TD*%
D16*
%TO.P,J2,1,Pin_1*%
%TO.N,GND*%
X150960786Y-85285786D03*
%TO.P,J2,2,Pin_2*%
%TO.N,+3.3V*%
X150960786Y-86285786D03*
%TO.P,J2,3,Pin_3*%
%TO.N,/I2C_SDA*%
X150960786Y-87285786D03*
%TO.P,J2,4,Pin_4*%
%TO.N,/I2C_SCL*%
X150960786Y-88285786D03*
D17*
%TO.P,J2,MP,MountPin*%
%TO.N,GND*%
X147085786Y-83985786D03*
X147085786Y-89585786D03*
%TD*%
D18*
%TO.P,H3,1,1*%
%TO.N,GND*%
X147560786Y-96560786D03*
X148153895Y-95128895D03*
X148153895Y-97992677D03*
X149585786Y-94535786D03*
D19*
X149585786Y-96560786D03*
D18*
X149585786Y-98585786D03*
X151017677Y-95128895D03*
X151017677Y-97992677D03*
X151610786Y-96560786D03*
%TD*%
%TO.P,H1,1,1*%
%TO.N,GND*%
X147585786Y-74585786D03*
X148178895Y-73153895D03*
X148178895Y-76017677D03*
X149610786Y-72560786D03*
D19*
X149610786Y-74585786D03*
D18*
X149610786Y-76610786D03*
X151042677Y-73153895D03*
X151042677Y-76017677D03*
X151635786Y-74585786D03*
%TD*%
%TO.P,,1,1*%
%TO.N,GND*%
X147085786Y-87585786D03*
%TD*%
%TO.P,,1,1*%
%TO.N,GND*%
X147085786Y-85585786D03*
%TD*%
%TO.P,H2,1,1*%
%TO.N,GND*%
X184585786Y-74585786D03*
X185178895Y-73153895D03*
X185178895Y-76017677D03*
X186610786Y-72560786D03*
D19*
X186610786Y-74585786D03*
D18*
X186610786Y-76610786D03*
X188042677Y-73153895D03*
X188042677Y-76017677D03*
X188635786Y-74585786D03*
%TD*%
D20*
%TO.P,C1,1*%
%TO.N,GND*%
X179560786Y-96585786D03*
%TO.P,C1,2*%
%TO.N,+3.3V*%
X176610786Y-96585786D03*
%TD*%
D21*
%TO.P,U3,G,GND*%
%TO.N,GND*%
X170463286Y-76965786D03*
%TO.P,U3,21,GPIO21*%
%TO.N,unconnected-(U3-GPIO21-Pad21)*%
X155223286Y-92205786D03*
%TO.P,U3,20,GPIO20*%
%TO.N,unconnected-(U3-GPIO20-Pad20)*%
X155223286Y-89665786D03*
%TO.P,U3,10,GPIO10*%
%TO.N,unconnected-(U3-GPIO10-Pad10)*%
X155223286Y-87125786D03*
%TO.P,U3,9,GPIO9*%
%TO.N,/I2C_SCL*%
X155223286Y-84585786D03*
%TO.P,U3,8,GPIO8*%
%TO.N,/I2C_SDA*%
X155223286Y-82045786D03*
%TO.P,U3,7,GPIO7*%
%TO.N,unconnected-(U3-GPIO7-Pad7)*%
X155223286Y-79505786D03*
%TO.P,U3,6,GPIO6*%
%TO.N,unconnected-(U3-GPIO6-Pad6)*%
X155223286Y-76965786D03*
%TO.P,U3,5V,5V*%
%TO.N,+5V*%
X170463286Y-74425786D03*
%TO.P,U3,5,GPIO5*%
%TO.N,unconnected-(U3-GPIO5-Pad5)*%
X155223286Y-74425786D03*
%TO.P,U3,4,GPIO4*%
%TO.N,/PMS_RESET*%
X170463286Y-82045786D03*
%TO.P,U3,3.3,3V3*%
%TO.N,+3.3V*%
X170463286Y-79505786D03*
%TO.P,U3,3,GPIO3*%
%TO.N,/PMS_TX*%
X170463286Y-84585786D03*
%TO.P,U3,2,GPIO2*%
%TO.N,/PMS_RX*%
X170463286Y-87125786D03*
%TO.P,U3,1,GPIO1*%
%TO.N,/PMS_SET*%
X170463286Y-89665786D03*
%TO.P,U3,0,GPIO0*%
%TO.N,/LED*%
X170463286Y-92205786D03*
%TD*%
D18*
%TO.P,H4,1,1*%
%TO.N,GND*%
X184585786Y-96560786D03*
X185178895Y-95128895D03*
X185178895Y-97992677D03*
X186610786Y-94535786D03*
D19*
X186610786Y-96560786D03*
D18*
X186610786Y-98585786D03*
X188042677Y-95128895D03*
X188042677Y-97992677D03*
X188635786Y-96560786D03*
%TD*%
D22*
%TO.N,GND*%
X181835786Y-88585786D03*
%TD*%
D23*
%TO.N,GND*%
X179560786Y-96585786D02*
X184560786Y-96585786D01*
X184560786Y-96585786D02*
X184585786Y-96560786D01*
X149610786Y-76610786D02*
X149610786Y-77860786D01*
X149610786Y-77860786D02*
X151085786Y-79335786D01*
X150960786Y-85285786D02*
X147385786Y-85285786D01*
X147385786Y-85285786D02*
X147085786Y-85585786D01*
D24*
X180485786Y-75085786D02*
X184085786Y-75085786D01*
%TO.N,+5V*%
X170463286Y-74425786D02*
X174425786Y-74425786D01*
X174425786Y-74425786D02*
X175085786Y-75085786D01*
X175085786Y-75085786D02*
X177835786Y-77835786D01*
X177835786Y-77835786D02*
X185649942Y-77835786D01*
X185649942Y-77835786D02*
X187736786Y-79922630D01*
D25*
%TO.N,/I2C_SCL*%
X155223286Y-85698286D02*
X155223286Y-84585786D01*
X150960786Y-88285786D02*
X152635786Y-88285786D01*
X152635786Y-88285786D02*
X155223286Y-85698286D01*
D23*
%TO.N,+3.3V*%
X176610786Y-96585786D02*
X176610786Y-93510786D01*
X152186786Y-83386786D02*
X152186786Y-85834785D01*
X151735785Y-86285786D02*
X150960786Y-86285786D01*
X151085786Y-82285786D02*
X152186786Y-83386786D01*
X152186786Y-85834785D02*
X151735785Y-86285786D01*
%TO.N,GND*%
X179785786Y-88585786D02*
X181835786Y-88585786D01*
D25*
%TO.N,/I2C_SDA*%
X153335786Y-83933286D02*
X155223286Y-82045786D01*
X152635786Y-87285786D02*
X153335786Y-86585786D01*
X153335786Y-86585786D02*
X153335786Y-83933286D01*
X150960786Y-87285786D02*
X152635786Y-87285786D01*
%TO.N,/PMS_RX*%
X172003286Y-85585786D02*
X170463286Y-87125786D01*
X185885786Y-85585786D02*
X172003286Y-85585786D01*
%TO.N,/PMS_SET*%
X173293286Y-86835786D02*
X170463286Y-89665786D01*
X185885786Y-86835786D02*
X173293286Y-86835786D01*
%TO.N,/PMS_RESET*%
X170463286Y-82045786D02*
X184845786Y-82045786D01*
X184845786Y-82045786D02*
X185885786Y-83085786D01*
%TO.N,/PMS_TX*%
X170463286Y-84585786D02*
X176160786Y-84585786D01*
X176160786Y-84585786D02*
X176660786Y-84085786D01*
%TO.N,/LED*%
X170463286Y-92205786D02*
X171965786Y-92205786D01*
X171965786Y-92205786D02*
X175585786Y-88585786D01*
X175585786Y-88585786D02*
X176585786Y-88585786D01*
%TO.N,Net-(J3-Pad5)*%
X179835786Y-84335786D02*
X185885786Y-84335786D01*
D24*
%TO.N,+5V*%
X187736786Y-79922630D02*
X187736786Y-87434786D01*
X187736786Y-87434786D02*
X187085786Y-88085786D01*
X187085786Y-88085786D02*
X185885786Y-88085786D01*
%TD*%
%TA.AperFunction,Conductor*%
%TO.N,+3.3V*%
G36*
X156278825Y-71105971D02*
G01*
X156324580Y-71158775D01*
X156335786Y-71210286D01*
X156335786Y-73585786D01*
X169034068Y-73585786D01*
X169101107Y-73605471D01*
X169146862Y-73658275D01*
X169156806Y-73727433D01*
X169144553Y-73766081D01*
X169096812Y-73859777D01*
X169025094Y-74080502D01*
X169025094Y-74080505D01*
X168988786Y-74309741D01*
X168988786Y-74541830D01*
X169025094Y-74771066D01*
X169025094Y-74771069D01*
X169096812Y-74991794D01*
X169202181Y-75198592D01*
X169338601Y-75386358D01*
X169502714Y-75550471D01*
X169690480Y-75686891D01*
X169861771Y-75774168D01*
X169897275Y-75792258D01*
X169919333Y-75799425D01*
X169977009Y-75838862D01*
X170004209Y-75903220D01*
X169992295Y-75972067D01*
X169945052Y-76023543D01*
X169937315Y-76027840D01*
X169900127Y-76046789D01*
X169843525Y-76087913D01*
X169763296Y-76146203D01*
X169763294Y-76146205D01*
X169763293Y-76146205D01*
X169643705Y-76265793D01*
X169643705Y-76265794D01*
X169643703Y-76265796D01*
X169601009Y-76324558D01*
X169544291Y-76402624D01*
X169467508Y-76553316D01*
X169415243Y-76714173D01*
X169388786Y-76881216D01*
X169388786Y-77050355D01*
X169415243Y-77217398D01*
X169467508Y-77378255D01*
X169544291Y-77528947D01*
X169643703Y-77665776D01*
X169763296Y-77785369D01*
X169900125Y-77884781D01*
X169971320Y-77921057D01*
X170050816Y-77961563D01*
X170050818Y-77961563D01*
X170050821Y-77961565D01*
X170211673Y-78013829D01*
X170313933Y-78030024D01*
X170378717Y-78040286D01*
X170378721Y-78040286D01*
X170547855Y-78040286D01*
X170606912Y-78030931D01*
X170714899Y-78013829D01*
X170875751Y-77961565D01*
X171026447Y-77884781D01*
X171163276Y-77785369D01*
X171282869Y-77665776D01*
X171382281Y-77528947D01*
X171459065Y-77378251D01*
X171511329Y-77217399D01*
X171528431Y-77109412D01*
X171537786Y-77050355D01*
X171537786Y-76881216D01*
X171512664Y-76722605D01*
X171511329Y-76714173D01*
X171459065Y-76553321D01*
X171459063Y-76553318D01*
X171459063Y-76553316D01*
X171418557Y-76473820D01*
X171382281Y-76402625D01*
X171282869Y-76265796D01*
X171163276Y-76146203D01*
X171026447Y-76046791D01*
X171008509Y-76037651D01*
X170989257Y-76027841D01*
X170938462Y-75979866D01*
X170921668Y-75912044D01*
X170944207Y-75845910D01*
X170998922Y-75802459D01*
X171007239Y-75799425D01*
X171029294Y-75792259D01*
X171029294Y-75792258D01*
X171029297Y-75792258D01*
X171236092Y-75686891D01*
X171268850Y-75663090D01*
X171286913Y-75649968D01*
X171352719Y-75626488D01*
X171359798Y-75626286D01*
X172416880Y-75626286D01*
X172483919Y-75645971D01*
X172529674Y-75698775D01*
X172540283Y-75738132D01*
X172550485Y-75841718D01*
X172569478Y-75904329D01*
X172610554Y-76039740D01*
X172708101Y-76222236D01*
X172720653Y-76237531D01*
X172839375Y-76382196D01*
X172935995Y-76461488D01*
X172999336Y-76513471D01*
X173181832Y-76611018D01*
X173379852Y-76671086D01*
X173379851Y-76671086D01*
X173418433Y-76674886D01*
X173534178Y-76686286D01*
X174937160Y-76686286D01*
X175004199Y-76705971D01*
X175024841Y-76722605D01*
X177053712Y-78751476D01*
X177206587Y-78862546D01*
X177374954Y-78948333D01*
X177554668Y-79006726D01*
X177624656Y-79017811D01*
X177741299Y-79036286D01*
X177741304Y-79036286D01*
X177741305Y-79036286D01*
X185101316Y-79036286D01*
X185168355Y-79055971D01*
X185188997Y-79072605D01*
X185628746Y-79512354D01*
X185662231Y-79573677D01*
X185657247Y-79643369D01*
X185615375Y-79699302D01*
X185577078Y-79718690D01*
X185573127Y-79719888D01*
X185409245Y-79787769D01*
X185409232Y-79787776D01*
X185261751Y-79886321D01*
X185261747Y-79886324D01*
X185136324Y-80011747D01*
X185136321Y-80011751D01*
X185037776Y-80159232D01*
X185037769Y-80159245D01*
X184969892Y-80323118D01*
X184969889Y-80323127D01*
X184935286Y-80497090D01*
X184935286Y-80674481D01*
X184969889Y-80848444D01*
X184969892Y-80848453D01*
X185037769Y-81012326D01*
X185037776Y-81012339D01*
X185124343Y-81141895D01*
X185129203Y-81157417D01*
X185138585Y-81170706D01*
X185139428Y-81190074D01*
X185145221Y-81208573D01*
X185140948Y-81224967D01*
X185141626Y-81240509D01*
X185130081Y-81266672D01*
X185128375Y-81273222D01*
X185126448Y-81276527D01*
X185037773Y-81409239D01*
X185009921Y-81476478D01*
X185005700Y-81483722D01*
X184986161Y-81502200D01*
X184969286Y-81523142D01*
X184961159Y-81525846D01*
X184954938Y-81531731D01*
X184928510Y-81536713D01*
X184902992Y-81545207D01*
X184898566Y-81545286D01*
X171490123Y-81545286D01*
X171423084Y-81525601D01*
X171384393Y-81486072D01*
X171382280Y-81482623D01*
X171359758Y-81451625D01*
X171282869Y-81345796D01*
X171163276Y-81226203D01*
X171026447Y-81126791D01*
X170875755Y-81050008D01*
X170798576Y-81024931D01*
X170714899Y-80997743D01*
X170681489Y-80992451D01*
X170547855Y-80971286D01*
X170547851Y-80971286D01*
X170378721Y-80971286D01*
X170378717Y-80971286D01*
X170211673Y-80997743D01*
X170050816Y-81050008D01*
X169900124Y-81126791D01*
X169854663Y-81159821D01*
X169763296Y-81226203D01*
X169763294Y-81226205D01*
X169763293Y-81226205D01*
X169643705Y-81345793D01*
X169643705Y-81345794D01*
X169643703Y-81345796D01*
X169601009Y-81404558D01*
X169544291Y-81482624D01*
X169467508Y-81633316D01*
X169415243Y-81794173D01*
X169388786Y-81961216D01*
X169388786Y-82130355D01*
X169415243Y-82297398D01*
X169467508Y-82458255D01*
X169530869Y-82582605D01*
X169544291Y-82608947D01*
X169643703Y-82745776D01*
X169763296Y-82865369D01*
X169900125Y-82964781D01*
X169970070Y-83000420D01*
X170050816Y-83041563D01*
X170050818Y-83041563D01*
X170050821Y-83041565D01*
X170211673Y-83093829D01*
X170313933Y-83110024D01*
X170378717Y-83120286D01*
X170378721Y-83120286D01*
X170547855Y-83120286D01*
X170606912Y-83110931D01*
X170714899Y-83093829D01*
X170875751Y-83041565D01*
X171026447Y-82964781D01*
X171163276Y-82865369D01*
X171282869Y-82745776D01*
X171382281Y-82608947D01*
X171382282Y-82608943D01*
X171384393Y-82605500D01*
X171436204Y-82558623D01*
X171490123Y-82546286D01*
X184587110Y-82546286D01*
X184654149Y-82565971D01*
X184674791Y-82582605D01*
X184915627Y-82823441D01*
X184949112Y-82884764D01*
X184949564Y-82935312D01*
X184935286Y-83007096D01*
X184935286Y-83184481D01*
X184969889Y-83358444D01*
X184969892Y-83358453D01*
X185037769Y-83522326D01*
X185037776Y-83522339D01*
X185117996Y-83642395D01*
X185138874Y-83709072D01*
X185120390Y-83776452D01*
X185068411Y-83823143D01*
X185014894Y-83835286D01*
X180672786Y-83835286D01*
X180605747Y-83815601D01*
X180559992Y-83762797D01*
X180548786Y-83711286D01*
X180548786Y-83395099D01*
X180548785Y-83395084D01*
X180545902Y-83358453D01*
X180545884Y-83358217D01*
X180500030Y-83200388D01*
X180416367Y-83058921D01*
X180416365Y-83058919D01*
X180416362Y-83058915D01*
X180300156Y-82942709D01*
X180300148Y-82942703D01*
X180158682Y-82859041D01*
X180158679Y-82859040D01*
X180000859Y-82813188D01*
X180000853Y-82813187D01*
X179963987Y-82810286D01*
X179963980Y-82810286D01*
X179207592Y-82810286D01*
X179207584Y-82810286D01*
X179170718Y-82813187D01*
X179170712Y-82813188D01*
X179012892Y-82859040D01*
X179012889Y-82859041D01*
X178871423Y-82942703D01*
X178871415Y-82942709D01*
X178755209Y-83058915D01*
X178755203Y-83058923D01*
X178671541Y-83200389D01*
X178671540Y-83200392D01*
X178625688Y-83358212D01*
X178625687Y-83358218D01*
X178622786Y-83395084D01*
X178622786Y-84776487D01*
X178625687Y-84813353D01*
X178625688Y-84813359D01*
X178658615Y-84926691D01*
X178658416Y-84996560D01*
X178620474Y-85055230D01*
X178556836Y-85084074D01*
X178539539Y-85085286D01*
X177707033Y-85085286D01*
X177639994Y-85065601D01*
X177594239Y-85012797D01*
X177584295Y-84943639D01*
X177587957Y-84926691D01*
X177620883Y-84813359D01*
X177620884Y-84813353D01*
X177623785Y-84776487D01*
X177623786Y-84776480D01*
X177623786Y-83395092D01*
X177620884Y-83358217D01*
X177575030Y-83200388D01*
X177491367Y-83058921D01*
X177491365Y-83058919D01*
X177491362Y-83058915D01*
X177375156Y-82942709D01*
X177375148Y-82942703D01*
X177233682Y-82859041D01*
X177233679Y-82859040D01*
X177075859Y-82813188D01*
X177075853Y-82813187D01*
X177038987Y-82810286D01*
X177038980Y-82810286D01*
X176282592Y-82810286D01*
X176282584Y-82810286D01*
X176245718Y-82813187D01*
X176245712Y-82813188D01*
X176087892Y-82859040D01*
X176087889Y-82859041D01*
X175946423Y-82942703D01*
X175946415Y-82942709D01*
X175830209Y-83058915D01*
X175830203Y-83058923D01*
X175746541Y-83200389D01*
X175746540Y-83200392D01*
X175700688Y-83358212D01*
X175700687Y-83358218D01*
X175697786Y-83395084D01*
X175697786Y-83961286D01*
X175678101Y-84028325D01*
X175625297Y-84074080D01*
X175573786Y-84085286D01*
X171490123Y-84085286D01*
X171423084Y-84065601D01*
X171384393Y-84026072D01*
X171382280Y-84022623D01*
X171359758Y-83991625D01*
X171282869Y-83885796D01*
X171163276Y-83766203D01*
X171026447Y-83666791D01*
X170875755Y-83590008D01*
X170782608Y-83559743D01*
X170714899Y-83537743D01*
X170681489Y-83532451D01*
X170547855Y-83511286D01*
X170547851Y-83511286D01*
X170378721Y-83511286D01*
X170378717Y-83511286D01*
X170211673Y-83537743D01*
X170050816Y-83590008D01*
X169900124Y-83666791D01*
X169841930Y-83709072D01*
X169763296Y-83766203D01*
X169763294Y-83766205D01*
X169763293Y-83766205D01*
X169643705Y-83885793D01*
X169643705Y-83885794D01*
X169643703Y-83885796D01*
X169607563Y-83935538D01*
X169544291Y-84022624D01*
X169467508Y-84173316D01*
X169415243Y-84334173D01*
X169388786Y-84501216D01*
X169388786Y-84670355D01*
X169405593Y-84776472D01*
X169415243Y-84837399D01*
X169424786Y-84866770D01*
X169467508Y-84998255D01*
X169512363Y-85086286D01*
X169544291Y-85148947D01*
X169643703Y-85285776D01*
X169763296Y-85405369D01*
X169900125Y-85504781D01*
X169962785Y-85536708D01*
X170050816Y-85581563D01*
X170050818Y-85581563D01*
X170050821Y-85581565D01*
X170211673Y-85633829D01*
X170313933Y-85650024D01*
X170378717Y-85660286D01*
X170378721Y-85660286D01*
X170547855Y-85660286D01*
X170606912Y-85650931D01*
X170714899Y-85633829D01*
X170875751Y-85581565D01*
X171026447Y-85504781D01*
X171031792Y-85500896D01*
X171097594Y-85477413D01*
X171165649Y-85493232D01*
X171214349Y-85543334D01*
X171228230Y-85611811D01*
X171202886Y-85676922D01*
X171192365Y-85688891D01*
X170835462Y-86045794D01*
X170774139Y-86079279D01*
X170718850Y-86078691D01*
X170714899Y-86077743D01*
X170547855Y-86051286D01*
X170547851Y-86051286D01*
X170378721Y-86051286D01*
X170378717Y-86051286D01*
X170211673Y-86077743D01*
X170050816Y-86130008D01*
X169900124Y-86206791D01*
X169824479Y-86261751D01*
X169763296Y-86306203D01*
X169763294Y-86306205D01*
X169763293Y-86306205D01*
X169643705Y-86425793D01*
X169643705Y-86425794D01*
X169643703Y-86425796D01*
X169636807Y-86435288D01*
X169544291Y-86562624D01*
X169467508Y-86713316D01*
X169415243Y-86874173D01*
X169388786Y-87041216D01*
X169388786Y-87210355D01*
X169408732Y-87336286D01*
X169415243Y-87377399D01*
X169425438Y-87408775D01*
X169467508Y-87538255D01*
X169544290Y-87688945D01*
X169544291Y-87688947D01*
X169643703Y-87825776D01*
X169763296Y-87945369D01*
X169900125Y-88044781D01*
X169937815Y-88063985D01*
X170050816Y-88121563D01*
X170050818Y-88121563D01*
X170050821Y-88121565D01*
X170211673Y-88173829D01*
X170313933Y-88190024D01*
X170378717Y-88200286D01*
X170378721Y-88200286D01*
X170547855Y-88200286D01*
X170606912Y-88190931D01*
X170714899Y-88173829D01*
X170875751Y-88121565D01*
X171026447Y-88044781D01*
X171031791Y-88040897D01*
X171097596Y-88017414D01*
X171165651Y-88033234D01*
X171214349Y-88083337D01*
X171228229Y-88151814D01*
X171202884Y-88216925D01*
X171192364Y-88228892D01*
X170835462Y-88585794D01*
X170774139Y-88619279D01*
X170718850Y-88618691D01*
X170714899Y-88617743D01*
X170547855Y-88591286D01*
X170547851Y-88591286D01*
X170378721Y-88591286D01*
X170378717Y-88591286D01*
X170211673Y-88617743D01*
X170050816Y-88670008D01*
X169900124Y-88746791D01*
X169835237Y-88793935D01*
X169763296Y-88846203D01*
X169763294Y-88846205D01*
X169763293Y-88846205D01*
X169643705Y-88965793D01*
X169643705Y-88965794D01*
X169643703Y-88965796D01*
X169620195Y-88998152D01*
X169544291Y-89102624D01*
X169467508Y-89253316D01*
X169415243Y-89414173D01*
X169388786Y-89581216D01*
X169388786Y-89750355D01*
X169415243Y-89917398D01*
X169467508Y-90078255D01*
X169516209Y-90173834D01*
X169544291Y-90228947D01*
X169643703Y-90365776D01*
X169763296Y-90485369D01*
X169900125Y-90584781D01*
X169971320Y-90621057D01*
X170050816Y-90661563D01*
X170050818Y-90661563D01*
X170050821Y-90661565D01*
X170211673Y-90713829D01*
X170313933Y-90730024D01*
X170378717Y-90740286D01*
X170378721Y-90740286D01*
X170547855Y-90740286D01*
X170606912Y-90730931D01*
X170714899Y-90713829D01*
X170875751Y-90661565D01*
X171026447Y-90584781D01*
X171163276Y-90485369D01*
X171282869Y-90365776D01*
X171382281Y-90228947D01*
X171459065Y-90078251D01*
X171511329Y-89917399D01*
X171528431Y-89809412D01*
X171537786Y-89750355D01*
X171537786Y-89581216D01*
X171524959Y-89500236D01*
X171511329Y-89414173D01*
X171511326Y-89414164D01*
X171510382Y-89410227D01*
X171513878Y-89340445D01*
X171543277Y-89293608D01*
X173464281Y-87372605D01*
X173525604Y-87339120D01*
X173551962Y-87336286D01*
X175719531Y-87336286D01*
X175786570Y-87355971D01*
X175832325Y-87408775D01*
X175842269Y-87477933D01*
X175813244Y-87541489D01*
X175807212Y-87547967D01*
X175757740Y-87597438D01*
X175757737Y-87597443D01*
X175757736Y-87597444D01*
X175755522Y-87601790D01*
X175700138Y-87710484D01*
X175685286Y-87804261D01*
X175685286Y-87961286D01*
X175665601Y-88028325D01*
X175612797Y-88074080D01*
X175561286Y-88085286D01*
X175519893Y-88085286D01*
X175392598Y-88119394D01*
X175278472Y-88185286D01*
X175278469Y-88185288D01*
X171794791Y-91668967D01*
X171767863Y-91683670D01*
X171742045Y-91700263D01*
X171735844Y-91701154D01*
X171733468Y-91702452D01*
X171707110Y-91705286D01*
X171490123Y-91705286D01*
X171423084Y-91685601D01*
X171384393Y-91646072D01*
X171382280Y-91642623D01*
X171359758Y-91611625D01*
X171282869Y-91505796D01*
X171163276Y-91386203D01*
X171026447Y-91286791D01*
X170875755Y-91210008D01*
X170798576Y-91184931D01*
X170714899Y-91157743D01*
X170681489Y-91152451D01*
X170547855Y-91131286D01*
X170547851Y-91131286D01*
X170378721Y-91131286D01*
X170378717Y-91131286D01*
X170211673Y-91157743D01*
X170050816Y-91210008D01*
X169900124Y-91286791D01*
X169822058Y-91343509D01*
X169763296Y-91386203D01*
X169763294Y-91386205D01*
X169763293Y-91386205D01*
X169643705Y-91505793D01*
X169643705Y-91505794D01*
X169643703Y-91505796D01*
X169601009Y-91564558D01*
X169544291Y-91642624D01*
X169467508Y-91793316D01*
X169415243Y-91954173D01*
X169388786Y-92121216D01*
X169388786Y-92290355D01*
X169407378Y-92407740D01*
X169415243Y-92457399D01*
X169442431Y-92541076D01*
X169467508Y-92618255D01*
X169512363Y-92706286D01*
X169544291Y-92768947D01*
X169643703Y-92905776D01*
X169763296Y-93025369D01*
X169900125Y-93124781D01*
X169971320Y-93161057D01*
X170050816Y-93201563D01*
X170050818Y-93201563D01*
X170050821Y-93201565D01*
X170211673Y-93253829D01*
X170313933Y-93270024D01*
X170378717Y-93280286D01*
X170378721Y-93280286D01*
X170547855Y-93280286D01*
X170606912Y-93270931D01*
X170714899Y-93253829D01*
X170875751Y-93201565D01*
X171026447Y-93124781D01*
X171163276Y-93025369D01*
X171282869Y-92905776D01*
X171382281Y-92768947D01*
X171382282Y-92768943D01*
X171384393Y-92765500D01*
X171436204Y-92718623D01*
X171490123Y-92706286D01*
X172031676Y-92706286D01*
X172031678Y-92706286D01*
X172158972Y-92672178D01*
X172273100Y-92606286D01*
X175489521Y-89389863D01*
X175550842Y-89356380D01*
X175620534Y-89361364D01*
X175676467Y-89403236D01*
X175697009Y-89451841D01*
X175697123Y-89451805D01*
X175697551Y-89453122D01*
X175699673Y-89458143D01*
X175700139Y-89461087D01*
X175700139Y-89461088D01*
X175700140Y-89461090D01*
X175757736Y-89574128D01*
X175757738Y-89574130D01*
X175757740Y-89574133D01*
X175847438Y-89663831D01*
X175847440Y-89663832D01*
X175847444Y-89663836D01*
X175960480Y-89721431D01*
X175960484Y-89721433D01*
X176054261Y-89736285D01*
X176054267Y-89736286D01*
X177117304Y-89736285D01*
X177211090Y-89721432D01*
X177324128Y-89663836D01*
X177413836Y-89574128D01*
X177471432Y-89461090D01*
X177471432Y-89461088D01*
X177471433Y-89461087D01*
X177486285Y-89367310D01*
X177486286Y-89367305D01*
X177486285Y-87804268D01*
X177471432Y-87710482D01*
X177413836Y-87597444D01*
X177413832Y-87597440D01*
X177413831Y-87597438D01*
X177364360Y-87547967D01*
X177330875Y-87486644D01*
X177335859Y-87416952D01*
X177377731Y-87361019D01*
X177443195Y-87336602D01*
X177452041Y-87336286D01*
X178919531Y-87336286D01*
X178986570Y-87355971D01*
X179032325Y-87408775D01*
X179042269Y-87477933D01*
X179013244Y-87541489D01*
X179007212Y-87547967D01*
X178957740Y-87597438D01*
X178957737Y-87597443D01*
X178957736Y-87597444D01*
X178955522Y-87601790D01*
X178900138Y-87710484D01*
X178885286Y-87804261D01*
X178885286Y-89367303D01*
X178896078Y-89435443D01*
X178900140Y-89461090D01*
X178957736Y-89574128D01*
X178957738Y-89574130D01*
X178957740Y-89574133D01*
X179047438Y-89663831D01*
X179047440Y-89663832D01*
X179047444Y-89663836D01*
X179160480Y-89721431D01*
X179160484Y-89721433D01*
X179254261Y-89736285D01*
X179254267Y-89736286D01*
X180317304Y-89736285D01*
X180411090Y-89721432D01*
X180524128Y-89663836D01*
X180613836Y-89574128D01*
X180671432Y-89461090D01*
X180671432Y-89461088D01*
X180671433Y-89461087D01*
X180686286Y-89367310D01*
X180686286Y-89360286D01*
X180688836Y-89351600D01*
X180687548Y-89342639D01*
X180698526Y-89318598D01*
X180705971Y-89293247D01*
X180712811Y-89287319D01*
X180716573Y-89279083D01*
X180738807Y-89264793D01*
X180758775Y-89247492D01*
X180769289Y-89245204D01*
X180775351Y-89241309D01*
X180810286Y-89236286D01*
X180823123Y-89236286D01*
X180890162Y-89255971D01*
X180923441Y-89287401D01*
X180958227Y-89335280D01*
X180958231Y-89335285D01*
X181086286Y-89463340D01*
X181086291Y-89463344D01*
X181214073Y-89556182D01*
X181232792Y-89569782D01*
X181338270Y-89623526D01*
X181394146Y-89651997D01*
X181394149Y-89651998D01*
X181430578Y-89663834D01*
X181566377Y-89707957D01*
X181649215Y-89721077D01*
X181745235Y-89736286D01*
X181745240Y-89736286D01*
X181926337Y-89736286D01*
X182013045Y-89722551D01*
X182105195Y-89707957D01*
X182277425Y-89651997D01*
X182438780Y-89569782D01*
X182585287Y-89463339D01*
X182713339Y-89335287D01*
X182819782Y-89188780D01*
X182901997Y-89027425D01*
X182957957Y-88855195D01*
X182974273Y-88752177D01*
X182986286Y-88676337D01*
X182986286Y-88495234D01*
X182969805Y-88391183D01*
X182957957Y-88316377D01*
X182925623Y-88216862D01*
X182901998Y-88144149D01*
X182901997Y-88144146D01*
X182851367Y-88044781D01*
X182819782Y-87982792D01*
X182770965Y-87915601D01*
X182713344Y-87836291D01*
X182713340Y-87836286D01*
X182585285Y-87708231D01*
X182585280Y-87708227D01*
X182438783Y-87601792D01*
X182438782Y-87601791D01*
X182438780Y-87601790D01*
X182377901Y-87570770D01*
X182327106Y-87522796D01*
X182310311Y-87454975D01*
X182332849Y-87388840D01*
X182387564Y-87345389D01*
X182434197Y-87336286D01*
X184560836Y-87336286D01*
X184627875Y-87355971D01*
X184673630Y-87408775D01*
X184683574Y-87477933D01*
X184671321Y-87516581D01*
X184630567Y-87596562D01*
X184567308Y-87791251D01*
X184535286Y-87993434D01*
X184535286Y-88198137D01*
X184567308Y-88400320D01*
X184630567Y-88595009D01*
X184677076Y-88686286D01*
X184710649Y-88752177D01*
X184723501Y-88777399D01*
X184843814Y-88942999D01*
X184898967Y-88998152D01*
X184932452Y-89059475D01*
X184935286Y-89085833D01*
X184935286Y-89877303D01*
X184941637Y-89917399D01*
X184950140Y-89971090D01*
X185007736Y-90084128D01*
X185007738Y-90084130D01*
X185007740Y-90084133D01*
X185097438Y-90173831D01*
X185097440Y-90173832D01*
X185097444Y-90173836D01*
X185205605Y-90228947D01*
X185210484Y-90231433D01*
X185304261Y-90246285D01*
X185304267Y-90246286D01*
X186367304Y-90246285D01*
X186461090Y-90231432D01*
X186574128Y-90173836D01*
X186663836Y-90084128D01*
X186721432Y-89971090D01*
X186721432Y-89971088D01*
X186721433Y-89971087D01*
X186736285Y-89877310D01*
X186736286Y-89877305D01*
X186736285Y-89410285D01*
X186755969Y-89343247D01*
X186808773Y-89297492D01*
X186860285Y-89286286D01*
X187180272Y-89286286D01*
X187366904Y-89256726D01*
X187395323Y-89247492D01*
X187546618Y-89198333D01*
X187714985Y-89112546D01*
X187867860Y-89001476D01*
X188652476Y-88216860D01*
X188763546Y-88063985D01*
X188849333Y-87895618D01*
X188907726Y-87715904D01*
X188920863Y-87632954D01*
X188937286Y-87529273D01*
X188937286Y-79828149D01*
X188926080Y-79757399D01*
X188926080Y-79757398D01*
X188907726Y-79641514D01*
X188907726Y-79641512D01*
X188849333Y-79461798D01*
X188849331Y-79461795D01*
X188849331Y-79461793D01*
X188763545Y-79293430D01*
X188735023Y-79254173D01*
X188652476Y-79140556D01*
X187312610Y-77800690D01*
X187279125Y-77739367D01*
X187284109Y-77669675D01*
X187325981Y-77613742D01*
X187372698Y-77592118D01*
X187470467Y-77569804D01*
X187799165Y-77454788D01*
X188112919Y-77303692D01*
X188407783Y-77118416D01*
X188493134Y-77050351D01*
X188680042Y-76901298D01*
X188680046Y-76901294D01*
X188680049Y-76901292D01*
X188926292Y-76655049D01*
X188942053Y-76635286D01*
X189143413Y-76382787D01*
X189143414Y-76382785D01*
X189143416Y-76382783D01*
X189328692Y-76087919D01*
X189479788Y-75774165D01*
X189594804Y-75445467D01*
X189672295Y-75105957D01*
X189711286Y-74759906D01*
X189711286Y-74411666D01*
X189672295Y-74065615D01*
X189594804Y-73726105D01*
X189479788Y-73397407D01*
X189328692Y-73083653D01*
X189143416Y-72788789D01*
X189143414Y-72788786D01*
X189143413Y-72788784D01*
X188926298Y-72516529D01*
X188680042Y-72270273D01*
X188407787Y-72053158D01*
X188407785Y-72053157D01*
X188112916Y-71867878D01*
X187799168Y-71716785D01*
X187470478Y-71601771D01*
X187470470Y-71601768D01*
X187215834Y-71543649D01*
X187130957Y-71524277D01*
X187130953Y-71524276D01*
X187130944Y-71524275D01*
X186784910Y-71485286D01*
X186784906Y-71485286D01*
X186436666Y-71485286D01*
X186436661Y-71485286D01*
X186090627Y-71524275D01*
X186090615Y-71524277D01*
X185751101Y-71601768D01*
X185751093Y-71601771D01*
X185422403Y-71716785D01*
X185108655Y-71867878D01*
X184813786Y-72053157D01*
X184813784Y-72053158D01*
X184541529Y-72270273D01*
X184295273Y-72516529D01*
X184078158Y-72788784D01*
X184078157Y-72788786D01*
X183892878Y-73083655D01*
X183741785Y-73397403D01*
X183626771Y-73726093D01*
X183626768Y-73726101D01*
X183549277Y-74065615D01*
X183549274Y-74065628D01*
X183536933Y-74175169D01*
X183509867Y-74239583D01*
X183452272Y-74279138D01*
X183413713Y-74285286D01*
X182664112Y-74285286D01*
X182597073Y-74265601D01*
X182557380Y-74224407D01*
X182503868Y-74133923D01*
X182503867Y-74133921D01*
X182503865Y-74133919D01*
X182503862Y-74133915D01*
X182387656Y-74017709D01*
X182387648Y-74017703D01*
X182246182Y-73934041D01*
X182246179Y-73934040D01*
X182088359Y-73888188D01*
X182088353Y-73888187D01*
X182051487Y-73885286D01*
X182051480Y-73885286D01*
X178920092Y-73885286D01*
X178920084Y-73885286D01*
X178883218Y-73888187D01*
X178883212Y-73888188D01*
X178725392Y-73934040D01*
X178725389Y-73934041D01*
X178583923Y-74017703D01*
X178583915Y-74017709D01*
X178467709Y-74133915D01*
X178467703Y-74133923D01*
X178384041Y-74275389D01*
X178384040Y-74275392D01*
X178338188Y-74433212D01*
X178338187Y-74433218D01*
X178335286Y-74470084D01*
X178335286Y-75701487D01*
X178338187Y-75738353D01*
X178338188Y-75738359D01*
X178384040Y-75896179D01*
X178384041Y-75896182D01*
X178384042Y-75896184D01*
X178388203Y-75903220D01*
X178467703Y-76037648D01*
X178467709Y-76037656D01*
X178583915Y-76153862D01*
X178583919Y-76153865D01*
X178583921Y-76153867D01*
X178725388Y-76237530D01*
X178767010Y-76249622D01*
X178883212Y-76283383D01*
X178883215Y-76283383D01*
X178883217Y-76283384D01*
X178920092Y-76286286D01*
X178920100Y-76286286D01*
X182051472Y-76286286D01*
X182051480Y-76286286D01*
X182088355Y-76283384D01*
X182088357Y-76283383D01*
X182088359Y-76283383D01*
X182129977Y-76271291D01*
X182246184Y-76237530D01*
X182387651Y-76153867D01*
X182503867Y-76037651D01*
X182557380Y-75947164D01*
X182608449Y-75899482D01*
X182664112Y-75886286D01*
X183717865Y-75886286D01*
X183784904Y-75905971D01*
X183829585Y-75956485D01*
X183892876Y-76087913D01*
X183892880Y-76087919D01*
X184078156Y-76382783D01*
X184118979Y-76433973D01*
X184145387Y-76498660D01*
X184132632Y-76567355D01*
X184084761Y-76618249D01*
X184022032Y-76635286D01*
X178384412Y-76635286D01*
X178317373Y-76615601D01*
X178296731Y-76598967D01*
X177654414Y-75956650D01*
X177620929Y-75895327D01*
X177620505Y-75847784D01*
X177620489Y-75847783D01*
X177620504Y-75847626D01*
X177620479Y-75844772D01*
X177621086Y-75841720D01*
X177625252Y-75799425D01*
X177636286Y-75687394D01*
X177636286Y-74484178D01*
X177621086Y-74329852D01*
X177561018Y-74131832D01*
X177463471Y-73949336D01*
X177389971Y-73859775D01*
X177332196Y-73789375D01*
X177172238Y-73658103D01*
X177172239Y-73658103D01*
X177172236Y-73658101D01*
X176989740Y-73560554D01*
X176791720Y-73500486D01*
X176791718Y-73500485D01*
X176791720Y-73500485D01*
X176672591Y-73488752D01*
X176637394Y-73485286D01*
X176637391Y-73485286D01*
X175214002Y-73485286D01*
X175146963Y-73465601D01*
X175141117Y-73461604D01*
X175054988Y-73399028D01*
X175054987Y-73399027D01*
X175054985Y-73399026D01*
X174961290Y-73351286D01*
X174886622Y-73313240D01*
X174706904Y-73254845D01*
X174520272Y-73225286D01*
X174520267Y-73225286D01*
X171359798Y-73225286D01*
X171292759Y-73205601D01*
X171286913Y-73201604D01*
X171236095Y-73164683D01*
X171236094Y-73164682D01*
X171236092Y-73164681D01*
X171132694Y-73111997D01*
X171029294Y-73059312D01*
X170808567Y-72987594D01*
X170655743Y-72963388D01*
X170579332Y-72951286D01*
X170347240Y-72951286D01*
X170270829Y-72963388D01*
X170118005Y-72987594D01*
X170118002Y-72987594D01*
X169897277Y-73059312D01*
X169690476Y-73164683D01*
X169532671Y-73279335D01*
X169466865Y-73302815D01*
X169398811Y-73286989D01*
X169350116Y-73236884D01*
X169335786Y-73179017D01*
X169335786Y-71210286D01*
X169355471Y-71143247D01*
X169408275Y-71097492D01*
X169459786Y-71086286D01*
X188519893Y-71086286D01*
X188519897Y-71086287D01*
X188581365Y-71086286D01*
X188590208Y-71086601D01*
X188790352Y-71100914D01*
X188807857Y-71103431D01*
X188999585Y-71145138D01*
X189016555Y-71150120D01*
X189200402Y-71218691D01*
X189216490Y-71226037D01*
X189276075Y-71258573D01*
X189388704Y-71320072D01*
X189403587Y-71329637D01*
X189560664Y-71447221D01*
X189574036Y-71458807D01*
X189712779Y-71597548D01*
X189724365Y-71610919D01*
X189841950Y-71767992D01*
X189851515Y-71782875D01*
X189945551Y-71955085D01*
X189952901Y-71971179D01*
X190021471Y-72155021D01*
X190026455Y-72171996D01*
X190068164Y-72363720D01*
X190070682Y-72381232D01*
X190084970Y-72580980D01*
X190085286Y-72589827D01*
X190085286Y-98512286D01*
X190085285Y-98512304D01*
X190085285Y-98581364D01*
X190084969Y-98590209D01*
X190070657Y-98790345D01*
X190068139Y-98807857D01*
X190068139Y-98807858D01*
X190026433Y-98999580D01*
X190021449Y-99016555D01*
X189952881Y-99200396D01*
X189945531Y-99216490D01*
X189851498Y-99388699D01*
X189841933Y-99403582D01*
X189724351Y-99560654D01*
X189712765Y-99574025D01*
X189574025Y-99712765D01*
X189560654Y-99724351D01*
X189403582Y-99841933D01*
X189388699Y-99851498D01*
X189216490Y-99945531D01*
X189200396Y-99952881D01*
X189016555Y-100021449D01*
X188999580Y-100026433D01*
X188807858Y-100068139D01*
X188790345Y-100070657D01*
X188590209Y-100084969D01*
X188581366Y-100085285D01*
X188549906Y-100085285D01*
X188519897Y-100085285D01*
X188519893Y-100085285D01*
X188512289Y-100085286D01*
X188512288Y-100085285D01*
X188512287Y-100085286D01*
X147590219Y-100085286D01*
X147581372Y-100084970D01*
X147381236Y-100070654D01*
X147363724Y-100068136D01*
X147172004Y-100026428D01*
X147155029Y-100021444D01*
X146971190Y-99952875D01*
X146955096Y-99945524D01*
X146782891Y-99851490D01*
X146768008Y-99841926D01*
X146610938Y-99724344D01*
X146597567Y-99712758D01*
X146458828Y-99574018D01*
X146447242Y-99560647D01*
X146329660Y-99403573D01*
X146320095Y-99388689D01*
X146226064Y-99216481D01*
X146218715Y-99200387D01*
X146150149Y-99016549D01*
X146145165Y-98999575D01*
X146103458Y-98807849D01*
X146100942Y-98790350D01*
X146086602Y-98589816D01*
X146086286Y-98580971D01*
X146086287Y-98519897D01*
X146086286Y-98519893D01*
X146086286Y-96386661D01*
X146485286Y-96386661D01*
X146485286Y-96734910D01*
X146524275Y-97080944D01*
X146524277Y-97080956D01*
X146601768Y-97420470D01*
X146601771Y-97420478D01*
X146716785Y-97749168D01*
X146867878Y-98062916D01*
X147053157Y-98357785D01*
X147053158Y-98357787D01*
X147270273Y-98630042D01*
X147516529Y-98876298D01*
X147788784Y-99093413D01*
X147788787Y-99093414D01*
X147788789Y-99093416D01*
X148083653Y-99278692D01*
X148397407Y-99429788D01*
X148644274Y-99516170D01*
X148726093Y-99544800D01*
X148726101Y-99544803D01*
X148726104Y-99544803D01*
X148726105Y-99544804D01*
X149065615Y-99622295D01*
X149411662Y-99661285D01*
X149411663Y-99661286D01*
X149411666Y-99661286D01*
X149759909Y-99661286D01*
X149759909Y-99661285D01*
X150105957Y-99622295D01*
X150445467Y-99544804D01*
X150774165Y-99429788D01*
X151087919Y-99278692D01*
X151382783Y-99093416D01*
X151382787Y-99093413D01*
X151655042Y-98876298D01*
X151655044Y-98876295D01*
X151655049Y-98876292D01*
X151901292Y-98630049D01*
X151933064Y-98590209D01*
X152118413Y-98357787D01*
X152118414Y-98357785D01*
X152118416Y-98357783D01*
X152303692Y-98062919D01*
X152454788Y-97749165D01*
X152569804Y-97420467D01*
X152600547Y-97285772D01*
X175535787Y-97285772D01*
X175546280Y-97388483D01*
X175601427Y-97554905D01*
X175601429Y-97554910D01*
X175693470Y-97704131D01*
X175817440Y-97828101D01*
X175966661Y-97920142D01*
X175966666Y-97920144D01*
X176133088Y-97975291D01*
X176133095Y-97975292D01*
X176235805Y-97985785D01*
X176360785Y-97985785D01*
X176860786Y-97985785D01*
X176985758Y-97985785D01*
X176985772Y-97985784D01*
X177088483Y-97975291D01*
X177254905Y-97920144D01*
X177254910Y-97920142D01*
X177404131Y-97828101D01*
X177528101Y-97704131D01*
X177620142Y-97554910D01*
X177620144Y-97554905D01*
X177675291Y-97388483D01*
X177675292Y-97388476D01*
X177685785Y-97285772D01*
X177685786Y-97285759D01*
X177685786Y-96835786D01*
X176860786Y-96835786D01*
X176860786Y-97985785D01*
X176360785Y-97985785D01*
X176360786Y-97985784D01*
X176360786Y-96835786D01*
X175535787Y-96835786D01*
X175535787Y-97285772D01*
X152600547Y-97285772D01*
X152647295Y-97080957D01*
X152686286Y-96734906D01*
X152686286Y-96386666D01*
X152647295Y-96040615D01*
X152614172Y-95895492D01*
X175535786Y-95895492D01*
X175535786Y-96335786D01*
X177685785Y-96335786D01*
X177685785Y-95885814D01*
X177685784Y-95885807D01*
X177685218Y-95880262D01*
X177685218Y-95880258D01*
X177684179Y-95870084D01*
X178585286Y-95870084D01*
X178585286Y-97301487D01*
X178588187Y-97338353D01*
X178588188Y-97338359D01*
X178634040Y-97496179D01*
X178634041Y-97496182D01*
X178717703Y-97637648D01*
X178717709Y-97637656D01*
X178833915Y-97753862D01*
X178833919Y-97753865D01*
X178833921Y-97753867D01*
X178975388Y-97837530D01*
X179017010Y-97849622D01*
X179133212Y-97883383D01*
X179133215Y-97883383D01*
X179133217Y-97883384D01*
X179170092Y-97886286D01*
X179170100Y-97886286D01*
X179951472Y-97886286D01*
X179951480Y-97886286D01*
X179988355Y-97883384D01*
X179988357Y-97883383D01*
X179988359Y-97883383D01*
X180029977Y-97871291D01*
X180146184Y-97837530D01*
X180287651Y-97753867D01*
X180403867Y-97637651D01*
X180487530Y-97496184D01*
X180533384Y-97338355D01*
X180533383Y-97338355D01*
X180533385Y-97338352D01*
X180533449Y-97338003D01*
X180533538Y-97337825D01*
X180535152Y-97332271D01*
X180536183Y-97332570D01*
X180564860Y-97275592D01*
X180625026Y-97240071D01*
X180655430Y-97236286D01*
X183485843Y-97236286D01*
X183552882Y-97255971D01*
X183598637Y-97308775D01*
X183606734Y-97332693D01*
X183626768Y-97420470D01*
X183626771Y-97420478D01*
X183741785Y-97749168D01*
X183892878Y-98062916D01*
X184078157Y-98357785D01*
X184078158Y-98357787D01*
X184295273Y-98630042D01*
X184541529Y-98876298D01*
X184813784Y-99093413D01*
X184813787Y-99093414D01*
X184813789Y-99093416D01*
X185108653Y-99278692D01*
X185422407Y-99429788D01*
X185669274Y-99516170D01*
X185751093Y-99544800D01*
X185751101Y-99544803D01*
X185751104Y-99544803D01*
X185751105Y-99544804D01*
X186090615Y-99622295D01*
X186436662Y-99661285D01*
X186436663Y-99661286D01*
X186436666Y-99661286D01*
X186784909Y-99661286D01*
X186784909Y-99661285D01*
X187130957Y-99622295D01*
X187470467Y-99544804D01*
X187799165Y-99429788D01*
X188112919Y-99278692D01*
X188407783Y-99093416D01*
X188407787Y-99093413D01*
X188680042Y-98876298D01*
X188680044Y-98876295D01*
X188680049Y-98876292D01*
X188926292Y-98630049D01*
X188958064Y-98590209D01*
X189143413Y-98357787D01*
X189143414Y-98357785D01*
X189143416Y-98357783D01*
X189328692Y-98062919D01*
X189479788Y-97749165D01*
X189594804Y-97420467D01*
X189672295Y-97080957D01*
X189711286Y-96734906D01*
X189711286Y-96386666D01*
X189672295Y-96040615D01*
X189594804Y-95701105D01*
X189574772Y-95643858D01*
X189565256Y-95616661D01*
X189479788Y-95372407D01*
X189328692Y-95058653D01*
X189143416Y-94763789D01*
X189143414Y-94763786D01*
X189143413Y-94763784D01*
X188926298Y-94491529D01*
X188680042Y-94245273D01*
X188407787Y-94028158D01*
X188407785Y-94028157D01*
X188112916Y-93842878D01*
X187799168Y-93691785D01*
X187470478Y-93576771D01*
X187470470Y-93576768D01*
X187215834Y-93518649D01*
X187130957Y-93499277D01*
X187130953Y-93499276D01*
X187130944Y-93499275D01*
X186784910Y-93460286D01*
X186784906Y-93460286D01*
X186436666Y-93460286D01*
X186436661Y-93460286D01*
X186090627Y-93499275D01*
X186090615Y-93499277D01*
X185751101Y-93576768D01*
X185751093Y-93576771D01*
X185422403Y-93691785D01*
X185108655Y-93842878D01*
X184813786Y-94028157D01*
X184813784Y-94028158D01*
X184541529Y-94245273D01*
X184295273Y-94491529D01*
X184078158Y-94763784D01*
X184078157Y-94763786D01*
X183892878Y-95058655D01*
X183741785Y-95372403D01*
X183626771Y-95701093D01*
X183626768Y-95701101D01*
X183595322Y-95838879D01*
X183561213Y-95899857D01*
X183499552Y-95932715D01*
X183474431Y-95935286D01*
X180655430Y-95935286D01*
X180588391Y-95915601D01*
X180542636Y-95862797D01*
X180535242Y-95839274D01*
X180535152Y-95839301D01*
X180533946Y-95835153D01*
X180533449Y-95833569D01*
X180533385Y-95833219D01*
X180500324Y-95719426D01*
X180487530Y-95675388D01*
X180403867Y-95533921D01*
X180403865Y-95533919D01*
X180403862Y-95533915D01*
X180287656Y-95417709D01*
X180287648Y-95417703D01*
X180146182Y-95334041D01*
X180146179Y-95334040D01*
X179988359Y-95288188D01*
X179988353Y-95288187D01*
X179951487Y-95285286D01*
X179951480Y-95285286D01*
X179170092Y-95285286D01*
X179170084Y-95285286D01*
X179133218Y-95288187D01*
X179133212Y-95288188D01*
X178975392Y-95334040D01*
X178975389Y-95334041D01*
X178833923Y-95417703D01*
X178833915Y-95417709D01*
X178717709Y-95533915D01*
X178717703Y-95533923D01*
X178634041Y-95675389D01*
X178634040Y-95675392D01*
X178588188Y-95833212D01*
X178588187Y-95833218D01*
X178585286Y-95870084D01*
X177684179Y-95870084D01*
X177675292Y-95783089D01*
X177620143Y-95616664D01*
X177620142Y-95616661D01*
X177604246Y-95590888D01*
X177585786Y-95525794D01*
X177585786Y-92704261D01*
X178885286Y-92704261D01*
X178885286Y-94267303D01*
X178896078Y-94335443D01*
X178900140Y-94361090D01*
X178957736Y-94474128D01*
X178957738Y-94474130D01*
X178957740Y-94474133D01*
X179047438Y-94563831D01*
X179047440Y-94563832D01*
X179047444Y-94563836D01*
X179160480Y-94621431D01*
X179160484Y-94621433D01*
X179254261Y-94636285D01*
X179254267Y-94636286D01*
X180317304Y-94636285D01*
X180411090Y-94621432D01*
X180524128Y-94563836D01*
X180613836Y-94474128D01*
X180671432Y-94361090D01*
X180671432Y-94361088D01*
X180671433Y-94361087D01*
X180686285Y-94267310D01*
X180686286Y-94267305D01*
X180686285Y-92704268D01*
X180671432Y-92610482D01*
X180613836Y-92497444D01*
X180613832Y-92497440D01*
X180613831Y-92497438D01*
X180524133Y-92407740D01*
X180524130Y-92407738D01*
X180524128Y-92407736D01*
X180447303Y-92368591D01*
X180411087Y-92350138D01*
X180317310Y-92335286D01*
X179254268Y-92335286D01*
X179173305Y-92348109D01*
X179160482Y-92350140D01*
X179047444Y-92407736D01*
X179047443Y-92407737D01*
X179047438Y-92407740D01*
X178957740Y-92497438D01*
X178957737Y-92497443D01*
X178900138Y-92610484D01*
X178885286Y-92704261D01*
X177585786Y-92704261D01*
X177585786Y-92085786D01*
X175585786Y-92085786D01*
X175585786Y-95643858D01*
X175584111Y-95654234D01*
X175583154Y-95669271D01*
X175535786Y-95895492D01*
X152614172Y-95895492D01*
X152569804Y-95701105D01*
X152549772Y-95643858D01*
X152540256Y-95616661D01*
X152454788Y-95372407D01*
X152303692Y-95058653D01*
X152118416Y-94763789D01*
X152118414Y-94763786D01*
X152118413Y-94763784D01*
X151901298Y-94491529D01*
X151655042Y-94245273D01*
X151382787Y-94028158D01*
X151382785Y-94028157D01*
X151087916Y-93842878D01*
X150774168Y-93691785D01*
X150445478Y-93576771D01*
X150445470Y-93576768D01*
X150190834Y-93518649D01*
X150105957Y-93499277D01*
X150105953Y-93499276D01*
X150105944Y-93499275D01*
X149759910Y-93460286D01*
X149759906Y-93460286D01*
X149411666Y-93460286D01*
X149411661Y-93460286D01*
X149065627Y-93499275D01*
X149065615Y-93499277D01*
X148726101Y-93576768D01*
X148726093Y-93576771D01*
X148397403Y-93691785D01*
X148083655Y-93842878D01*
X147788786Y-94028157D01*
X147788784Y-94028158D01*
X147516529Y-94245273D01*
X147270273Y-94491529D01*
X147053158Y-94763784D01*
X147053157Y-94763786D01*
X146867878Y-95058655D01*
X146716785Y-95372403D01*
X146601771Y-95701093D01*
X146601768Y-95701101D01*
X146524277Y-96040615D01*
X146524275Y-96040627D01*
X146485286Y-96386661D01*
X146086286Y-96386661D01*
X146086286Y-92121216D01*
X154148786Y-92121216D01*
X154148786Y-92290355D01*
X154167378Y-92407740D01*
X154175243Y-92457399D01*
X154202431Y-92541076D01*
X154227508Y-92618255D01*
X154272363Y-92706286D01*
X154304291Y-92768947D01*
X154403703Y-92905776D01*
X154523296Y-93025369D01*
X154660125Y-93124781D01*
X154731320Y-93161057D01*
X154810816Y-93201563D01*
X154810818Y-93201563D01*
X154810821Y-93201565D01*
X154971673Y-93253829D01*
X155073933Y-93270024D01*
X155138717Y-93280286D01*
X155138721Y-93280286D01*
X155307855Y-93280286D01*
X155366912Y-93270931D01*
X155474899Y-93253829D01*
X155635751Y-93201565D01*
X155786447Y-93124781D01*
X155923276Y-93025369D01*
X156042869Y-92905776D01*
X156142281Y-92768947D01*
X156219065Y-92618251D01*
X156271329Y-92457399D01*
X156290669Y-92335286D01*
X156297786Y-92290355D01*
X156297786Y-92121216D01*
X156286093Y-92047394D01*
X156271329Y-91954173D01*
X156219065Y-91793321D01*
X156219063Y-91793318D01*
X156219063Y-91793316D01*
X156171649Y-91700263D01*
X156142281Y-91642625D01*
X156042869Y-91505796D01*
X155923276Y-91386203D01*
X155786447Y-91286791D01*
X155635755Y-91210008D01*
X155558576Y-91184931D01*
X155474899Y-91157743D01*
X155441489Y-91152451D01*
X155307855Y-91131286D01*
X155307851Y-91131286D01*
X155138721Y-91131286D01*
X155138717Y-91131286D01*
X154971673Y-91157743D01*
X154810816Y-91210008D01*
X154660124Y-91286791D01*
X154582058Y-91343509D01*
X154523296Y-91386203D01*
X154523294Y-91386205D01*
X154523293Y-91386205D01*
X154403705Y-91505793D01*
X154403705Y-91505794D01*
X154403703Y-91505796D01*
X154361009Y-91564558D01*
X154304291Y-91642624D01*
X154227508Y-91793316D01*
X154175243Y-91954173D01*
X154148786Y-92121216D01*
X146086286Y-92121216D01*
X146086286Y-90865286D01*
X146105971Y-90798247D01*
X146158775Y-90752492D01*
X146210286Y-90741286D01*
X148211777Y-90741286D01*
X148211786Y-90741286D01*
X148297985Y-90732018D01*
X148349496Y-90720812D01*
X148421146Y-90698096D01*
X148528843Y-90631036D01*
X148581647Y-90585281D01*
X148650828Y-90507709D01*
X148705175Y-90393071D01*
X148724860Y-90326032D01*
X148741286Y-90211786D01*
X148741286Y-89581216D01*
X154148786Y-89581216D01*
X154148786Y-89750355D01*
X154175243Y-89917398D01*
X154227508Y-90078255D01*
X154276209Y-90173834D01*
X154304291Y-90228947D01*
X154403703Y-90365776D01*
X154523296Y-90485369D01*
X154660125Y-90584781D01*
X154731320Y-90621057D01*
X154810816Y-90661563D01*
X154810818Y-90661563D01*
X154810821Y-90661565D01*
X154971673Y-90713829D01*
X155073933Y-90730024D01*
X155138717Y-90740286D01*
X155138721Y-90740286D01*
X155307855Y-90740286D01*
X155366912Y-90730931D01*
X155474899Y-90713829D01*
X155635751Y-90661565D01*
X155786447Y-90584781D01*
X155923276Y-90485369D01*
X156042869Y-90365776D01*
X156142281Y-90228947D01*
X156219065Y-90078251D01*
X156271329Y-89917399D01*
X156288431Y-89809412D01*
X156297786Y-89750355D01*
X156297786Y-89581216D01*
X156286093Y-89507394D01*
X156271329Y-89414173D01*
X156219065Y-89253321D01*
X156219063Y-89253318D01*
X156219063Y-89253316D01*
X156147336Y-89112546D01*
X156142281Y-89102625D01*
X156042869Y-88965796D01*
X155923276Y-88846203D01*
X155786447Y-88746791D01*
X155635755Y-88670008D01*
X155541780Y-88639474D01*
X155474899Y-88617743D01*
X155441489Y-88612451D01*
X155307855Y-88591286D01*
X155307851Y-88591286D01*
X155138721Y-88591286D01*
X155138717Y-88591286D01*
X154971673Y-88617743D01*
X154810816Y-88670008D01*
X154660124Y-88746791D01*
X154595237Y-88793935D01*
X154523296Y-88846203D01*
X154523294Y-88846205D01*
X154523293Y-88846205D01*
X154403705Y-88965793D01*
X154403705Y-88965794D01*
X154403703Y-88965796D01*
X154380195Y-88998152D01*
X154304291Y-89102624D01*
X154227508Y-89253316D01*
X154175243Y-89414173D01*
X154148786Y-89581216D01*
X148741286Y-89581216D01*
X148741286Y-86060286D01*
X148760971Y-85993247D01*
X148813775Y-85947492D01*
X148865286Y-85936286D01*
X149562179Y-85936286D01*
X149629218Y-85955971D01*
X149630848Y-85957036D01*
X149780455Y-86056536D01*
X149802333Y-86082600D01*
X149824580Y-86108275D01*
X149824823Y-86109395D01*
X149825375Y-86110052D01*
X149825956Y-86114602D01*
X149835786Y-86159786D01*
X149835786Y-86411786D01*
X149816101Y-86478825D01*
X149763297Y-86524580D01*
X149711786Y-86535786D01*
X149688491Y-86535786D01*
X149688490Y-86535787D01*
X149688685Y-86538272D01*
X149734504Y-86695984D01*
X149813400Y-86829391D01*
X149830583Y-86897115D01*
X149822023Y-86938001D01*
X149795908Y-87004222D01*
X149791466Y-87041221D01*
X149785286Y-87092684D01*
X149785286Y-87478888D01*
X149790172Y-87519575D01*
X149795908Y-87567347D01*
X149795908Y-87567349D01*
X149795909Y-87567350D01*
X149809491Y-87601792D01*
X149851425Y-87708129D01*
X149853498Y-87710862D01*
X149854616Y-87713804D01*
X149855581Y-87715520D01*
X149855323Y-87715664D01*
X149878320Y-87776174D01*
X149863891Y-87844538D01*
X149853498Y-87860710D01*
X149851425Y-87863442D01*
X149795908Y-88004224D01*
X149791038Y-88044781D01*
X149785286Y-88092684D01*
X149785286Y-88478888D01*
X149787249Y-88495234D01*
X149795908Y-88567347D01*
X149795908Y-88567349D01*
X149795909Y-88567350D01*
X149805348Y-88591286D01*
X149851425Y-88708129D01*
X149942863Y-88828708D01*
X150063442Y-88920146D01*
X150063443Y-88920146D01*
X150063444Y-88920147D01*
X150204222Y-88975663D01*
X150292684Y-88986286D01*
X150292689Y-88986286D01*
X151628883Y-88986286D01*
X151628888Y-88986286D01*
X151717350Y-88975663D01*
X151858128Y-88920147D01*
X151978708Y-88828708D01*
X151978714Y-88828699D01*
X151984701Y-88822714D01*
X151987312Y-88825325D01*
X152029588Y-88793935D01*
X152072466Y-88786286D01*
X152701676Y-88786286D01*
X152701678Y-88786286D01*
X152828972Y-88752178D01*
X152943100Y-88686286D01*
X154060795Y-87568589D01*
X154122116Y-87535106D01*
X154191807Y-87540090D01*
X154247741Y-87581961D01*
X154258954Y-87599969D01*
X154304291Y-87688947D01*
X154403703Y-87825776D01*
X154523296Y-87945369D01*
X154660125Y-88044781D01*
X154697815Y-88063985D01*
X154810816Y-88121563D01*
X154810818Y-88121563D01*
X154810821Y-88121565D01*
X154971673Y-88173829D01*
X155073933Y-88190024D01*
X155138717Y-88200286D01*
X155138721Y-88200286D01*
X155307855Y-88200286D01*
X155366912Y-88190931D01*
X155474899Y-88173829D01*
X155635751Y-88121565D01*
X155786447Y-88044781D01*
X155923276Y-87945369D01*
X156042869Y-87825776D01*
X156142281Y-87688947D01*
X156219065Y-87538251D01*
X156271329Y-87377399D01*
X156288431Y-87269412D01*
X156297786Y-87210355D01*
X156297786Y-87041216D01*
X156281438Y-86938001D01*
X156271329Y-86874173D01*
X156219065Y-86713321D01*
X156219063Y-86713318D01*
X156219063Y-86713316D01*
X156142280Y-86562624D01*
X156042869Y-86425796D01*
X155923276Y-86306203D01*
X155786447Y-86206791D01*
X155687431Y-86156339D01*
X155636636Y-86108365D01*
X155619841Y-86040544D01*
X155636338Y-85983857D01*
X155689678Y-85891472D01*
X155723786Y-85764178D01*
X155723786Y-85632393D01*
X155723786Y-85612622D01*
X155743471Y-85545583D01*
X155783010Y-85506886D01*
X155786432Y-85504788D01*
X155786447Y-85504781D01*
X155923276Y-85405369D01*
X156042869Y-85285776D01*
X156142281Y-85148947D01*
X156219065Y-84998251D01*
X156271329Y-84837399D01*
X156288431Y-84729412D01*
X156297786Y-84670355D01*
X156297786Y-84501216D01*
X156286093Y-84427394D01*
X156271329Y-84334173D01*
X156219065Y-84173321D01*
X156219063Y-84173318D01*
X156219063Y-84173316D01*
X156168499Y-84074080D01*
X156142281Y-84022625D01*
X156042869Y-83885796D01*
X155923276Y-83766203D01*
X155786447Y-83666791D01*
X155635755Y-83590008D01*
X155542608Y-83559743D01*
X155474899Y-83537743D01*
X155441489Y-83532451D01*
X155307855Y-83511286D01*
X155307851Y-83511286D01*
X155138721Y-83511286D01*
X155138717Y-83511286D01*
X154971673Y-83537743D01*
X154810816Y-83590008D01*
X154660119Y-83666793D01*
X154654759Y-83670688D01*
X154588951Y-83694162D01*
X154520899Y-83678332D01*
X154472208Y-83628222D01*
X154458338Y-83559743D01*
X154483692Y-83494636D01*
X154494190Y-83482694D01*
X154851108Y-83125776D01*
X154912431Y-83092292D01*
X154967727Y-83092882D01*
X154971664Y-83093826D01*
X154971673Y-83093829D01*
X155066977Y-83108923D01*
X155138717Y-83120286D01*
X155138721Y-83120286D01*
X155307855Y-83120286D01*
X155366912Y-83110931D01*
X155474899Y-83093829D01*
X155635751Y-83041565D01*
X155786447Y-82964781D01*
X155923276Y-82865369D01*
X156042869Y-82745776D01*
X156142281Y-82608947D01*
X156219065Y-82458251D01*
X156271329Y-82297399D01*
X156288431Y-82189412D01*
X156297786Y-82130355D01*
X156297786Y-81961216D01*
X156286093Y-81887394D01*
X156271329Y-81794173D01*
X156219065Y-81633321D01*
X156219063Y-81633318D01*
X156219063Y-81633316D01*
X156164303Y-81525846D01*
X156142281Y-81482625D01*
X156042869Y-81345796D01*
X155923276Y-81226203D01*
X155786447Y-81126791D01*
X155635755Y-81050008D01*
X155558576Y-81024931D01*
X155474899Y-80997743D01*
X155441489Y-80992451D01*
X155307855Y-80971286D01*
X155307851Y-80971286D01*
X155138721Y-80971286D01*
X155138717Y-80971286D01*
X154971673Y-80997743D01*
X154810816Y-81050008D01*
X154660124Y-81126791D01*
X154614663Y-81159821D01*
X154523296Y-81226203D01*
X154523294Y-81226205D01*
X154523293Y-81226205D01*
X154403705Y-81345793D01*
X154403705Y-81345794D01*
X154403703Y-81345796D01*
X154361009Y-81404558D01*
X154304291Y-81482624D01*
X154227508Y-81633316D01*
X154175243Y-81794173D01*
X154148786Y-81961216D01*
X154148786Y-82130355D01*
X154175243Y-82297399D01*
X154176191Y-82301350D01*
X154172691Y-82371132D01*
X154143294Y-82417962D01*
X153547467Y-83013790D01*
X153486144Y-83047275D01*
X153416453Y-83042291D01*
X153360519Y-83000420D01*
X153336102Y-82934955D01*
X153335786Y-82926109D01*
X153335786Y-82585786D01*
X152587148Y-82585786D01*
X152520109Y-82566101D01*
X152499467Y-82549467D01*
X152485786Y-82535786D01*
X149685787Y-82535786D01*
X149685787Y-82660772D01*
X149696280Y-82763483D01*
X149751427Y-82929905D01*
X149751430Y-82929912D01*
X149817324Y-83036740D01*
X149835786Y-83101838D01*
X149835786Y-84511286D01*
X149816101Y-84578325D01*
X149763297Y-84624080D01*
X149711786Y-84635286D01*
X148865286Y-84635286D01*
X148798247Y-84615601D01*
X148752492Y-84562797D01*
X148741286Y-84511286D01*
X148741286Y-83209794D01*
X148741285Y-83209777D01*
X148740276Y-83200389D01*
X148732018Y-83123587D01*
X148720812Y-83072076D01*
X148698096Y-83000426D01*
X148631036Y-82892729D01*
X148631035Y-82892728D01*
X148631034Y-82892726D01*
X148585287Y-82839931D01*
X148585283Y-82839927D01*
X148585281Y-82839925D01*
X148507709Y-82770744D01*
X148507707Y-82770743D01*
X148507706Y-82770742D01*
X148393073Y-82716397D01*
X148326033Y-82696712D01*
X148326025Y-82696710D01*
X148211786Y-82680286D01*
X146210286Y-82680286D01*
X146143247Y-82660601D01*
X146097492Y-82607797D01*
X146086286Y-82556286D01*
X146086286Y-81910799D01*
X149685786Y-81910799D01*
X149685786Y-82035786D01*
X150835786Y-82035786D01*
X151335786Y-82035786D01*
X152485785Y-82035786D01*
X152485785Y-81910814D01*
X152485784Y-81910799D01*
X152475291Y-81808088D01*
X152420144Y-81641666D01*
X152420142Y-81641661D01*
X152328101Y-81492440D01*
X152204131Y-81368470D01*
X152054910Y-81276429D01*
X152054905Y-81276427D01*
X151888483Y-81221280D01*
X151888476Y-81221279D01*
X151785772Y-81210786D01*
X151335786Y-81210786D01*
X151335786Y-82035786D01*
X150835786Y-82035786D01*
X150835786Y-81210786D01*
X150385814Y-81210786D01*
X150385798Y-81210787D01*
X150283088Y-81221280D01*
X150116666Y-81276427D01*
X150116661Y-81276429D01*
X149967440Y-81368470D01*
X149843470Y-81492440D01*
X149751429Y-81641661D01*
X149751427Y-81641666D01*
X149696280Y-81808088D01*
X149696279Y-81808095D01*
X149685786Y-81910799D01*
X146086286Y-81910799D01*
X146086286Y-74411661D01*
X146510286Y-74411661D01*
X146510286Y-74759910D01*
X146549275Y-75105944D01*
X146549277Y-75105956D01*
X146626768Y-75445470D01*
X146626771Y-75445478D01*
X146741785Y-75774168D01*
X146892878Y-76087916D01*
X147078157Y-76382785D01*
X147078158Y-76382787D01*
X147295273Y-76655042D01*
X147541529Y-76901298D01*
X147813784Y-77118413D01*
X147813787Y-77118414D01*
X147813789Y-77118416D01*
X148108653Y-77303692D01*
X148422407Y-77454788D01*
X148634342Y-77528947D01*
X148751093Y-77569800D01*
X148751105Y-77569804D01*
X148863879Y-77595544D01*
X148924856Y-77629651D01*
X148957715Y-77691312D01*
X148960286Y-77716434D01*
X148960286Y-77924856D01*
X148977984Y-78013825D01*
X148977984Y-78013827D01*
X148985283Y-78050523D01*
X148985286Y-78050532D01*
X149034320Y-78168911D01*
X149105512Y-78275459D01*
X149105513Y-78275460D01*
X149748967Y-78918913D01*
X149782452Y-78980236D01*
X149785286Y-79006594D01*
X149785286Y-79726487D01*
X149788187Y-79763353D01*
X149788188Y-79763359D01*
X149834040Y-79921179D01*
X149834041Y-79921182D01*
X149917703Y-80062648D01*
X149917709Y-80062656D01*
X150033915Y-80178862D01*
X150033919Y-80178865D01*
X150033921Y-80178867D01*
X150175388Y-80262530D01*
X150217010Y-80274622D01*
X150333212Y-80308383D01*
X150333215Y-80308383D01*
X150333217Y-80308384D01*
X150370092Y-80311286D01*
X150370100Y-80311286D01*
X151801472Y-80311286D01*
X151801480Y-80311286D01*
X151838355Y-80308384D01*
X151838357Y-80308383D01*
X151838359Y-80308383D01*
X151879977Y-80296291D01*
X151996184Y-80262530D01*
X152137651Y-80178867D01*
X152253867Y-80062651D01*
X152337530Y-79921184D01*
X152383384Y-79763355D01*
X152386286Y-79726480D01*
X152386286Y-79421216D01*
X154148786Y-79421216D01*
X154148786Y-79590355D01*
X154175243Y-79757398D01*
X154175242Y-79757398D01*
X154227508Y-79918255D01*
X154275146Y-80011747D01*
X154304291Y-80068947D01*
X154403703Y-80205776D01*
X154523296Y-80325369D01*
X154660125Y-80424781D01*
X154731320Y-80461057D01*
X154810816Y-80501563D01*
X154810818Y-80501563D01*
X154810821Y-80501565D01*
X154971673Y-80553829D01*
X155073933Y-80570024D01*
X155138717Y-80580286D01*
X155138721Y-80580286D01*
X155307855Y-80580286D01*
X155366912Y-80570931D01*
X155474899Y-80553829D01*
X155635751Y-80501565D01*
X155786447Y-80424781D01*
X155923276Y-80325369D01*
X156042869Y-80205776D01*
X156142281Y-80068947D01*
X156219065Y-79918251D01*
X156271329Y-79757399D01*
X156289683Y-79641514D01*
X156297786Y-79590355D01*
X156297786Y-79421216D01*
X156296546Y-79413390D01*
X169289286Y-79413390D01*
X169289286Y-79598181D01*
X169318193Y-79780694D01*
X169375300Y-79956450D01*
X169459186Y-80121089D01*
X169459189Y-80121093D01*
X169474016Y-80141501D01*
X169474016Y-80141502D01*
X170045642Y-79569876D01*
X170071908Y-79667900D01*
X170127202Y-79763672D01*
X170205400Y-79841870D01*
X170301172Y-79897164D01*
X170399195Y-79923429D01*
X169827569Y-80495054D01*
X169827569Y-80495055D01*
X169847972Y-80509878D01*
X170012624Y-80593772D01*
X170188377Y-80650878D01*
X170370891Y-80679786D01*
X170555681Y-80679786D01*
X170738194Y-80650878D01*
X170913947Y-80593772D01*
X171078596Y-80509880D01*
X171099001Y-80495054D01*
X171099002Y-80495054D01*
X170527376Y-79923428D01*
X170625400Y-79897164D01*
X170721172Y-79841870D01*
X170799370Y-79763672D01*
X170854664Y-79667900D01*
X170880928Y-79569876D01*
X171452554Y-80141502D01*
X171452554Y-80141501D01*
X171467380Y-80121096D01*
X171551272Y-79956447D01*
X171608378Y-79780694D01*
X171637286Y-79598181D01*
X171637286Y-79413390D01*
X171608378Y-79230877D01*
X171551272Y-79055124D01*
X171467378Y-78890472D01*
X171452555Y-78870069D01*
X171452554Y-78870069D01*
X170880928Y-79441695D01*
X170854664Y-79343672D01*
X170799370Y-79247900D01*
X170721172Y-79169702D01*
X170625400Y-79114408D01*
X170527376Y-79088142D01*
X171099002Y-78516516D01*
X171078593Y-78501689D01*
X171078589Y-78501686D01*
X170913950Y-78417800D01*
X170738194Y-78360693D01*
X170555681Y-78331786D01*
X170370891Y-78331786D01*
X170188377Y-78360693D01*
X170012624Y-78417799D01*
X169847978Y-78501689D01*
X169847974Y-78501692D01*
X169827569Y-78516515D01*
X169827569Y-78516516D01*
X170399196Y-79088142D01*
X170301172Y-79114408D01*
X170205400Y-79169702D01*
X170127202Y-79247900D01*
X170071908Y-79343672D01*
X170045642Y-79441695D01*
X169474016Y-78870069D01*
X169474015Y-78870069D01*
X169459192Y-78890474D01*
X169459189Y-78890478D01*
X169375299Y-79055124D01*
X169318193Y-79230877D01*
X169289286Y-79413390D01*
X156296546Y-79413390D01*
X156285504Y-79343672D01*
X156271329Y-79254173D01*
X156219065Y-79093321D01*
X156219063Y-79093318D01*
X156219063Y-79093316D01*
X156161445Y-78980236D01*
X156142281Y-78942625D01*
X156042869Y-78805796D01*
X155923276Y-78686203D01*
X155786447Y-78586791D01*
X155635755Y-78510008D01*
X155558576Y-78484931D01*
X155474899Y-78457743D01*
X155441489Y-78452451D01*
X155307855Y-78431286D01*
X155307851Y-78431286D01*
X155138721Y-78431286D01*
X155138717Y-78431286D01*
X154971673Y-78457743D01*
X154810816Y-78510008D01*
X154660124Y-78586791D01*
X154582058Y-78643509D01*
X154523296Y-78686203D01*
X154523294Y-78686205D01*
X154523293Y-78686205D01*
X154403705Y-78805793D01*
X154403705Y-78805794D01*
X154403703Y-78805796D01*
X154362472Y-78862545D01*
X154304291Y-78942624D01*
X154227508Y-79093316D01*
X154175243Y-79254173D01*
X154148786Y-79421216D01*
X152386286Y-79421216D01*
X152386286Y-78945092D01*
X152383384Y-78908217D01*
X152378230Y-78890478D01*
X152337531Y-78750392D01*
X152337530Y-78750389D01*
X152337530Y-78750388D01*
X152253867Y-78608921D01*
X152253865Y-78608919D01*
X152253862Y-78608915D01*
X152137656Y-78492709D01*
X152137648Y-78492703D01*
X151996182Y-78409041D01*
X151996179Y-78409040D01*
X151838359Y-78363188D01*
X151838353Y-78363187D01*
X151801487Y-78360286D01*
X151801480Y-78360286D01*
X151081594Y-78360286D01*
X151014555Y-78340601D01*
X150993913Y-78323967D01*
X150439098Y-77769152D01*
X150405613Y-77707829D01*
X150410597Y-77638137D01*
X150452469Y-77582204D01*
X150485819Y-77564431D01*
X150799165Y-77454788D01*
X151112919Y-77303692D01*
X151407783Y-77118416D01*
X151493134Y-77050351D01*
X151680042Y-76901298D01*
X151680046Y-76901294D01*
X151680049Y-76901292D01*
X151700125Y-76881216D01*
X154148786Y-76881216D01*
X154148786Y-77050355D01*
X154175243Y-77217398D01*
X154227508Y-77378255D01*
X154304291Y-77528947D01*
X154403703Y-77665776D01*
X154523296Y-77785369D01*
X154660125Y-77884781D01*
X154731320Y-77921057D01*
X154810816Y-77961563D01*
X154810818Y-77961563D01*
X154810821Y-77961565D01*
X154971673Y-78013829D01*
X155073933Y-78030024D01*
X155138717Y-78040286D01*
X155138721Y-78040286D01*
X155307855Y-78040286D01*
X155366912Y-78030931D01*
X155474899Y-78013829D01*
X155635751Y-77961565D01*
X155786447Y-77884781D01*
X155923276Y-77785369D01*
X156042869Y-77665776D01*
X156142281Y-77528947D01*
X156219065Y-77378251D01*
X156271329Y-77217399D01*
X156288431Y-77109412D01*
X156297786Y-77050355D01*
X156297786Y-76881216D01*
X156272664Y-76722605D01*
X156271329Y-76714173D01*
X156219065Y-76553321D01*
X156219063Y-76553318D01*
X156219063Y-76553316D01*
X156178557Y-76473820D01*
X156142281Y-76402625D01*
X156042869Y-76265796D01*
X155923276Y-76146203D01*
X155786447Y-76046791D01*
X155740821Y-76023543D01*
X155635755Y-75970008D01*
X155558576Y-75944931D01*
X155474899Y-75917743D01*
X155438916Y-75912044D01*
X155307855Y-75891286D01*
X155307851Y-75891286D01*
X155138721Y-75891286D01*
X155138717Y-75891286D01*
X154971673Y-75917743D01*
X154810816Y-75970008D01*
X154660124Y-76046791D01*
X154603525Y-76087913D01*
X154523296Y-76146203D01*
X154523294Y-76146205D01*
X154523293Y-76146205D01*
X154403705Y-76265793D01*
X154403705Y-76265794D01*
X154403703Y-76265796D01*
X154361009Y-76324558D01*
X154304291Y-76402624D01*
X154227508Y-76553316D01*
X154175243Y-76714173D01*
X154148786Y-76881216D01*
X151700125Y-76881216D01*
X151926292Y-76655049D01*
X151942053Y-76635286D01*
X152143413Y-76382787D01*
X152143414Y-76382785D01*
X152143416Y-76382783D01*
X152328692Y-76087919D01*
X152479788Y-75774165D01*
X152594804Y-75445467D01*
X152672295Y-75105957D01*
X152711286Y-74759906D01*
X152711286Y-74411666D01*
X152711285Y-74411661D01*
X152704364Y-74350234D01*
X152704364Y-74350232D01*
X152703348Y-74341216D01*
X154148786Y-74341216D01*
X154148786Y-74510355D01*
X154175243Y-74677398D01*
X154227508Y-74838255D01*
X154304291Y-74988947D01*
X154403703Y-75125776D01*
X154523296Y-75245369D01*
X154660125Y-75344781D01*
X154731320Y-75381057D01*
X154810816Y-75421563D01*
X154810818Y-75421563D01*
X154810821Y-75421565D01*
X154971673Y-75473829D01*
X155073933Y-75490024D01*
X155138717Y-75500286D01*
X155138721Y-75500286D01*
X155307855Y-75500286D01*
X155366912Y-75490931D01*
X155474899Y-75473829D01*
X155635751Y-75421565D01*
X155786447Y-75344781D01*
X155923276Y-75245369D01*
X156042869Y-75125776D01*
X156142281Y-74988947D01*
X156219065Y-74838251D01*
X156271329Y-74677399D01*
X156292800Y-74541832D01*
X156297786Y-74510355D01*
X156297786Y-74341216D01*
X156285809Y-74265601D01*
X156271329Y-74174173D01*
X156219065Y-74013321D01*
X156219063Y-74013318D01*
X156219063Y-74013316D01*
X156155306Y-73888188D01*
X156142281Y-73862625D01*
X156042869Y-73725796D01*
X155923276Y-73606203D01*
X155786447Y-73506791D01*
X155774071Y-73500485D01*
X155635755Y-73430008D01*
X155540401Y-73399026D01*
X155474899Y-73377743D01*
X155441489Y-73372451D01*
X155307855Y-73351286D01*
X155307851Y-73351286D01*
X155138721Y-73351286D01*
X155138717Y-73351286D01*
X154971673Y-73377743D01*
X154810816Y-73430008D01*
X154660124Y-73506791D01*
X154586125Y-73560555D01*
X154523296Y-73606203D01*
X154523294Y-73606205D01*
X154523293Y-73606205D01*
X154403705Y-73725793D01*
X154403705Y-73725794D01*
X154403703Y-73725796D01*
X154402514Y-73727433D01*
X154304291Y-73862624D01*
X154227508Y-74013316D01*
X154175243Y-74174173D01*
X154148786Y-74341216D01*
X152703348Y-74341216D01*
X152672297Y-74065629D01*
X152672296Y-74065624D01*
X152672295Y-74065615D01*
X152594804Y-73726105D01*
X152479788Y-73397407D01*
X152328692Y-73083653D01*
X152143416Y-72788789D01*
X152143414Y-72788786D01*
X152143413Y-72788784D01*
X151926298Y-72516529D01*
X151680042Y-72270273D01*
X151407787Y-72053158D01*
X151407785Y-72053157D01*
X151112916Y-71867878D01*
X150799168Y-71716785D01*
X150470478Y-71601771D01*
X150470470Y-71601768D01*
X150215834Y-71543649D01*
X150130957Y-71524277D01*
X150130953Y-71524276D01*
X150130944Y-71524275D01*
X149784910Y-71485286D01*
X149784906Y-71485286D01*
X149436666Y-71485286D01*
X149436661Y-71485286D01*
X149090627Y-71524275D01*
X149090615Y-71524277D01*
X148751101Y-71601768D01*
X148751093Y-71601771D01*
X148422403Y-71716785D01*
X148108655Y-71867878D01*
X147813786Y-72053157D01*
X147813784Y-72053158D01*
X147541529Y-72270273D01*
X147295273Y-72516529D01*
X147078158Y-72788784D01*
X147078157Y-72788786D01*
X146892878Y-73083655D01*
X146741785Y-73397403D01*
X146626771Y-73726093D01*
X146626768Y-73726101D01*
X146549277Y-74065615D01*
X146549275Y-74065627D01*
X146510286Y-74411661D01*
X146086286Y-74411661D01*
X146086286Y-72590219D01*
X146086602Y-72581372D01*
X146100917Y-72381233D01*
X146103435Y-72363721D01*
X146103436Y-72363720D01*
X146145144Y-72171995D01*
X146150127Y-72155026D01*
X146188122Y-72053157D01*
X146218700Y-71971174D01*
X146226041Y-71955099D01*
X146320084Y-71782875D01*
X146329643Y-71768002D01*
X146447231Y-71610923D01*
X146458810Y-71597559D01*
X146597559Y-71458810D01*
X146610923Y-71447231D01*
X146610937Y-71447221D01*
X146768002Y-71329643D01*
X146782879Y-71320081D01*
X146955099Y-71226041D01*
X146971174Y-71218700D01*
X147155026Y-71150127D01*
X147171995Y-71145144D01*
X147363727Y-71103434D01*
X147381228Y-71100917D01*
X147581372Y-71086601D01*
X147590219Y-71086286D01*
X147651682Y-71086286D01*
X156211786Y-71086286D01*
X156278825Y-71105971D01*
G37*
%TD.AperFunction*%
%TD*%
%TA.AperFunction,Conductor*%
%TO.N,GND*%
G36*
X148278825Y-83105471D02*
G01*
X148324580Y-83158275D01*
X148335786Y-83209786D01*
X148335786Y-90211786D01*
X148316101Y-90278825D01*
X148263297Y-90324580D01*
X148211786Y-90335786D01*
X146210286Y-90335786D01*
X146143247Y-90316101D01*
X146097492Y-90263297D01*
X146086286Y-90211786D01*
X146086286Y-83209786D01*
X146105971Y-83142747D01*
X146158775Y-83096992D01*
X146210286Y-83085786D01*
X148211786Y-83085786D01*
X148278825Y-83105471D01*
G37*
%TD.AperFunction*%
%TD*%
M02*
