%TF.GenerationSoftware,KiCad,Pcbnew,9.0.7*%
%TF.CreationDate,2026-03-22T11:42:41+07:00*%
%TF.ProjectId,aqm_sensor,61716d5f-7365-46e7-936f-722e6b696361,rev?*%
%TF.SameCoordinates,Original*%
%TF.FileFunction,Soldermask,Bot*%
%TF.FilePolarity,Negative*%
%FSLAX46Y46*%
G04 Gerber Fmt 4.6, Leading zero omitted, Abs format (unit mm)*
G04 Created by KiCad (PCBNEW 9.0.7) date 2026-03-22 11:42:41*
%MOMM*%
%LPD*%
G01*
G04 APERTURE LIST*
G04 Aperture macros list*
%AMRoundRect*
0 Rectangle with rounded corners*
0 $1 Rounding radius*
0 $2 $3 $4 $5 $6 $7 $8 $9 X,Y pos of 4 corners*
0 Add a 4 corners polygon primitive as box body*
4,1,4,$2,$3,$4,$5,$6,$7,$8,$9,$2,$3,0*
0 Add four circle primitives for the rounded corners*
1,1,$1+$1,$2,$3*
1,1,$1+$1,$4,$5*
1,1,$1+$1,$6,$7*
1,1,$1+$1,$8,$9*
0 Add four rect primitives between the rounded corners*
20,1,$1+$1,$2,$3,$4,$5,0*
20,1,$1+$1,$4,$5,$6,$7,0*
20,1,$1+$1,$6,$7,$8,$9,0*
20,1,$1+$1,$8,$9,$2,$3,0*%
G04 Aperture macros list end*
%ADD10C,0.800000*%
%ADD11C,5.400000*%
%ADD12C,2.000000*%
%ADD13C,1.000000*%
%ADD14RoundRect,0.250000X-0.250000X0.250000X-0.250000X-0.250000X0.250000X-0.250000X0.250000X0.250000X0*%
%ADD15C,1.552000*%
G04 APERTURE END LIST*
D10*
%TO.C,H2*%
X147374627Y-96585786D03*
X147967736Y-95153895D03*
X147967736Y-98017677D03*
X149399627Y-94560786D03*
D11*
X149399627Y-96585786D03*
D10*
X149399627Y-98610786D03*
X150831518Y-95153895D03*
X150831518Y-98017677D03*
X151424627Y-96585786D03*
%TD*%
%TO.C,H1*%
X147560786Y-74585786D03*
X148153895Y-73153895D03*
X148153895Y-76017677D03*
X149585786Y-72560786D03*
D11*
X149585786Y-74585786D03*
D10*
X149585786Y-76610786D03*
X151017677Y-73153895D03*
X151017677Y-76017677D03*
X151610786Y-74585786D03*
%TD*%
D12*
%TO.C,TP1*%
X157585786Y-80585786D03*
%TD*%
D10*
%TO.C,H3*%
X184535786Y-74585786D03*
X185128895Y-73153895D03*
X185128895Y-76017677D03*
X186560786Y-72560786D03*
D11*
X186560786Y-74585786D03*
D10*
X186560786Y-76610786D03*
X187992677Y-73153895D03*
X187992677Y-76017677D03*
X188585786Y-74585786D03*
%TD*%
D13*
%TO.C,J1*%
X149925268Y-80195786D03*
X149925268Y-81445786D03*
X149925268Y-82705786D03*
X149925268Y-83955786D03*
X149925268Y-85195786D03*
X149925268Y-86445786D03*
D14*
X149925268Y-87705786D03*
D13*
X149925268Y-88955786D03*
%TD*%
D12*
%TO.C,TP3*%
X157585786Y-84585786D03*
%TD*%
D15*
%TO.C,U1*%
X162085786Y-74455786D03*
X162085786Y-76995786D03*
X162085786Y-79535786D03*
X162085786Y-82075786D03*
X162085786Y-87155786D03*
X162085786Y-84615786D03*
X177325786Y-92235786D03*
X162085786Y-92235786D03*
X177325786Y-89695786D03*
X177325786Y-87155786D03*
X177325786Y-84615786D03*
X177325786Y-82075786D03*
X177325786Y-79535786D03*
X177325786Y-76995786D03*
X177325786Y-74455786D03*
X162085786Y-89695786D03*
%TD*%
D10*
%TO.C,H4*%
X184560786Y-96560786D03*
X185153895Y-95128895D03*
X185153895Y-97992677D03*
X186585786Y-94535786D03*
D11*
X186585786Y-96560786D03*
D10*
X186585786Y-98585786D03*
X188017677Y-95128895D03*
X188017677Y-97992677D03*
X188610786Y-96560786D03*
%TD*%
M02*
