%TF.GenerationSoftware,KiCad,Pcbnew,9.0.7*%
%TF.CreationDate,2026-03-22T11:42:41+07:00*%
%TF.ProjectId,aqm_sensor,61716d5f-7365-46e7-936f-722e6b696361,rev?*%
%TF.SameCoordinates,Original*%
%TF.FileFunction,Legend,Bot*%
%TF.FilePolarity,Positive*%
%FSLAX46Y46*%
G04 Gerber Fmt 4.6, Leading zero omitted, Abs format (unit mm)*
G04 Created by KiCad (PCBNEW 9.0.7) date 2026-03-22 11:42:41*
%MOMM*%
%LPD*%
G01*
G04 APERTURE LIST*
G04 Aperture macros list*
%AMRoundRect*
0 Rectangle with rounded corners*
0 $1 Rounding radius*
0 $2 $3 $4 $5 $6 $7 $8 $9 X,Y pos of 4 corners*
0 Add a 4 corners polygon primitive as box body*
4,1,4,$2,$3,$4,$5,$6,$7,$8,$9,$2,$3,0*
0 Add four circle primitives for the rounded corners*
1,1,$1+$1,$2,$3*
1,1,$1+$1,$4,$5*
1,1,$1+$1,$6,$7*
1,1,$1+$1,$8,$9*
0 Add four rect primitives between the rounded corners*
20,1,$1+$1,$2,$3,$4,$5,0*
20,1,$1+$1,$4,$5,$6,$7,0*
20,1,$1+$1,$6,$7,$8,$9,0*
20,1,$1+$1,$8,$9,$2,$3,0*%
G04 Aperture macros list end*
%ADD10C,0.500000*%
%ADD11C,0.800000*%
%ADD12C,5.400000*%
%ADD13C,2.000000*%
%ADD14C,1.000000*%
%ADD15RoundRect,0.250000X-0.250000X0.250000X-0.250000X-0.250000X0.250000X-0.250000X0.250000X0.250000X0*%
%ADD16C,1.552000*%
G04 APERTURE END LIST*
D10*
G36*
X184878419Y-84466743D02*
G01*
X184921582Y-84321044D01*
X184988634Y-84213341D01*
X185049693Y-84161437D01*
X185128909Y-84128943D01*
X185231960Y-84117171D01*
X185331400Y-84129350D01*
X185414859Y-84164328D01*
X185486101Y-84222480D01*
X185546881Y-84307680D01*
X185601633Y-84439203D01*
X185638276Y-84612292D01*
X185651906Y-84837382D01*
X185634912Y-85045861D01*
X185588981Y-85204791D01*
X185518946Y-85325104D01*
X185446481Y-85397992D01*
X185359737Y-85450354D01*
X185255819Y-85483082D01*
X185130447Y-85494700D01*
X185024237Y-85482167D01*
X184920398Y-85444020D01*
X184828563Y-85387538D01*
X184769884Y-85330294D01*
X184727904Y-85365404D01*
X184770036Y-85466154D01*
X184805146Y-85570568D01*
X184889142Y-85623384D01*
X184999472Y-85669639D01*
X185123105Y-85698941D01*
X185278214Y-85709634D01*
X185447906Y-85700623D01*
X185590228Y-85675492D01*
X185709303Y-85636514D01*
X185821025Y-85580325D01*
X185914271Y-85514074D01*
X185991250Y-85437761D01*
X186082789Y-85303875D01*
X186143750Y-85153371D01*
X186177946Y-84993639D01*
X186189240Y-84834176D01*
X186172725Y-84647565D01*
X186124515Y-84478497D01*
X186045178Y-84325193D01*
X185938738Y-84195939D01*
X185806678Y-84090988D01*
X185646105Y-84009399D01*
X185467800Y-83958884D01*
X185264170Y-83941316D01*
X185072683Y-83953494D01*
X184926046Y-83986195D01*
X184790640Y-84037946D01*
X184661348Y-84103432D01*
X184700688Y-84178062D01*
X184740269Y-84274707D01*
X184794460Y-84466743D01*
X184878419Y-84466743D01*
G37*
G36*
X183828886Y-83955613D02*
G01*
X183982200Y-83997186D01*
X184121005Y-84067190D01*
X184239113Y-84164645D01*
X184334267Y-84287847D01*
X184408709Y-84443693D01*
X184453544Y-84619752D01*
X184469770Y-84837687D01*
X184461521Y-84990143D01*
X184438249Y-85121128D01*
X184401687Y-85233666D01*
X184319899Y-85386880D01*
X184216368Y-85507370D01*
X184090121Y-85600098D01*
X183945259Y-85662465D01*
X183788260Y-85697663D01*
X183620110Y-85709634D01*
X183430857Y-85698445D01*
X183298473Y-85669639D01*
X183182708Y-85622004D01*
X183088729Y-85563394D01*
X183011640Y-85368305D01*
X183053314Y-85336706D01*
X183186111Y-85425037D01*
X183328211Y-85477111D01*
X183483334Y-85494700D01*
X183596590Y-85481454D01*
X183691399Y-85443562D01*
X183772337Y-85383065D01*
X183838250Y-85302512D01*
X183887519Y-85206360D01*
X183923887Y-85088952D01*
X183944648Y-84962825D01*
X183951823Y-84824254D01*
X182949206Y-84824254D01*
X182945695Y-84792807D01*
X182945695Y-84719077D01*
X182948857Y-84674044D01*
X183414641Y-84674044D01*
X183951823Y-84674044D01*
X183935947Y-84469644D01*
X183915390Y-84369835D01*
X183887862Y-84284477D01*
X183849583Y-84208416D01*
X183802377Y-84149991D01*
X183743137Y-84110869D01*
X183670791Y-84097631D01*
X183588798Y-84114359D01*
X183524339Y-84163971D01*
X183473412Y-84254863D01*
X183442828Y-84361381D01*
X183422261Y-84498904D01*
X183414641Y-84674044D01*
X182948857Y-84674044D01*
X182958782Y-84532696D01*
X182995303Y-84378327D01*
X183052428Y-84250404D01*
X183129182Y-84144495D01*
X183227204Y-84058268D01*
X183345163Y-83995301D01*
X183487147Y-83955511D01*
X183658731Y-83941316D01*
X183828886Y-83955613D01*
G37*
G36*
X182624668Y-84238071D02*
G01*
X182631690Y-83609604D01*
X182652756Y-83029832D01*
X182537351Y-83042197D01*
X182390195Y-83047387D01*
X182243344Y-83042197D01*
X182127787Y-83029832D01*
X182148700Y-83609146D01*
X182155722Y-84237308D01*
X182148700Y-84244330D01*
X182046162Y-84114614D01*
X181926439Y-84020542D01*
X181836026Y-83976963D01*
X181736952Y-83950433D01*
X181627241Y-83941316D01*
X181496930Y-83951899D01*
X181388672Y-83981597D01*
X181298380Y-84028601D01*
X181223019Y-84092899D01*
X181165719Y-84171728D01*
X181121445Y-84275313D01*
X181092063Y-84409771D01*
X181081206Y-84582606D01*
X181088228Y-84896305D01*
X181095250Y-85168026D01*
X181090060Y-85410284D01*
X181077695Y-85662923D01*
X181193252Y-85655901D01*
X181340256Y-85655901D01*
X181487260Y-85655901D01*
X181602664Y-85662923D01*
X181583191Y-85473037D01*
X181571218Y-85234734D01*
X181564196Y-84670533D01*
X181574331Y-84524744D01*
X181600824Y-84420383D01*
X181639454Y-84347370D01*
X181696216Y-84290192D01*
X181765440Y-84256111D01*
X181851182Y-84244177D01*
X181948123Y-84259764D01*
X182023356Y-84304264D01*
X182082296Y-84380495D01*
X182120581Y-84474467D01*
X182146199Y-84597825D01*
X182155722Y-84757850D01*
X182155722Y-84897679D01*
X182154043Y-85039187D01*
X182148700Y-85241756D01*
X182139999Y-85465391D01*
X182127787Y-85662923D01*
X182243344Y-85655901D01*
X182390195Y-85655901D01*
X182537351Y-85655901D01*
X182652756Y-85662923D01*
X182631690Y-85093684D01*
X182624668Y-84465064D01*
X182624668Y-84238071D01*
G37*
G36*
X180691028Y-83609756D02*
G01*
X180684006Y-84238376D01*
X180684006Y-84465369D01*
X180691028Y-85095974D01*
X180712094Y-85677425D01*
X180628135Y-85677425D01*
X180475789Y-85571332D01*
X180327106Y-85472413D01*
X180243393Y-85568100D01*
X180138123Y-85644146D01*
X180013672Y-85692267D01*
X179854496Y-85709634D01*
X179718413Y-85698506D01*
X179578044Y-85664296D01*
X179445738Y-85603152D01*
X179324184Y-85507370D01*
X179223218Y-85382334D01*
X179138712Y-85216264D01*
X179100496Y-85094370D01*
X179075818Y-84948646D01*
X179066966Y-84774947D01*
X179067919Y-84761972D01*
X179584913Y-84761972D01*
X179597555Y-85047905D01*
X179629718Y-85244175D01*
X179674214Y-85373190D01*
X179727217Y-85460665D01*
X179784127Y-85516930D01*
X179845577Y-85548804D01*
X179914030Y-85559425D01*
X180000961Y-85544903D01*
X180066377Y-85503707D01*
X180116616Y-85440231D01*
X180157357Y-85352276D01*
X180184557Y-85251356D01*
X180202848Y-85124214D01*
X180215060Y-84838603D01*
X180208841Y-84657785D01*
X180192315Y-84520171D01*
X180162759Y-84396715D01*
X180125911Y-84307680D01*
X180075881Y-84235559D01*
X180020887Y-84191054D01*
X179956817Y-84165041D01*
X179885943Y-84156250D01*
X179803610Y-84169455D01*
X179735643Y-84208033D01*
X179678173Y-84275337D01*
X179631061Y-84380506D01*
X179597821Y-84537089D01*
X179584913Y-84761972D01*
X179067919Y-84761972D01*
X179079490Y-84604379D01*
X179115967Y-84448883D01*
X179175975Y-84305415D01*
X179254269Y-84185559D01*
X179352390Y-84085028D01*
X179467677Y-84007567D01*
X179597395Y-83958155D01*
X179742602Y-83941316D01*
X179845436Y-83950078D01*
X179938754Y-83975644D01*
X180024398Y-84017794D01*
X180099332Y-84075771D01*
X180160281Y-84149019D01*
X180208038Y-84239750D01*
X180215060Y-84239750D01*
X180208038Y-83610367D01*
X180187124Y-83029832D01*
X180302682Y-83042197D01*
X180449533Y-83047387D01*
X180596689Y-83042197D01*
X180712094Y-83029832D01*
X180691028Y-83609756D01*
G37*
G36*
X178848216Y-85533932D02*
G01*
X178380949Y-84868065D01*
X177924214Y-84195328D01*
X178109686Y-84195328D01*
X178282794Y-84195328D01*
X178480325Y-84205098D01*
X178739070Y-84230286D01*
X178725178Y-84106180D01*
X178739070Y-83985890D01*
X178567794Y-83999934D01*
X178396214Y-83999934D01*
X178015042Y-83999934D01*
X177626849Y-83999934D01*
X177450231Y-83999934D01*
X177308570Y-83985890D01*
X177308570Y-84127856D01*
X177787744Y-84800593D01*
X178016921Y-85137624D01*
X178235471Y-85480504D01*
X178032597Y-85480504D01*
X177889105Y-85478825D01*
X177738895Y-85471803D01*
X177560445Y-85459590D01*
X177336505Y-85438677D01*
X177347038Y-85555608D01*
X177336505Y-85665670D01*
X177446720Y-85665670D01*
X177558766Y-85665670D01*
X177683025Y-85665670D01*
X177833234Y-85665670D01*
X178099306Y-85665670D01*
X178423081Y-85665670D01*
X178639999Y-85665670D01*
X178774790Y-85665670D01*
X178848216Y-85665670D01*
X178848216Y-85533932D01*
G37*
G36*
X175537320Y-83956786D02*
G01*
X175707253Y-84004361D01*
X175869630Y-84080750D01*
X176022631Y-84186169D01*
X175977141Y-84395913D01*
X175952717Y-84395913D01*
X175923575Y-84360127D01*
X175880970Y-84324777D01*
X175775946Y-84264022D01*
X175655351Y-84220669D01*
X175532772Y-84205098D01*
X175431439Y-84215871D01*
X175350803Y-84245896D01*
X175286239Y-84293941D01*
X175236364Y-84357673D01*
X175206958Y-84428244D01*
X175196938Y-84508112D01*
X175209303Y-84584896D01*
X175227601Y-84613432D01*
X175263494Y-84642293D01*
X175390958Y-84694500D01*
X175623447Y-84755560D01*
X175738800Y-84787183D01*
X175836854Y-84823338D01*
X175925931Y-84868915D01*
X175999428Y-84922561D01*
X176059607Y-84987787D01*
X176104300Y-85065444D01*
X176131350Y-85154010D01*
X176141089Y-85263891D01*
X176134164Y-85346624D01*
X176113154Y-85429213D01*
X176076937Y-85506471D01*
X176023852Y-85575606D01*
X175955528Y-85631948D01*
X175868300Y-85674829D01*
X175768299Y-85700297D01*
X175641002Y-85709634D01*
X175535559Y-85701456D01*
X175447451Y-85678486D01*
X175373556Y-85642162D01*
X175274621Y-85564291D01*
X175186405Y-85461270D01*
X175132932Y-85570216D01*
X175063520Y-85645826D01*
X174973454Y-85692707D01*
X174852403Y-85709634D01*
X174773395Y-85704204D01*
X174701430Y-85688415D01*
X174529086Y-85624454D01*
X174529086Y-85539275D01*
X174621288Y-85532253D01*
X174657928Y-85520598D01*
X174685554Y-85500959D01*
X174705988Y-85472475D01*
X174722038Y-85429518D01*
X174734250Y-85299001D01*
X174734250Y-84921340D01*
X174734250Y-84904396D01*
X175193427Y-84904396D01*
X175193427Y-85131694D01*
X175202696Y-85243065D01*
X175227582Y-85326515D01*
X175265326Y-85388455D01*
X175318183Y-85436719D01*
X175379708Y-85465291D01*
X175452782Y-85475161D01*
X175535191Y-85458034D01*
X175598259Y-85407536D01*
X175637578Y-85329741D01*
X175652603Y-85211531D01*
X175640346Y-85088968D01*
X175609250Y-85010336D01*
X175559366Y-84948016D01*
X175497814Y-84901038D01*
X175348216Y-84835092D01*
X175193427Y-84767315D01*
X175193427Y-84904396D01*
X174734250Y-84904396D01*
X174734250Y-84508723D01*
X174746812Y-84362515D01*
X174781267Y-84247688D01*
X174838493Y-84148966D01*
X174913616Y-84071986D01*
X175005384Y-84013843D01*
X175115422Y-83972762D01*
X175235436Y-83949462D01*
X175371419Y-83941316D01*
X175537320Y-83956786D01*
G37*
G36*
X173806979Y-83949850D02*
G01*
X173908430Y-83974124D01*
X173996484Y-84012910D01*
X174112502Y-84097336D01*
X174205159Y-84208151D01*
X174274329Y-84339911D01*
X174324533Y-84497732D01*
X174353186Y-84666373D01*
X174363001Y-84848220D01*
X174349484Y-85031739D01*
X174310489Y-85195350D01*
X174247261Y-85345565D01*
X174166844Y-85470887D01*
X174066388Y-85574467D01*
X173951147Y-85648726D01*
X173822371Y-85694271D01*
X173682785Y-85709634D01*
X173531244Y-85692003D01*
X173397326Y-85640483D01*
X173317841Y-85588083D01*
X173255976Y-85527362D01*
X173209564Y-85457759D01*
X173202542Y-85457759D01*
X173209564Y-86037377D01*
X173230630Y-86582039D01*
X173115683Y-86569674D01*
X172969443Y-86564484D01*
X172823203Y-86569674D01*
X172708256Y-86582039D01*
X172729322Y-86032493D01*
X172736344Y-85420206D01*
X172736344Y-85193518D01*
X172732566Y-84855700D01*
X173195520Y-84855700D01*
X173207885Y-85071885D01*
X173239783Y-85223809D01*
X173285127Y-85327241D01*
X173354047Y-85412272D01*
X173430646Y-85459483D01*
X173518531Y-85475161D01*
X173574395Y-85467686D01*
X173634547Y-85443867D01*
X173688579Y-85402912D01*
X173739724Y-85334263D01*
X173779409Y-85248059D01*
X173815287Y-85123757D01*
X173836848Y-84983160D01*
X173845054Y-84793113D01*
X173838319Y-84622507D01*
X173820477Y-84493763D01*
X173789867Y-84378915D01*
X173753768Y-84297147D01*
X173706379Y-84230908D01*
X173655460Y-84189375D01*
X173597297Y-84164467D01*
X173536086Y-84156250D01*
X173444248Y-84173199D01*
X173363579Y-84224593D01*
X173290317Y-84318060D01*
X173242891Y-84431301D01*
X173208879Y-84603690D01*
X173195520Y-84855700D01*
X172732566Y-84855700D01*
X172729322Y-84565662D01*
X172708256Y-83986501D01*
X172823050Y-83998713D01*
X172968832Y-84003903D01*
X173102708Y-83998713D01*
X173201779Y-83986348D01*
X173193078Y-84038555D01*
X173184377Y-84128772D01*
X173180866Y-84219142D01*
X173180866Y-84271044D01*
X173180866Y-84278066D01*
X173232182Y-84178923D01*
X173292962Y-84097538D01*
X173363285Y-84031686D01*
X173445342Y-83983853D01*
X173551846Y-83952743D01*
X173689501Y-83941316D01*
X173806979Y-83949850D01*
G37*
G36*
X171865465Y-84244177D02*
G01*
X171757305Y-84114277D01*
X171636182Y-84020542D01*
X171545671Y-83976963D01*
X171446494Y-83950433D01*
X171336680Y-83941316D01*
X171234467Y-83951105D01*
X171144898Y-83979365D01*
X171065417Y-84025732D01*
X170996971Y-84088195D01*
X170937987Y-84168177D01*
X170888494Y-84268601D01*
X170812502Y-84168804D01*
X170730938Y-84088554D01*
X170643488Y-84025732D01*
X170547366Y-83978507D01*
X170448698Y-83950632D01*
X170345970Y-83941316D01*
X170215742Y-83951897D01*
X170107532Y-83981590D01*
X170017261Y-84028595D01*
X169941900Y-84092899D01*
X169884600Y-84171728D01*
X169840326Y-84275313D01*
X169810944Y-84409771D01*
X169800087Y-84582606D01*
X169807109Y-84896305D01*
X169814131Y-85168026D01*
X169808941Y-85410284D01*
X169796576Y-85662923D01*
X169912133Y-85655901D01*
X170059137Y-85655901D01*
X170206141Y-85655901D01*
X170321698Y-85662923D01*
X170302113Y-85473039D01*
X170290099Y-85234734D01*
X170283077Y-84670533D01*
X170292952Y-84524554D01*
X170318731Y-84420204D01*
X170356197Y-84347370D01*
X170411560Y-84290002D01*
X170478703Y-84256027D01*
X170561514Y-84244177D01*
X170639643Y-84254373D01*
X170698900Y-84282645D01*
X170746942Y-84326570D01*
X170784080Y-84382327D01*
X170809991Y-84445356D01*
X170825754Y-84513302D01*
X170836134Y-84646109D01*
X170836134Y-84897679D01*
X170836134Y-85299459D01*
X170829888Y-85486163D01*
X170811557Y-85662923D01*
X170925283Y-85655901D01*
X171073661Y-85655901D01*
X171220512Y-85655901D01*
X171335916Y-85662923D01*
X171320209Y-85486241D01*
X171314850Y-85299459D01*
X171314850Y-84897679D01*
X171314850Y-84684577D01*
X171329548Y-84487604D01*
X171366447Y-84359582D01*
X171410514Y-84296085D01*
X171473667Y-84258004D01*
X171562604Y-84244177D01*
X171657660Y-84259691D01*
X171731622Y-84304100D01*
X171789750Y-84380495D01*
X171827372Y-84474380D01*
X171852579Y-84597738D01*
X171861954Y-84757850D01*
X171861954Y-84897679D01*
X171861954Y-85299459D01*
X171855708Y-85486163D01*
X171837377Y-85662923D01*
X171951103Y-85655901D01*
X172099481Y-85655901D01*
X172246332Y-85655901D01*
X172361736Y-85662923D01*
X172346029Y-85486698D01*
X172340670Y-85300375D01*
X172340670Y-84899511D01*
X172340670Y-84759987D01*
X172340670Y-84360956D01*
X172345918Y-84174335D01*
X172361736Y-83986195D01*
X172237630Y-83998255D01*
X172113525Y-84003445D01*
X171989571Y-83998255D01*
X171858443Y-83986195D01*
X171872487Y-84244177D01*
X171865465Y-84244177D01*
G37*
G36*
X167873469Y-85914798D02*
G01*
X167873469Y-86090653D01*
X169622247Y-86090653D01*
X169622247Y-85914798D01*
X167873469Y-85914798D01*
G37*
G36*
X167628157Y-85237024D02*
G01*
X167574271Y-85343880D01*
X167492755Y-85434861D01*
X167440270Y-85470589D01*
X167376434Y-85499585D01*
X167305298Y-85517544D01*
X167218287Y-85524010D01*
X167139647Y-85516221D01*
X167078471Y-85494798D01*
X167030831Y-85461117D01*
X166980451Y-85393659D01*
X166964885Y-85324799D01*
X166979861Y-85252115D01*
X167024114Y-85195808D01*
X167088356Y-85150421D01*
X167172186Y-85106660D01*
X167365444Y-85024533D01*
X167466272Y-84976757D01*
X167558853Y-84917982D01*
X167639946Y-84845395D01*
X167706926Y-84755560D01*
X167750079Y-84648509D01*
X167766002Y-84503838D01*
X167751783Y-84363902D01*
X167711963Y-84250588D01*
X167648826Y-84152836D01*
X167570455Y-84075955D01*
X167477911Y-84016713D01*
X167373229Y-83974594D01*
X167262825Y-83949514D01*
X167154937Y-83941316D01*
X167013344Y-83952210D01*
X166894665Y-83982837D01*
X166782287Y-84032400D01*
X166662482Y-84103432D01*
X166715300Y-84253794D01*
X166746899Y-84411178D01*
X166845359Y-84411178D01*
X166880011Y-84318518D01*
X166945804Y-84222195D01*
X166991252Y-84180954D01*
X167046249Y-84146938D01*
X167109007Y-84125057D01*
X167188062Y-84117171D01*
X167285189Y-84131672D01*
X167362848Y-84173194D01*
X167416068Y-84237729D01*
X167433832Y-84319740D01*
X167418379Y-84395760D01*
X167372923Y-84454226D01*
X167306748Y-84500499D01*
X167221646Y-84543222D01*
X167023504Y-84620158D01*
X166919523Y-84664479D01*
X166825362Y-84719687D01*
X166742773Y-84789429D01*
X166674084Y-84878598D01*
X166629557Y-84985640D01*
X166613176Y-85130015D01*
X166627965Y-85276335D01*
X166669199Y-85393645D01*
X166735066Y-85494548D01*
X166819408Y-85575301D01*
X166919507Y-85636412D01*
X167034189Y-85678188D01*
X167156729Y-85701649D01*
X167287439Y-85709634D01*
X167439705Y-85697989D01*
X167570455Y-85664907D01*
X167688591Y-85616764D01*
X167769513Y-85572095D01*
X167734949Y-85403773D01*
X167723565Y-85237024D01*
X167628157Y-85237024D01*
G37*
G36*
X165754915Y-83955613D02*
G01*
X165908230Y-83997186D01*
X166047035Y-84067190D01*
X166165143Y-84164645D01*
X166260296Y-84287847D01*
X166334739Y-84443693D01*
X166379573Y-84619752D01*
X166395799Y-84837687D01*
X166387550Y-84990143D01*
X166364279Y-85121128D01*
X166327717Y-85233666D01*
X166245928Y-85386880D01*
X166142398Y-85507370D01*
X166016151Y-85600098D01*
X165871288Y-85662465D01*
X165714290Y-85697663D01*
X165546140Y-85709634D01*
X165356887Y-85698445D01*
X165224502Y-85669639D01*
X165108737Y-85622004D01*
X165014759Y-85563394D01*
X164937670Y-85368305D01*
X164979344Y-85336706D01*
X165112140Y-85425037D01*
X165254240Y-85477111D01*
X165409364Y-85494700D01*
X165522620Y-85481454D01*
X165617428Y-85443562D01*
X165698366Y-85383065D01*
X165764279Y-85302512D01*
X165813548Y-85206360D01*
X165849917Y-85088952D01*
X165870677Y-84962825D01*
X165877852Y-84824254D01*
X164875235Y-84824254D01*
X164871724Y-84792807D01*
X164871724Y-84719077D01*
X164874886Y-84674044D01*
X165340670Y-84674044D01*
X165877852Y-84674044D01*
X165861976Y-84469644D01*
X165841419Y-84369835D01*
X165813891Y-84284477D01*
X165775612Y-84208416D01*
X165728406Y-84149991D01*
X165669166Y-84110869D01*
X165596820Y-84097631D01*
X165514827Y-84114359D01*
X165450368Y-84163971D01*
X165399441Y-84254863D01*
X165368858Y-84361381D01*
X165348291Y-84498904D01*
X165340670Y-84674044D01*
X164874886Y-84674044D01*
X164884811Y-84532696D01*
X164921332Y-84378327D01*
X164978457Y-84250404D01*
X165055212Y-84144495D01*
X165153233Y-84058268D01*
X165271192Y-83995301D01*
X165413177Y-83955511D01*
X165584761Y-83941316D01*
X165754915Y-83955613D01*
G37*
G36*
X164083888Y-84244177D02*
G01*
X163975728Y-84114277D01*
X163854605Y-84020542D01*
X163764193Y-83976963D01*
X163665118Y-83950433D01*
X163555408Y-83941316D01*
X163425096Y-83951899D01*
X163316838Y-83981597D01*
X163226546Y-84028601D01*
X163151186Y-84092899D01*
X163093886Y-84171728D01*
X163049612Y-84275313D01*
X163020230Y-84409771D01*
X163009372Y-84582606D01*
X163016394Y-84896305D01*
X163023416Y-85168026D01*
X163018226Y-85410284D01*
X163005861Y-85662923D01*
X163121419Y-85655901D01*
X163268422Y-85655901D01*
X163415426Y-85655901D01*
X163530831Y-85662923D01*
X163511357Y-85473037D01*
X163499385Y-85234734D01*
X163492363Y-84670533D01*
X163502460Y-84524717D01*
X163528852Y-84420357D01*
X163567315Y-84347370D01*
X163623781Y-84290162D01*
X163692606Y-84256098D01*
X163777821Y-84244177D01*
X163874030Y-84259735D01*
X163948775Y-84304200D01*
X164007410Y-84380495D01*
X164045446Y-84474434D01*
X164070910Y-84597792D01*
X164080377Y-84757850D01*
X164080377Y-84897679D01*
X164080377Y-85299459D01*
X164074170Y-85486167D01*
X164055953Y-85662923D01*
X164169526Y-85655901D01*
X164317903Y-85655901D01*
X164464907Y-85655901D01*
X164580159Y-85662923D01*
X164564452Y-85486698D01*
X164559093Y-85300375D01*
X164559093Y-84899511D01*
X164559093Y-84759987D01*
X164559093Y-84360956D01*
X164564341Y-84174335D01*
X164580159Y-83986195D01*
X164456206Y-83998255D01*
X164331947Y-84003445D01*
X164207994Y-83998255D01*
X164076866Y-83986195D01*
X164090910Y-84244177D01*
X164083888Y-84244177D01*
G37*
G36*
X162574773Y-85237024D02*
G01*
X162520887Y-85343880D01*
X162439371Y-85434861D01*
X162386885Y-85470589D01*
X162323050Y-85499585D01*
X162251914Y-85517544D01*
X162164903Y-85524010D01*
X162086263Y-85516221D01*
X162025086Y-85494798D01*
X161977446Y-85461117D01*
X161927067Y-85393659D01*
X161911501Y-85324799D01*
X161926476Y-85252115D01*
X161970730Y-85195808D01*
X162034971Y-85150421D01*
X162118802Y-85106660D01*
X162312059Y-85024533D01*
X162412887Y-84976757D01*
X162505469Y-84917982D01*
X162586561Y-84845395D01*
X162653541Y-84755560D01*
X162696694Y-84648509D01*
X162712617Y-84503838D01*
X162698398Y-84363902D01*
X162658579Y-84250588D01*
X162595441Y-84152836D01*
X162517070Y-84075955D01*
X162424526Y-84016713D01*
X162319844Y-83974594D01*
X162209441Y-83949514D01*
X162101552Y-83941316D01*
X161959960Y-83952210D01*
X161841281Y-83982837D01*
X161728902Y-84032400D01*
X161609098Y-84103432D01*
X161661915Y-84253794D01*
X161693514Y-84411178D01*
X161791974Y-84411178D01*
X161826626Y-84318518D01*
X161892419Y-84222195D01*
X161937868Y-84180954D01*
X161992864Y-84146938D01*
X162055622Y-84125057D01*
X162134678Y-84117171D01*
X162231805Y-84131672D01*
X162309464Y-84173194D01*
X162362684Y-84237729D01*
X162380447Y-84319740D01*
X162364994Y-84395760D01*
X162319539Y-84454226D01*
X162253363Y-84500499D01*
X162168261Y-84543222D01*
X161970119Y-84620158D01*
X161866139Y-84664479D01*
X161771977Y-84719687D01*
X161689389Y-84789429D01*
X161620699Y-84878598D01*
X161576173Y-84985640D01*
X161559791Y-85130015D01*
X161574580Y-85276335D01*
X161615814Y-85393645D01*
X161681682Y-85494548D01*
X161766024Y-85575301D01*
X161866123Y-85636412D01*
X161980805Y-85678188D01*
X162103344Y-85701649D01*
X162234054Y-85709634D01*
X162386321Y-85697989D01*
X162517070Y-85664907D01*
X162635207Y-85616764D01*
X162716128Y-85572095D01*
X162681565Y-85403773D01*
X162670180Y-85237024D01*
X162574773Y-85237024D01*
G37*
G36*
X160645312Y-83955711D02*
G01*
X160803859Y-83999018D01*
X160950639Y-84071330D01*
X161079243Y-84173347D01*
X161185214Y-84302339D01*
X161270516Y-84464606D01*
X161309339Y-84582929D01*
X161333811Y-84718059D01*
X161342415Y-84872644D01*
X161333190Y-85027163D01*
X161307359Y-85157276D01*
X161267005Y-85266791D01*
X161178227Y-85413821D01*
X161068710Y-85526605D01*
X160938536Y-85611574D01*
X160793326Y-85667807D01*
X160639306Y-85699182D01*
X160482680Y-85709634D01*
X160298626Y-85694402D01*
X160135245Y-85650405D01*
X159987945Y-85575716D01*
X159863219Y-85470887D01*
X159762949Y-85339514D01*
X159686143Y-85179627D01*
X159639361Y-85001902D01*
X159622945Y-84795861D01*
X159627239Y-84741516D01*
X160140893Y-84741516D01*
X160156409Y-85054346D01*
X160195979Y-85268440D01*
X160251066Y-85408680D01*
X160316422Y-85495458D01*
X160391147Y-85543419D01*
X160479169Y-85559425D01*
X160571157Y-85545814D01*
X160642964Y-85507218D01*
X160700752Y-85446709D01*
X160748752Y-85362809D01*
X160782650Y-85265549D01*
X160806913Y-85145280D01*
X160819914Y-85017178D01*
X160824467Y-84873713D01*
X160811550Y-84605211D01*
X160778229Y-84415347D01*
X160731197Y-84285546D01*
X160676062Y-84198165D01*
X160615935Y-84141257D01*
X160550014Y-84108610D01*
X160475658Y-84097631D01*
X160391073Y-84108496D01*
X160322127Y-84139441D01*
X160265080Y-84190792D01*
X160218440Y-84266464D01*
X160178414Y-84381918D01*
X160151140Y-84536967D01*
X160140893Y-84741516D01*
X159627239Y-84741516D01*
X159638388Y-84600412D01*
X159682095Y-84434465D01*
X159751786Y-84292815D01*
X159847496Y-84171515D01*
X159966333Y-84074062D01*
X160108429Y-84002616D01*
X160278474Y-83957421D01*
X160482680Y-83941316D01*
X160645312Y-83955711D01*
G37*
G36*
X158819692Y-84423543D02*
G01*
X158750158Y-84265781D01*
X158676983Y-84149136D01*
X158600942Y-84065727D01*
X158509743Y-84002030D01*
X158408820Y-83964070D01*
X158295027Y-83951086D01*
X158265260Y-83952917D01*
X158239004Y-83954597D01*
X158254880Y-84067406D01*
X158260070Y-84208456D01*
X158260070Y-84321266D01*
X158260070Y-84381258D01*
X158256559Y-84441098D01*
X158288005Y-84469033D01*
X158366163Y-84434076D01*
X158465234Y-84420032D01*
X158564756Y-84432203D01*
X158645526Y-84466691D01*
X158711919Y-84523377D01*
X158762186Y-84596360D01*
X158792087Y-84676568D01*
X158802289Y-84766399D01*
X158802289Y-84906380D01*
X158802289Y-85308923D01*
X158796082Y-85495784D01*
X158777865Y-85672692D01*
X158891438Y-85665670D01*
X159039968Y-85665670D01*
X159186667Y-85665670D01*
X159301919Y-85672692D01*
X159286324Y-85495422D01*
X159281005Y-85308160D01*
X159281005Y-84904854D01*
X159281005Y-84764567D01*
X159281005Y-84363245D01*
X159286215Y-84175553D01*
X159301919Y-83986348D01*
X159183156Y-83998713D01*
X159064240Y-84004056D01*
X158945629Y-83998713D01*
X158826714Y-83986348D01*
X158826714Y-84416521D01*
X158819692Y-84423543D01*
G37*
G36*
X156195913Y-85210157D02*
G01*
X155980826Y-84598634D01*
X155775968Y-83987264D01*
X155702542Y-83999629D01*
X155632475Y-84004819D01*
X155562561Y-83999629D01*
X155485471Y-83987264D01*
X155621942Y-84303559D01*
X155791691Y-84698316D01*
X155973805Y-85159477D01*
X156146912Y-85667807D01*
X156241403Y-85660786D01*
X156335895Y-85660786D01*
X156430539Y-85660786D01*
X156525030Y-85667807D01*
X156680735Y-85227560D01*
X156850484Y-84754187D01*
X157008020Y-84319282D01*
X157130447Y-83987264D01*
X156988786Y-83999629D01*
X156853995Y-84004819D01*
X156722714Y-83999629D01*
X156591434Y-83987264D01*
X156400772Y-84598634D01*
X156202935Y-85210157D01*
X156195913Y-85210157D01*
G37*
G36*
X154603311Y-83329245D02*
G01*
X154745499Y-83367019D01*
X154870355Y-83428024D01*
X154980650Y-83512752D01*
X155078044Y-83623495D01*
X155169975Y-83780150D01*
X155240120Y-83973377D01*
X155285765Y-84210578D01*
X155302289Y-84500479D01*
X155289416Y-84772883D01*
X155253288Y-85005451D01*
X155212897Y-85152905D01*
X155161786Y-85279623D01*
X155100789Y-85388149D01*
X155024820Y-85485655D01*
X154938053Y-85564913D01*
X154839602Y-85627507D01*
X154731574Y-85671972D01*
X154607546Y-85699841D01*
X154464536Y-85709634D01*
X154297611Y-85695365D01*
X154154875Y-85654757D01*
X154031869Y-85589421D01*
X153925362Y-85498641D01*
X153833627Y-85379448D01*
X153749434Y-85213262D01*
X153684581Y-85007945D01*
X153642165Y-84755830D01*
X153629576Y-84503990D01*
X154164118Y-84503990D01*
X154169488Y-84816006D01*
X154183352Y-85037050D01*
X154208879Y-85231088D01*
X154239375Y-85359298D01*
X154284860Y-85462824D01*
X154334019Y-85517751D01*
X154395873Y-85548802D01*
X154468658Y-85559425D01*
X154558335Y-85543259D01*
X154626195Y-85496837D01*
X154675871Y-85422496D01*
X154717175Y-85301749D01*
X154741852Y-85159948D01*
X154757475Y-84962251D01*
X154766176Y-84469186D01*
X154761349Y-84183245D01*
X154748774Y-83976426D01*
X154724245Y-83793205D01*
X154692751Y-83668069D01*
X154646113Y-83565280D01*
X154596428Y-83507937D01*
X154534297Y-83474076D01*
X154461636Y-83462600D01*
X154389258Y-83473736D01*
X154328676Y-83506258D01*
X154280774Y-83562099D01*
X154235864Y-83664711D01*
X154205763Y-83790870D01*
X154181673Y-83981616D01*
X154169014Y-84198594D01*
X154164118Y-84503990D01*
X153629576Y-84503990D01*
X153626783Y-84448120D01*
X153643061Y-84158335D01*
X153687527Y-83926831D01*
X153754991Y-83743313D01*
X153842328Y-83599071D01*
X153935435Y-83496983D01*
X154039834Y-83418906D01*
X154157004Y-83362781D01*
X154289368Y-83328121D01*
X154440112Y-83316054D01*
X154603311Y-83329245D01*
G37*
G36*
X153294613Y-85431655D02*
G01*
X153285128Y-85355233D01*
X153257347Y-85287936D01*
X153210349Y-85227407D01*
X153149816Y-85180302D01*
X153082617Y-85152482D01*
X153006407Y-85142991D01*
X152930201Y-85152485D01*
X152863056Y-85180307D01*
X152802616Y-85227407D01*
X152755527Y-85287947D01*
X152727700Y-85355243D01*
X152718200Y-85431655D01*
X152727801Y-85507693D01*
X152755691Y-85573067D01*
X152802616Y-85630408D01*
X152862690Y-85674411D01*
X152929859Y-85700638D01*
X153006407Y-85709634D01*
X153082959Y-85700642D01*
X153150182Y-85674416D01*
X153210349Y-85630408D01*
X153257183Y-85573078D01*
X153285026Y-85507703D01*
X153294613Y-85431655D01*
G37*
G36*
X152366490Y-85522483D02*
G01*
X152109273Y-85279755D01*
X151907466Y-85070328D01*
X151730746Y-84861768D01*
X151599110Y-84677403D01*
X151494406Y-84491002D01*
X151427529Y-84321113D01*
X151387885Y-84148925D01*
X151374864Y-83978716D01*
X151383017Y-83841883D01*
X151404631Y-83739663D01*
X151440977Y-83650177D01*
X151485232Y-83584111D01*
X151540079Y-83532330D01*
X151599110Y-83498626D01*
X151663256Y-83478896D01*
X151728864Y-83472370D01*
X151820120Y-83486434D01*
X151891743Y-83526561D01*
X151949710Y-83586560D01*
X151995089Y-83659368D01*
X152027530Y-83739933D01*
X152047753Y-83825148D01*
X152061645Y-83982227D01*
X152096755Y-83992760D01*
X152233378Y-83872317D01*
X152370001Y-83762255D01*
X152315952Y-83644944D01*
X152236227Y-83539730D01*
X152127743Y-83445045D01*
X152001972Y-83376550D01*
X151842204Y-83332222D01*
X151639715Y-83316054D01*
X151408485Y-83331380D01*
X151237630Y-83371925D01*
X151090099Y-83438556D01*
X150984839Y-83516791D01*
X150904732Y-83611796D01*
X150854932Y-83712338D01*
X150826985Y-83818802D01*
X150817991Y-83919945D01*
X150828194Y-84035486D01*
X150860123Y-84159150D01*
X150915638Y-84283874D01*
X151013080Y-84438350D01*
X151137670Y-84595379D01*
X151318994Y-84789296D01*
X151530288Y-84990121D01*
X151819844Y-85243130D01*
X151816333Y-85250152D01*
X151320826Y-85243130D01*
X150825013Y-85222064D01*
X150830355Y-85334874D01*
X150835546Y-85447226D01*
X150830355Y-85561714D01*
X150821502Y-85665670D01*
X151214885Y-85665670D01*
X151608116Y-85665670D01*
X151987303Y-85665670D01*
X152366490Y-85665670D01*
X152366490Y-85522483D01*
G37*
%LPC*%
D11*
%TO.C,H2*%
X147374627Y-96585786D03*
X147967736Y-95153895D03*
X147967736Y-98017677D03*
X149399627Y-94560786D03*
D12*
X149399627Y-96585786D03*
D11*
X149399627Y-98610786D03*
X150831518Y-95153895D03*
X150831518Y-98017677D03*
X151424627Y-96585786D03*
%TD*%
%TO.C,H1*%
X147560786Y-74585786D03*
X148153895Y-73153895D03*
X148153895Y-76017677D03*
X149585786Y-72560786D03*
D12*
X149585786Y-74585786D03*
D11*
X149585786Y-76610786D03*
X151017677Y-73153895D03*
X151017677Y-76017677D03*
X151610786Y-74585786D03*
%TD*%
D13*
%TO.C,TP1*%
X157585786Y-80585786D03*
%TD*%
D11*
%TO.C,H3*%
X184535786Y-74585786D03*
X185128895Y-73153895D03*
X185128895Y-76017677D03*
X186560786Y-72560786D03*
D12*
X186560786Y-74585786D03*
D11*
X186560786Y-76610786D03*
X187992677Y-73153895D03*
X187992677Y-76017677D03*
X188585786Y-74585786D03*
%TD*%
D14*
%TO.C,J1*%
X149925268Y-80195786D03*
X149925268Y-81445786D03*
X149925268Y-82705786D03*
X149925268Y-83955786D03*
X149925268Y-85195786D03*
X149925268Y-86445786D03*
D15*
X149925268Y-87705786D03*
D14*
X149925268Y-88955786D03*
%TD*%
D13*
%TO.C,TP3*%
X157585786Y-84585786D03*
%TD*%
D16*
%TO.C,U1*%
X162085786Y-74455786D03*
X162085786Y-76995786D03*
X162085786Y-79535786D03*
X162085786Y-82075786D03*
X162085786Y-87155786D03*
X162085786Y-84615786D03*
X177325786Y-92235786D03*
X162085786Y-92235786D03*
X177325786Y-89695786D03*
X177325786Y-87155786D03*
X177325786Y-84615786D03*
X177325786Y-82075786D03*
X177325786Y-79535786D03*
X177325786Y-76995786D03*
X177325786Y-74455786D03*
X162085786Y-89695786D03*
%TD*%
D11*
%TO.C,H4*%
X184560786Y-96560786D03*
X185153895Y-95128895D03*
X185153895Y-97992677D03*
X186585786Y-94535786D03*
D12*
X186585786Y-96560786D03*
D11*
X186585786Y-98585786D03*
X188017677Y-95128895D03*
X188017677Y-97992677D03*
X188610786Y-96560786D03*
%TD*%
%LPD*%
M02*
